<svg width="47" height="30" viewBox="0 0 47 30" fill="none" xmlns="http://www.w3.org/2000/svg">
<g clip-path="url(#clip0_100_66)">
<path d="M23.5003 2.5C15.9216 2.5 9.79199 6.4125 9.79199 11.25C9.79199 17.8125 23.5003 27.5 23.5003 27.5C23.5003 27.5 37.2087 17.8125 37.2087 11.25C37.2087 6.4125 31.0791 2.5 23.5003 2.5ZM23.5003 14.375C22.2019 14.375 20.9566 14.0458 20.0384 13.4597C19.1203 12.8737 18.6045 12.0788 18.6045 11.25C18.6045 10.4212 19.1203 9.62634 20.0384 9.04029C20.9566 8.45424 22.2019 8.125 23.5003 8.125C24.7988 8.125 26.0441 8.45424 26.9622 9.04029C27.8803 9.62634 28.3962 10.4212 28.3962 11.25C28.3962 12.0788 27.8803 12.8737 26.9622 13.4597C26.0441 14.0458 24.7988 14.375 23.5003 14.375Z" fill="white"/>
</g>
<defs>
<clipPath id="clip0_100_66">
<rect width="47" height="30" fill="white"/>
</clipPath>
</defs>
</svg>
