<svg width="42" height="29" viewBox="0 0 42 29" fill="none" xmlns="http://www.w3.org/2000/svg">
<path fill-rule="evenodd" clip-rule="evenodd" d="M12.3423 0.087C14.5816 0.0158182 15.2956 0 21 0C26.7044 0 27.4184 0.0171363 29.6558 0.087C31.8933 0.156864 33.4205 0.403364 34.7569 0.760591C36.1563 1.12573 37.4258 1.6965 38.4758 2.43468C39.5449 3.15836 40.3696 4.03364 40.8965 5.00118C41.4158 5.92391 41.7709 6.97846 41.874 8.52073C41.9771 10.0696 42 10.5626 42 14.5C42 18.4387 41.9752 18.9317 41.874 20.478C41.7728 22.0202 41.4158 23.0748 40.8965 23.9975C40.3696 24.9652 39.5435 25.8419 38.4758 26.5666C37.4258 27.3048 36.1563 27.8743 34.7569 28.2381C33.4205 28.5966 31.8933 28.8418 29.6596 28.913C27.4184 28.9842 26.7044 29 21 29C15.2956 29 14.5816 28.9829 12.3423 28.913C10.1086 28.8431 8.58136 28.5966 7.245 28.2381C5.84358 27.8742 4.57384 27.3038 3.52418 26.5666C2.45582 25.8425 1.62906 24.9662 1.10155 23.9988C0.584182 23.0761 0.229091 22.0215 0.126 20.4793C0.0229091 18.9304 0 18.4374 0 14.5C0 10.5613 0.0248182 10.0683 0.126 8.52336C0.227182 6.97845 0.584182 5.92391 1.10155 5.00118C1.62983 4.03374 2.45723 3.15746 3.52609 2.43336C4.57426 1.69584 5.84272 1.12499 7.24309 0.760591C8.57945 0.403364 10.1086 0.158182 12.3423 0.087ZM29.484 2.697C27.2695 2.62714 26.6051 2.61264 20.9981 2.61264C15.3911 2.61264 14.7267 2.62714 12.5122 2.697C10.4637 2.76159 9.35264 2.99755 8.61191 3.19659C7.63255 3.46023 6.93191 3.77264 6.19691 4.28014C5.50018 4.74816 4.96398 5.31792 4.62764 5.94764C4.33936 6.45909 3.99764 7.22627 3.90409 8.64068C3.80291 10.1698 3.78191 10.6285 3.78191 14.5C3.78191 18.3715 3.80291 18.8302 3.90409 20.3593C3.99764 21.7737 4.33936 22.5409 4.62764 23.0524C4.96364 23.6811 5.50009 24.2519 6.19691 24.7199C6.87464 25.201 7.70127 25.5714 8.61191 25.8034C9.35264 26.0025 10.4637 26.2384 12.5122 26.303C14.7267 26.3729 15.3892 26.3874 20.9981 26.3874C26.607 26.3874 27.2695 26.3729 29.484 26.303C31.5325 26.2384 32.6435 26.0025 33.3843 25.8034C34.3636 25.5398 35.0643 25.2274 35.7993 24.7199C36.4961 24.2519 37.0325 23.6811 37.3685 23.0524C37.6568 22.5409 37.9985 21.7737 38.0921 20.3593C38.1933 18.8302 38.2143 18.3715 38.2143 14.5C38.2143 10.6285 38.1933 10.1698 38.0921 8.64068C37.9985 7.22627 37.6568 6.45909 37.3685 5.94764C36.9867 5.27141 36.5343 4.78764 35.7993 4.28014C35.1214 3.79909 34.2962 3.42887 33.3843 3.19659C32.6435 2.99755 31.5325 2.76159 29.484 2.697ZM18.3158 18.97C19.8138 19.4005 21.4818 19.4586 23.035 19.1344C24.5881 18.8101 25.93 18.1236 26.8315 17.192C27.733 16.2605 28.1382 15.1418 27.9778 14.0269C27.8174 12.912 27.1015 11.8702 25.9522 11.0793C25.2195 10.5738 24.3337 10.1867 23.3584 9.94588C22.383 9.70509 21.3425 9.61661 20.3118 9.68681C19.281 9.75701 18.2856 9.98414 17.3972 10.3519C16.5088 10.7196 15.7495 11.2187 15.174 11.8133C14.5986 12.408 14.2212 13.0833 14.0691 13.7908C13.917 14.4982 13.9939 15.2201 14.2944 15.9045C14.5949 16.589 15.1114 17.2189 15.8067 17.749C16.5021 18.279 17.359 18.696 18.3158 18.97ZM13.3675 9.22991C14.3698 8.53783 15.5597 7.98885 16.8693 7.61429C18.1789 7.23974 19.5825 7.04697 21 7.04697C22.4175 7.04697 23.8211 7.23974 25.1307 7.61429C26.4403 7.98884 27.6302 8.53783 28.6325 9.22991C29.6349 9.92199 30.4299 10.7436 30.9724 11.6478C31.5149 12.5521 31.794 13.5213 31.794 14.5C31.794 15.4787 31.5149 16.4479 30.9724 17.3522C30.4299 18.2564 29.6349 19.078 28.6325 19.7701C26.6083 21.1678 23.8628 21.953 21 21.953C18.1372 21.953 15.3917 21.1678 13.3675 19.7701C11.3432 18.3724 10.206 16.4767 10.206 14.5C10.206 12.5233 11.3432 10.6276 13.3675 9.22991ZM34.188 8.15691C34.4364 7.99513 34.6352 7.80058 34.7728 7.58478C34.9103 7.36899 34.9837 7.13633 34.9887 6.90059C34.9937 6.66485 34.9301 6.43081 34.8017 6.21234C34.6734 5.99387 34.4828 5.7954 34.2414 5.62869C33.9999 5.46198 33.7125 5.33041 33.3961 5.24177C33.0797 5.15314 32.7407 5.10924 32.3993 5.11268C32.0579 5.11611 31.7209 5.16682 31.4084 5.26178C31.0959 5.35675 30.8141 5.49404 30.5798 5.66555C30.1241 5.99908 29.8747 6.44211 29.8843 6.90059C29.894 7.35906 30.1621 7.79689 30.6317 8.12111C31.1012 8.44534 31.7353 8.63044 32.3993 8.63712C33.0633 8.64381 33.7049 8.47155 34.188 8.15691Z" fill="white"/>
</svg>
