<svg width="257" height="56" viewBox="0 0 257 56" fill="none" xmlns="http://www.w3.org/2000/svg">
<g filter="url(#filter0_d_97_4)">
<path d="M2 27C2 12.6406 13.6406 1 28 1H229C243.359 1 255 12.6406 255 27V27C255 41.3594 243.359 53 229 53H28C13.6406 53 2 41.3594 2 27V27Z" fill="#9A4F4F" fill-opacity="0.8" shape-rendering="crispEdges"/>
<path d="M40.212 31.04C40.212 31.1147 40.1747 31.2053 40.1 31.312C40.036 31.4187 39.9827 31.4987 39.94 31.552C39.2893 32.5227 38.5533 33.1947 37.732 33.568C36.9107 33.9413 35.9293 34.128 34.788 34.128C33.5827 34.128 32.5267 33.8933 31.62 33.424C30.724 32.944 30.0307 32.2667 29.54 31.392C29.0493 30.5173 28.804 29.472 28.804 28.256C28.804 27.04 29.044 25.968 29.524 25.04C30.004 24.1013 30.692 23.3707 31.588 22.848C32.484 22.3253 33.5507 22.064 34.788 22.064C35.2893 22.064 35.764 22.1387 36.212 22.288C36.6707 22.4373 37.1347 22.576 37.604 22.704C37.8493 22.768 38.0947 22.8107 38.34 22.832C38.5853 22.8533 38.8307 22.864 39.076 22.864C39.1187 23.2373 39.156 23.616 39.188 24C39.2307 24.3733 39.2787 24.7467 39.332 25.12C39.3533 25.2587 39.38 25.3973 39.412 25.536C39.444 25.6747 39.46 25.8187 39.46 25.968C39.46 26.1387 39.3853 26.2613 39.236 26.336C39.0867 26.4 38.9427 26.432 38.804 26.432C38.6973 26.432 38.6013 26.3947 38.516 26.32C38.4307 26.2453 38.3667 26.16 38.324 26.064C38.292 25.9893 38.2653 25.904 38.244 25.808C38.2333 25.712 38.2173 25.6267 38.196 25.552C37.9827 24.6987 37.5987 24 37.044 23.456C36.5 22.9013 35.7693 22.624 34.852 22.624C34.5213 22.624 34.1747 22.6933 33.812 22.832C33.46 22.96 33.1453 23.1147 32.868 23.296C32.3667 23.6587 31.956 24.1067 31.636 24.64C31.3267 25.1733 31.1027 25.7493 30.964 26.368C30.8253 26.976 30.756 27.5787 30.756 28.176C30.756 28.6027 30.7987 29.04 30.884 29.488C30.98 29.936 31.108 30.3627 31.268 30.768C31.6307 31.6107 32.1427 32.2613 32.804 32.72C33.476 33.168 34.276 33.392 35.204 33.392C35.9933 33.392 36.708 33.2107 37.348 32.848C37.9987 32.4747 38.5587 31.9787 39.028 31.36C39.0813 31.2747 39.1347 31.1893 39.188 31.104C39.252 31.0187 39.316 30.9387 39.38 30.864C39.476 30.7467 39.6093 30.688 39.78 30.688C39.844 30.688 39.9293 30.7307 40.036 30.816C40.1533 30.8907 40.212 30.9653 40.212 31.04ZM58.132 22.56C58.132 22.6667 58.068 22.7467 57.94 22.8C57.8227 22.8427 57.7213 22.864 57.636 22.864C57.508 22.864 57.38 22.8587 57.252 22.848C57.124 22.8267 56.996 22.816 56.868 22.816C56.7507 22.816 56.66 22.8373 56.596 22.88C56.5427 22.9227 56.484 22.9973 56.42 23.104C56.42 23.104 56.4147 23.2213 56.404 23.456C56.404 23.6907 56.404 23.968 56.404 24.288C56.404 24.608 56.404 24.896 56.404 25.152C56.404 25.408 56.404 25.5627 56.404 25.616V28.512C56.404 29.1413 56.404 29.776 56.404 30.416C56.4147 31.056 56.42 31.6907 56.42 32.32C56.42 32.48 56.4253 32.6453 56.436 32.816C56.4573 32.976 56.5107 33.1147 56.596 33.232C56.692 33.3493 56.8467 33.408 57.06 33.408C57.1667 33.408 57.2733 33.4027 57.38 33.392C57.4867 33.3813 57.5933 33.376 57.7 33.376C57.7747 33.376 57.8547 33.408 57.94 33.472C58.0253 33.5253 58.068 33.5947 58.068 33.68C58.068 33.8613 58.0093 33.968 57.892 34C57.7747 34.0213 57.6413 34.032 57.492 34.032C57.172 34.032 56.852 34.0213 56.532 34C56.2227 33.9893 55.908 33.984 55.588 33.984C55.2253 33.984 54.8573 33.9947 54.484 34.016C54.1107 34.0373 53.7373 34.048 53.364 34.048C53.268 34.048 53.1827 34.0213 53.108 33.968C53.044 33.9147 53.012 33.8347 53.012 33.728C53.012 33.6107 53.0653 33.536 53.172 33.504C53.2893 33.4613 53.412 33.44 53.54 33.44C53.6787 33.44 53.7853 33.4347 53.86 33.424C54.1907 33.36 54.404 33.2213 54.5 33.008C54.596 32.784 54.644 32.5227 54.644 32.224V23.472C54.0467 24.9333 53.444 26.4 52.836 27.872C52.228 29.3333 51.636 30.8 51.06 32.272C50.9853 32.4747 50.9053 32.6827 50.82 32.896C50.7453 33.1093 50.66 33.3173 50.564 33.52C50.3933 33.6053 50.2173 33.648 50.036 33.648C49.9187 33.648 49.8333 33.6213 49.78 33.568C49.7053 33.4933 49.636 33.3653 49.572 33.184C49.5187 32.992 49.4653 32.848 49.412 32.752C48.74 31.216 48.0627 29.6853 47.38 28.16C46.6973 26.624 46.0253 25.088 45.364 23.552C45.364 25.024 45.3587 26.496 45.348 27.968C45.348 29.44 45.348 30.912 45.348 32.384C45.348 32.736 45.396 32.9813 45.492 33.12C45.588 33.2587 45.732 33.3387 45.924 33.36C46.116 33.3707 46.3507 33.376 46.628 33.376C46.7133 33.376 46.7933 33.408 46.868 33.472C46.9533 33.5253 46.996 33.6 46.996 33.696C46.996 33.8347 46.9427 33.92 46.836 33.952C46.74 33.984 46.6333 34 46.516 34C46.3453 34 46.1747 34 46.004 34C45.8333 33.9893 45.6627 33.984 45.492 33.984C45.1293 33.984 44.772 33.9947 44.42 34.016C44.068 34.048 43.7107 34.064 43.348 34.064C43.2413 34.064 43.1453 34.0427 43.06 34C42.9853 33.9467 42.948 33.8613 42.948 33.744C42.948 33.5947 43.028 33.5093 43.188 33.488C43.348 33.4667 43.4813 33.456 43.588 33.456C43.9933 33.456 44.244 33.3653 44.34 33.184C44.4467 32.992 44.5 32.7147 44.5 32.352C44.5 30.848 44.5053 29.344 44.516 27.84C44.5373 26.3253 44.548 24.816 44.548 23.312C44.548 22.9707 44.3827 22.8 44.052 22.8C43.9453 22.8 43.8333 22.8107 43.716 22.832C43.6093 22.8427 43.4973 22.848 43.38 22.848C43.2733 22.848 43.1613 22.8267 43.044 22.784C42.9373 22.7307 42.884 22.64 42.884 22.512C42.884 22.4373 42.9107 22.368 42.964 22.304C43.028 22.24 43.0973 22.208 43.172 22.208C43.5347 22.208 43.892 22.2187 44.244 22.24C44.596 22.2507 44.9533 22.256 45.316 22.256C45.5507 22.256 45.78 22.256 46.004 22.256C46.2387 22.256 46.4733 22.2507 46.708 22.24L50.66 31.216C51.2893 29.7227 51.908 28.2347 52.516 26.752C53.124 25.2587 53.7107 23.76 54.276 22.256C54.8733 22.256 55.4653 22.2507 56.052 22.24C56.6493 22.2187 57.2413 22.208 57.828 22.208C57.9027 22.208 57.972 22.2507 58.036 22.336C58.1 22.4213 58.132 22.496 58.132 22.56ZM70.404 28.096C70.404 27.4773 70.3347 26.8533 70.196 26.224C70.0573 25.584 69.8333 25.0027 69.524 24.48C69.2253 23.9467 68.8253 23.52 68.324 23.2C67.8227 22.88 67.204 22.72 66.468 22.72C65.764 22.72 65.156 22.8907 64.644 23.232C64.1427 23.5627 63.732 24.0053 63.412 24.56C63.092 25.104 62.852 25.696 62.692 26.336C62.5427 26.976 62.468 27.5947 62.468 28.192C62.468 28.8213 62.5373 29.4507 62.676 30.08C62.8253 30.6987 63.0547 31.264 63.364 31.776C63.684 32.288 64.0947 32.6987 64.596 33.008C65.108 33.3173 65.732 33.472 66.468 33.472C67.204 33.472 67.8227 33.312 68.324 32.992C68.8253 32.672 69.2253 32.2507 69.524 31.728C69.8333 31.1947 70.0573 30.6133 70.196 29.984C70.3347 29.344 70.404 28.7147 70.404 28.096ZM72.404 28.064C72.404 29.312 72.1693 30.3893 71.7 31.296C71.2413 32.192 70.5693 32.8853 69.684 33.376C68.7987 33.856 67.7267 34.096 66.468 34.096C65.252 34.096 64.2013 33.856 63.316 33.376C62.4413 32.896 61.7693 32.2187 61.3 31.344C60.8307 30.4587 60.596 29.408 60.596 28.192C60.596 27.328 60.7347 26.528 61.012 25.792C61.2893 25.056 61.6893 24.416 62.212 23.872C62.7347 23.3173 63.3533 22.8907 64.068 22.592C64.7933 22.2827 65.5933 22.128 66.468 22.128C67.7053 22.128 68.7667 22.368 69.652 22.848C70.5373 23.3173 71.2147 23.9947 71.684 24.88C72.164 25.7653 72.404 26.8267 72.404 28.064ZM87.908 25.168C87.908 25.2533 87.8653 25.312 87.78 25.344C87.6947 25.3653 87.62 25.376 87.556 25.376C87.4813 25.376 87.412 25.3653 87.348 25.344C87.284 25.312 87.2307 25.232 87.188 25.104C87.1453 24.9653 87.1133 24.8213 87.092 24.672C87.0707 24.5227 87.0493 24.4107 87.028 24.336C86.9213 23.8773 86.756 23.5467 86.532 23.344C86.308 23.1413 86.0307 23.0133 85.7 22.96C85.38 22.9067 85.012 22.88 84.596 22.88C84.4573 22.88 84.2973 22.8853 84.116 22.896C83.9347 22.9067 83.7693 22.9493 83.62 23.024C83.4813 23.0987 83.396 23.232 83.364 23.424C83.3533 23.4667 83.348 23.52 83.348 23.584C83.348 23.6373 83.348 23.6907 83.348 23.744C83.348 25.184 83.3533 26.624 83.364 28.064C83.3747 29.4933 83.38 30.928 83.38 32.368C83.38 32.6347 83.4333 32.88 83.54 33.104C83.6573 33.328 83.8707 33.44 84.18 33.44C84.2973 33.44 84.4093 33.44 84.516 33.44C84.6333 33.4293 84.7453 33.424 84.852 33.424C84.9373 33.424 85.0173 33.4507 85.092 33.504C85.1773 33.5467 85.22 33.616 85.22 33.712C85.22 33.8507 85.1667 33.9413 85.06 33.984C84.964 34.016 84.8573 34.032 84.74 34.032C84.3453 34.032 83.956 34.0267 83.572 34.016C83.188 34.016 82.7987 34.016 82.404 34.016C82.0093 34.016 81.6147 34.0213 81.22 34.032C80.8253 34.0427 80.4307 34.048 80.036 34.048C79.9507 34.048 79.86 34.032 79.764 34C79.6787 33.9573 79.636 33.8827 79.636 33.776C79.636 33.6267 79.6947 33.5467 79.812 33.536C79.94 33.5147 80.0573 33.504 80.164 33.504C80.6013 33.504 80.932 33.4347 81.156 33.296C81.38 33.1467 81.492 32.8267 81.492 32.336C81.492 30.992 81.492 29.6533 81.492 28.32C81.492 26.976 81.492 25.6373 81.492 24.304C81.492 23.952 81.4867 23.68 81.476 23.488C81.476 23.2853 81.4387 23.1413 81.364 23.056C81.2893 22.9707 81.156 22.9173 80.964 22.896C80.772 22.8747 80.4893 22.864 80.116 22.864C79.732 22.864 79.4013 22.8907 79.124 22.944C78.8467 22.9867 78.612 23.104 78.42 23.296C78.2387 23.4773 78.0947 23.776 77.988 24.192C77.9773 24.256 77.956 24.368 77.924 24.528C77.892 24.688 77.86 24.8427 77.828 24.992C77.796 25.1413 77.764 25.232 77.732 25.264C77.6467 25.3493 77.5347 25.392 77.396 25.392C77.3427 25.392 77.2787 25.376 77.204 25.344C77.1293 25.3013 77.092 25.2427 77.092 25.168C77.092 24.8693 77.0973 24.576 77.108 24.288C77.1293 23.9893 77.1453 23.6907 77.156 23.392C77.1667 23.2107 77.172 23.0293 77.172 22.848C77.1827 22.6667 77.2093 22.4907 77.252 22.32C77.316 22.256 77.3907 22.224 77.476 22.224C77.8173 22.224 78.1587 22.24 78.5 22.272C78.8413 22.2933 79.1827 22.304 79.524 22.304H82.068C82.516 22.304 82.964 22.304 83.412 22.304C83.86 22.304 84.308 22.2987 84.756 22.288C85.2467 22.2773 85.732 22.2667 86.212 22.256C86.692 22.2347 87.172 22.2187 87.652 22.208C87.6733 22.2293 87.6947 22.256 87.716 22.288C87.7373 22.32 87.7533 22.352 87.764 22.384C87.7853 22.448 87.8067 22.608 87.828 22.864C87.8493 23.1093 87.8653 23.392 87.876 23.712C87.8867 24.032 87.892 24.3307 87.892 24.608C87.9027 24.8853 87.908 25.072 87.908 25.168ZM101.748 25.296C101.748 24.6667 101.593 24.176 101.284 23.824C100.975 23.4613 100.575 23.2107 100.084 23.072C99.5933 22.9227 99.0813 22.848 98.548 22.848C98.4627 22.848 98.324 22.8587 98.132 22.88C97.9507 22.8907 97.7587 22.9173 97.556 22.96C97.364 23.0027 97.1987 23.0667 97.06 23.152C96.932 23.2267 96.868 23.3227 96.868 23.44V27.68C97.1347 27.84 97.4333 27.9467 97.764 28C98.1053 28.0427 98.4253 28.064 98.724 28.064C99.6093 28.064 100.335 27.84 100.9 27.392C101.465 26.9333 101.748 26.2347 101.748 25.296ZM103.668 25.2C103.668 25.936 103.524 26.5333 103.236 26.992C102.948 27.4507 102.564 27.8027 102.084 28.048C101.604 28.2827 101.071 28.448 100.484 28.544C99.8973 28.6293 99.3 28.672 98.692 28.672C98.3933 28.672 98.0893 28.656 97.78 28.624C97.4813 28.592 97.1827 28.5547 96.884 28.512C96.884 29.1413 96.884 29.7707 96.884 30.4C96.8947 31.0293 96.9 31.6587 96.9 32.288C96.9 32.576 96.948 32.8427 97.044 33.088C97.1507 33.3333 97.3747 33.456 97.716 33.456C97.8013 33.456 97.8867 33.456 97.972 33.456C98.068 33.4453 98.1587 33.44 98.244 33.44C98.3187 33.44 98.3987 33.4667 98.484 33.52C98.5693 33.5733 98.612 33.6427 98.612 33.728C98.612 33.856 98.5587 33.9467 98.452 34C98.3453 34.0427 98.2387 34.064 98.132 34.064C97.78 34.064 97.428 34.0533 97.076 34.032C96.724 34.0213 96.3773 34.016 96.036 34.016C95.6627 34.016 95.2947 34.0267 94.932 34.048C94.5693 34.0693 94.2013 34.08 93.828 34.08C93.5933 34.08 93.476 33.9733 93.476 33.76C93.476 33.7067 93.508 33.648 93.572 33.584C93.6467 33.5093 93.7107 33.472 93.764 33.472H93.972C94.068 33.472 94.164 33.472 94.26 33.472C94.3667 33.4613 94.468 33.4453 94.564 33.424C94.8413 33.36 95.012 33.2373 95.076 33.056C95.14 32.864 95.172 32.64 95.172 32.384C95.172 30.9973 95.172 29.616 95.172 28.24C95.1827 26.8533 95.188 25.4667 95.188 24.08C95.188 23.8773 95.1827 23.696 95.172 23.536C95.172 23.3653 95.124 23.2267 95.028 23.12C94.9427 23.0133 94.7667 22.96 94.5 22.96C94.3933 22.96 94.2867 22.9653 94.18 22.976C94.0733 22.9867 93.9667 22.992 93.86 22.992C93.7747 22.992 93.668 22.9653 93.54 22.912C93.412 22.8587 93.348 22.7787 93.348 22.672C93.348 22.5973 93.3747 22.5227 93.428 22.448C93.492 22.3627 93.5667 22.32 93.652 22.32C94.164 22.32 94.676 22.32 95.188 22.32C95.7107 22.32 96.228 22.3147 96.74 22.304C97.2413 22.2827 97.7427 22.2613 98.244 22.24C98.7453 22.2187 99.2467 22.208 99.748 22.208C100.249 22.208 100.735 22.256 101.204 22.352C101.673 22.4373 102.089 22.592 102.452 22.816C102.825 23.04 103.119 23.3493 103.332 23.744C103.556 24.128 103.668 24.6133 103.668 25.2ZM119.636 30.976C119.636 31.0827 119.625 31.1893 119.604 31.296C119.593 31.392 119.577 31.488 119.556 31.584C119.524 31.7973 119.492 32.0107 119.46 32.224C119.428 32.4267 119.401 32.6347 119.38 32.848C119.369 33.008 119.359 33.168 119.348 33.328C119.337 33.488 119.311 33.6427 119.268 33.792C119.236 33.8987 119.183 33.968 119.108 34C119.044 34.032 118.959 34.048 118.852 34.048C117.892 34.048 116.932 34.0373 115.972 34.016C115.012 34.0053 114.052 34 113.092 34C112.548 34 112.004 34.0107 111.46 34.032C110.927 34.064 110.388 34.08 109.844 34.08C109.769 34.08 109.684 34.0533 109.588 34C109.492 33.936 109.444 33.8667 109.444 33.792C109.444 33.6107 109.513 33.4987 109.652 33.456C109.716 33.424 109.812 33.408 109.94 33.408C110.079 33.408 110.217 33.4133 110.356 33.424C110.495 33.424 110.591 33.424 110.644 33.424C110.9 33.424 111.071 33.3493 111.156 33.2C111.252 33.04 111.305 32.8533 111.316 32.64C111.327 32.416 111.332 32.2187 111.332 32.048C111.332 31.3547 111.337 30.672 111.348 30C111.359 29.3173 111.364 28.6347 111.364 27.952V24.752C111.364 24.5493 111.364 24.3467 111.364 24.144C111.364 23.9307 111.353 23.7227 111.332 23.52C111.321 23.3493 111.295 23.2267 111.252 23.152C111.209 23.0667 111.097 23.008 110.916 22.976C110.767 22.944 110.612 22.928 110.452 22.928C110.292 22.928 110.132 22.928 109.972 22.928C109.897 22.928 109.812 22.8907 109.716 22.816C109.631 22.7413 109.588 22.6613 109.588 22.576C109.588 22.5013 109.625 22.4267 109.7 22.352C109.785 22.2667 109.865 22.224 109.94 22.224C110.111 22.224 110.281 22.2293 110.452 22.24C110.623 22.2507 110.793 22.256 110.964 22.256H114.58C114.985 22.256 115.391 22.256 115.796 22.256C116.201 22.2453 116.601 22.2347 116.996 22.224C117.263 22.2133 117.524 22.2027 117.78 22.192C118.036 22.1707 118.297 22.16 118.564 22.16C118.607 22.16 118.649 22.1707 118.692 22.192C118.745 22.2027 118.777 22.2293 118.788 22.272C118.799 22.2827 118.804 22.304 118.804 22.336C118.804 22.3573 118.804 22.3787 118.804 22.4C118.836 22.688 118.879 22.976 118.932 23.264C118.996 23.552 119.06 23.84 119.124 24.128C119.145 24.2027 119.161 24.2773 119.172 24.352C119.193 24.4267 119.204 24.5067 119.204 24.592C119.204 24.688 119.156 24.7627 119.06 24.816C118.964 24.8693 118.873 24.896 118.788 24.896C118.649 24.896 118.564 24.88 118.532 24.848C118.5 24.8053 118.463 24.7307 118.42 24.624C118.196 24.0587 117.919 23.6533 117.588 23.408C117.268 23.152 116.889 22.992 116.452 22.928C116.025 22.8533 115.54 22.816 114.996 22.816C114.74 22.816 114.479 22.8213 114.212 22.832C113.956 22.8427 113.7 22.848 113.444 22.848C113.359 22.848 113.268 22.88 113.172 22.944C113.076 22.9973 113.028 23.0773 113.028 23.184V27.536C113.241 27.536 113.455 27.5413 113.668 27.552C113.881 27.552 114.089 27.552 114.292 27.552C114.761 27.552 115.22 27.536 115.668 27.504C116.127 27.4613 116.585 27.3973 117.044 27.312C117.172 27.2907 117.295 27.264 117.412 27.232C117.529 27.2 117.652 27.184 117.78 27.184C117.812 27.184 117.855 27.2 117.908 27.232C117.961 27.2533 117.988 27.2907 117.988 27.344C117.988 27.3973 117.956 27.4987 117.892 27.648C117.839 27.7973 117.769 27.936 117.684 28.064C117.609 28.192 117.545 28.256 117.492 28.256H117.268C116.927 28.256 116.58 28.24 116.228 28.208C115.887 28.1653 115.545 28.144 115.204 28.144C115.087 28.144 114.911 28.1493 114.676 28.16C114.441 28.1707 114.196 28.1973 113.94 28.24C113.684 28.2827 113.465 28.352 113.284 28.448C113.113 28.5333 113.028 28.6613 113.028 28.832V32.768C113.028 33.088 113.113 33.28 113.284 33.344C113.465 33.3973 113.684 33.424 113.94 33.424H116.02C116.447 33.424 116.82 33.376 117.14 33.28C117.46 33.184 117.775 32.9867 118.084 32.688C118.308 32.464 118.489 32.1973 118.628 31.888C118.767 31.568 118.889 31.264 118.996 30.976C119.007 30.9547 119.017 30.9333 119.028 30.912C119.039 30.88 119.049 30.8587 119.06 30.848C119.081 30.816 119.113 30.7947 119.156 30.784C119.209 30.7733 119.257 30.768 119.3 30.768C119.353 30.768 119.423 30.784 119.508 30.816C119.593 30.848 119.636 30.9013 119.636 30.976ZM135.908 25.168C135.908 25.2533 135.865 25.312 135.78 25.344C135.695 25.3653 135.62 25.376 135.556 25.376C135.481 25.376 135.412 25.3653 135.348 25.344C135.284 25.312 135.231 25.232 135.188 25.104C135.145 24.9653 135.113 24.8213 135.092 24.672C135.071 24.5227 135.049 24.4107 135.028 24.336C134.921 23.8773 134.756 23.5467 134.532 23.344C134.308 23.1413 134.031 23.0133 133.7 22.96C133.38 22.9067 133.012 22.88 132.596 22.88C132.457 22.88 132.297 22.8853 132.116 22.896C131.935 22.9067 131.769 22.9493 131.62 23.024C131.481 23.0987 131.396 23.232 131.364 23.424C131.353 23.4667 131.348 23.52 131.348 23.584C131.348 23.6373 131.348 23.6907 131.348 23.744C131.348 25.184 131.353 26.624 131.364 28.064C131.375 29.4933 131.38 30.928 131.38 32.368C131.38 32.6347 131.433 32.88 131.54 33.104C131.657 33.328 131.871 33.44 132.18 33.44C132.297 33.44 132.409 33.44 132.516 33.44C132.633 33.4293 132.745 33.424 132.852 33.424C132.937 33.424 133.017 33.4507 133.092 33.504C133.177 33.5467 133.22 33.616 133.22 33.712C133.22 33.8507 133.167 33.9413 133.06 33.984C132.964 34.016 132.857 34.032 132.74 34.032C132.345 34.032 131.956 34.0267 131.572 34.016C131.188 34.016 130.799 34.016 130.404 34.016C130.009 34.016 129.615 34.0213 129.22 34.032C128.825 34.0427 128.431 34.048 128.036 34.048C127.951 34.048 127.86 34.032 127.764 34C127.679 33.9573 127.636 33.8827 127.636 33.776C127.636 33.6267 127.695 33.5467 127.812 33.536C127.94 33.5147 128.057 33.504 128.164 33.504C128.601 33.504 128.932 33.4347 129.156 33.296C129.38 33.1467 129.492 32.8267 129.492 32.336C129.492 30.992 129.492 29.6533 129.492 28.32C129.492 26.976 129.492 25.6373 129.492 24.304C129.492 23.952 129.487 23.68 129.476 23.488C129.476 23.2853 129.439 23.1413 129.364 23.056C129.289 22.9707 129.156 22.9173 128.964 22.896C128.772 22.8747 128.489 22.864 128.116 22.864C127.732 22.864 127.401 22.8907 127.124 22.944C126.847 22.9867 126.612 23.104 126.42 23.296C126.239 23.4773 126.095 23.776 125.988 24.192C125.977 24.256 125.956 24.368 125.924 24.528C125.892 24.688 125.86 24.8427 125.828 24.992C125.796 25.1413 125.764 25.232 125.732 25.264C125.647 25.3493 125.535 25.392 125.396 25.392C125.343 25.392 125.279 25.376 125.204 25.344C125.129 25.3013 125.092 25.2427 125.092 25.168C125.092 24.8693 125.097 24.576 125.108 24.288C125.129 23.9893 125.145 23.6907 125.156 23.392C125.167 23.2107 125.172 23.0293 125.172 22.848C125.183 22.6667 125.209 22.4907 125.252 22.32C125.316 22.256 125.391 22.224 125.476 22.224C125.817 22.224 126.159 22.24 126.5 22.272C126.841 22.2933 127.183 22.304 127.524 22.304H130.068C130.516 22.304 130.964 22.304 131.412 22.304C131.86 22.304 132.308 22.2987 132.756 22.288C133.247 22.2773 133.732 22.2667 134.212 22.256C134.692 22.2347 135.172 22.2187 135.652 22.208C135.673 22.2293 135.695 22.256 135.716 22.288C135.737 22.32 135.753 22.352 135.764 22.384C135.785 22.448 135.807 22.608 135.828 22.864C135.849 23.1093 135.865 23.392 135.876 23.712C135.887 24.032 135.892 24.3307 135.892 24.608C135.903 24.8853 135.908 25.072 135.908 25.168ZM149.46 30.72C149.46 29.888 149.257 29.248 148.852 28.8C148.457 28.3413 147.833 28.112 146.98 28.112C146.831 28.112 146.687 28.112 146.548 28.112C146.409 28.1013 146.265 28.096 146.116 28.096C145.881 28.096 145.652 28.1067 145.428 28.128C145.215 28.1387 144.996 28.1547 144.772 28.176V32.96C144.772 33.1413 144.831 33.2747 144.948 33.36C145.065 33.4347 145.204 33.4827 145.364 33.504C145.535 33.5253 145.684 33.536 145.812 33.536C146.431 33.536 147.017 33.4507 147.572 33.28C148.127 33.1093 148.58 32.8213 148.932 32.416C149.284 32 149.46 31.4347 149.46 30.72ZM151.396 30.48C151.396 31.2693 151.199 31.9307 150.804 32.464C150.409 32.9867 149.849 33.3867 149.124 33.664C148.665 33.8347 148.159 33.936 147.604 33.968C147.06 34 146.543 34.016 146.052 34.016C145.657 34.016 145.263 34.0107 144.868 34C144.484 33.9893 144.095 33.984 143.7 33.984C143.369 33.984 143.044 33.9893 142.724 34C142.404 34.0213 142.084 34.032 141.764 34.032C141.679 34.032 141.593 34.0107 141.508 33.968C141.433 33.9253 141.396 33.856 141.396 33.76C141.396 33.5787 141.455 33.488 141.572 33.488C141.7 33.488 141.817 33.488 141.924 33.488C142.255 33.488 142.511 33.4453 142.692 33.36C142.873 33.264 142.985 33.0347 143.028 32.672C143.049 32.5227 143.06 32.368 143.06 32.208C143.06 32.048 143.06 31.8933 143.06 31.744C143.06 30.3787 143.055 29.0187 143.044 27.664C143.044 26.3093 143.044 24.9547 143.044 23.6C143.044 23.44 143.012 23.2907 142.948 23.152C142.895 23.0133 142.783 22.9227 142.612 22.88C142.484 22.8373 142.345 22.8213 142.196 22.832C142.047 22.832 141.908 22.832 141.78 22.832C141.695 22.832 141.615 22.8107 141.54 22.768C141.476 22.7147 141.444 22.6453 141.444 22.56C141.444 22.4213 141.487 22.3253 141.572 22.272C141.657 22.2187 141.764 22.192 141.892 22.192C142.084 22.192 142.271 22.1973 142.452 22.208C142.644 22.2187 142.841 22.224 143.044 22.224C143.396 22.224 143.743 22.224 144.084 22.224C144.436 22.2133 144.793 22.208 145.156 22.208C145.284 22.208 145.407 22.2027 145.524 22.192C145.652 22.1813 145.785 22.176 145.924 22.176C145.977 22.176 146.036 22.2027 146.1 22.256C146.175 22.3093 146.212 22.368 146.212 22.432C146.212 22.5707 146.169 22.6613 146.084 22.704C146.009 22.736 145.919 22.752 145.812 22.752C145.705 22.7413 145.609 22.736 145.524 22.736C145.236 22.736 145.033 22.8 144.916 22.928C144.809 23.056 144.761 23.2587 144.772 23.536V27.552C145.081 27.5413 145.385 27.536 145.684 27.536C145.993 27.5253 146.303 27.52 146.612 27.52C146.975 27.52 147.343 27.5253 147.716 27.536C148.089 27.5467 148.457 27.5947 148.82 27.68C149.289 27.7867 149.716 27.9627 150.1 28.208C150.495 28.4533 150.809 28.768 151.044 29.152C151.279 29.5253 151.396 29.968 151.396 30.48ZM174.132 22.56C174.132 22.6667 174.068 22.7467 173.94 22.8C173.823 22.8427 173.721 22.864 173.636 22.864C173.508 22.864 173.38 22.8587 173.252 22.848C173.124 22.8267 172.996 22.816 172.868 22.816C172.751 22.816 172.66 22.8373 172.596 22.88C172.543 22.9227 172.484 22.9973 172.42 23.104C172.42 23.104 172.415 23.2213 172.404 23.456C172.404 23.6907 172.404 23.968 172.404 24.288C172.404 24.608 172.404 24.896 172.404 25.152C172.404 25.408 172.404 25.5627 172.404 25.616V28.512C172.404 29.1413 172.404 29.776 172.404 30.416C172.415 31.056 172.42 31.6907 172.42 32.32C172.42 32.48 172.425 32.6453 172.436 32.816C172.457 32.976 172.511 33.1147 172.596 33.232C172.692 33.3493 172.847 33.408 173.06 33.408C173.167 33.408 173.273 33.4027 173.38 33.392C173.487 33.3813 173.593 33.376 173.7 33.376C173.775 33.376 173.855 33.408 173.94 33.472C174.025 33.5253 174.068 33.5947 174.068 33.68C174.068 33.8613 174.009 33.968 173.892 34C173.775 34.0213 173.641 34.032 173.492 34.032C173.172 34.032 172.852 34.0213 172.532 34C172.223 33.9893 171.908 33.984 171.588 33.984C171.225 33.984 170.857 33.9947 170.484 34.016C170.111 34.0373 169.737 34.048 169.364 34.048C169.268 34.048 169.183 34.0213 169.108 33.968C169.044 33.9147 169.012 33.8347 169.012 33.728C169.012 33.6107 169.065 33.536 169.172 33.504C169.289 33.4613 169.412 33.44 169.54 33.44C169.679 33.44 169.785 33.4347 169.86 33.424C170.191 33.36 170.404 33.2213 170.5 33.008C170.596 32.784 170.644 32.5227 170.644 32.224V23.472C170.047 24.9333 169.444 26.4 168.836 27.872C168.228 29.3333 167.636 30.8 167.06 32.272C166.985 32.4747 166.905 32.6827 166.82 32.896C166.745 33.1093 166.66 33.3173 166.564 33.52C166.393 33.6053 166.217 33.648 166.036 33.648C165.919 33.648 165.833 33.6213 165.78 33.568C165.705 33.4933 165.636 33.3653 165.572 33.184C165.519 32.992 165.465 32.848 165.412 32.752C164.74 31.216 164.063 29.6853 163.38 28.16C162.697 26.624 162.025 25.088 161.364 23.552C161.364 25.024 161.359 26.496 161.348 27.968C161.348 29.44 161.348 30.912 161.348 32.384C161.348 32.736 161.396 32.9813 161.492 33.12C161.588 33.2587 161.732 33.3387 161.924 33.36C162.116 33.3707 162.351 33.376 162.628 33.376C162.713 33.376 162.793 33.408 162.868 33.472C162.953 33.5253 162.996 33.6 162.996 33.696C162.996 33.8347 162.943 33.92 162.836 33.952C162.74 33.984 162.633 34 162.516 34C162.345 34 162.175 34 162.004 34C161.833 33.9893 161.663 33.984 161.492 33.984C161.129 33.984 160.772 33.9947 160.42 34.016C160.068 34.048 159.711 34.064 159.348 34.064C159.241 34.064 159.145 34.0427 159.06 34C158.985 33.9467 158.948 33.8613 158.948 33.744C158.948 33.5947 159.028 33.5093 159.188 33.488C159.348 33.4667 159.481 33.456 159.588 33.456C159.993 33.456 160.244 33.3653 160.34 33.184C160.447 32.992 160.5 32.7147 160.5 32.352C160.5 30.848 160.505 29.344 160.516 27.84C160.537 26.3253 160.548 24.816 160.548 23.312C160.548 22.9707 160.383 22.8 160.052 22.8C159.945 22.8 159.833 22.8107 159.716 22.832C159.609 22.8427 159.497 22.848 159.38 22.848C159.273 22.848 159.161 22.8267 159.044 22.784C158.937 22.7307 158.884 22.64 158.884 22.512C158.884 22.4373 158.911 22.368 158.964 22.304C159.028 22.24 159.097 22.208 159.172 22.208C159.535 22.208 159.892 22.2187 160.244 22.24C160.596 22.2507 160.953 22.256 161.316 22.256C161.551 22.256 161.78 22.256 162.004 22.256C162.239 22.256 162.473 22.2507 162.708 22.24L166.66 31.216C167.289 29.7227 167.908 28.2347 168.516 26.752C169.124 25.2587 169.711 23.76 170.276 22.256C170.873 22.256 171.465 22.2507 172.052 22.24C172.649 22.2187 173.241 22.208 173.828 22.208C173.903 22.208 173.972 22.2507 174.036 22.336C174.1 22.4213 174.132 22.496 174.132 22.56ZM187.636 30.976C187.636 31.0827 187.625 31.1893 187.604 31.296C187.593 31.392 187.577 31.488 187.556 31.584C187.524 31.7973 187.492 32.0107 187.46 32.224C187.428 32.4267 187.401 32.6347 187.38 32.848C187.369 33.008 187.359 33.168 187.348 33.328C187.337 33.488 187.311 33.6427 187.268 33.792C187.236 33.8987 187.183 33.968 187.108 34C187.044 34.032 186.959 34.048 186.852 34.048C185.892 34.048 184.932 34.0373 183.972 34.016C183.012 34.0053 182.052 34 181.092 34C180.548 34 180.004 34.0107 179.46 34.032C178.927 34.064 178.388 34.08 177.844 34.08C177.769 34.08 177.684 34.0533 177.588 34C177.492 33.936 177.444 33.8667 177.444 33.792C177.444 33.6107 177.513 33.4987 177.652 33.456C177.716 33.424 177.812 33.408 177.94 33.408C178.079 33.408 178.217 33.4133 178.356 33.424C178.495 33.424 178.591 33.424 178.644 33.424C178.9 33.424 179.071 33.3493 179.156 33.2C179.252 33.04 179.305 32.8533 179.316 32.64C179.327 32.416 179.332 32.2187 179.332 32.048C179.332 31.3547 179.337 30.672 179.348 30C179.359 29.3173 179.364 28.6347 179.364 27.952V24.752C179.364 24.5493 179.364 24.3467 179.364 24.144C179.364 23.9307 179.353 23.7227 179.332 23.52C179.321 23.3493 179.295 23.2267 179.252 23.152C179.209 23.0667 179.097 23.008 178.916 22.976C178.767 22.944 178.612 22.928 178.452 22.928C178.292 22.928 178.132 22.928 177.972 22.928C177.897 22.928 177.812 22.8907 177.716 22.816C177.631 22.7413 177.588 22.6613 177.588 22.576C177.588 22.5013 177.625 22.4267 177.7 22.352C177.785 22.2667 177.865 22.224 177.94 22.224C178.111 22.224 178.281 22.2293 178.452 22.24C178.623 22.2507 178.793 22.256 178.964 22.256H182.58C182.985 22.256 183.391 22.256 183.796 22.256C184.201 22.2453 184.601 22.2347 184.996 22.224C185.263 22.2133 185.524 22.2027 185.78 22.192C186.036 22.1707 186.297 22.16 186.564 22.16C186.607 22.16 186.649 22.1707 186.692 22.192C186.745 22.2027 186.777 22.2293 186.788 22.272C186.799 22.2827 186.804 22.304 186.804 22.336C186.804 22.3573 186.804 22.3787 186.804 22.4C186.836 22.688 186.879 22.976 186.932 23.264C186.996 23.552 187.06 23.84 187.124 24.128C187.145 24.2027 187.161 24.2773 187.172 24.352C187.193 24.4267 187.204 24.5067 187.204 24.592C187.204 24.688 187.156 24.7627 187.06 24.816C186.964 24.8693 186.873 24.896 186.788 24.896C186.649 24.896 186.564 24.88 186.532 24.848C186.5 24.8053 186.463 24.7307 186.42 24.624C186.196 24.0587 185.919 23.6533 185.588 23.408C185.268 23.152 184.889 22.992 184.452 22.928C184.025 22.8533 183.54 22.816 182.996 22.816C182.74 22.816 182.479 22.8213 182.212 22.832C181.956 22.8427 181.7 22.848 181.444 22.848C181.359 22.848 181.268 22.88 181.172 22.944C181.076 22.9973 181.028 23.0773 181.028 23.184V27.536C181.241 27.536 181.455 27.5413 181.668 27.552C181.881 27.552 182.089 27.552 182.292 27.552C182.761 27.552 183.22 27.536 183.668 27.504C184.127 27.4613 184.585 27.3973 185.044 27.312C185.172 27.2907 185.295 27.264 185.412 27.232C185.529 27.2 185.652 27.184 185.78 27.184C185.812 27.184 185.855 27.2 185.908 27.232C185.961 27.2533 185.988 27.2907 185.988 27.344C185.988 27.3973 185.956 27.4987 185.892 27.648C185.839 27.7973 185.769 27.936 185.684 28.064C185.609 28.192 185.545 28.256 185.492 28.256H185.268C184.927 28.256 184.58 28.24 184.228 28.208C183.887 28.1653 183.545 28.144 183.204 28.144C183.087 28.144 182.911 28.1493 182.676 28.16C182.441 28.1707 182.196 28.1973 181.94 28.24C181.684 28.2827 181.465 28.352 181.284 28.448C181.113 28.5333 181.028 28.6613 181.028 28.832V32.768C181.028 33.088 181.113 33.28 181.284 33.344C181.465 33.3973 181.684 33.424 181.94 33.424H184.02C184.447 33.424 184.82 33.376 185.14 33.28C185.46 33.184 185.775 32.9867 186.084 32.688C186.308 32.464 186.489 32.1973 186.628 31.888C186.767 31.568 186.889 31.264 186.996 30.976C187.007 30.9547 187.017 30.9333 187.028 30.912C187.039 30.88 187.049 30.8587 187.06 30.848C187.081 30.816 187.113 30.7947 187.156 30.784C187.209 30.7733 187.257 30.768 187.3 30.768C187.353 30.768 187.423 30.784 187.508 30.816C187.593 30.848 187.636 30.9013 187.636 30.976ZM204.996 33.712C204.996 33.8933 204.943 33.9947 204.836 34.016C204.74 34.0373 204.617 34.048 204.468 34.048C204.169 34.048 203.871 34.0373 203.572 34.016C203.284 34.0053 202.991 34 202.692 34C202.361 34 202.031 34.0107 201.7 34.032C201.38 34.0533 201.055 34.064 200.724 34.064C200.639 34.064 200.553 34.0427 200.468 34C200.393 33.9573 200.356 33.888 200.356 33.792C200.356 33.5893 200.409 33.488 200.516 33.488C200.633 33.4773 200.767 33.472 200.916 33.472C201.3 33.472 201.535 33.36 201.62 33.136C201.716 32.9013 201.764 32.6187 201.764 32.288C201.764 31.6267 201.759 30.9707 201.748 30.32C201.748 29.6587 201.748 29.0027 201.748 28.352H195.348V32.304C195.348 32.4533 195.364 32.6187 195.396 32.8C195.428 32.9707 195.492 33.12 195.588 33.248C195.684 33.3653 195.828 33.424 196.02 33.424C196.105 33.424 196.191 33.424 196.276 33.424C196.372 33.4133 196.468 33.408 196.564 33.408C196.649 33.408 196.724 33.4347 196.788 33.488C196.852 33.5413 196.884 33.616 196.884 33.712C196.884 33.8827 196.831 33.9787 196.724 34C196.628 34.032 196.505 34.048 196.356 34.048C196.057 34.048 195.759 34.0373 195.46 34.016C195.172 34.0053 194.879 34 194.58 34C194.239 34 193.897 34.0107 193.556 34.032C193.215 34.0533 192.873 34.064 192.532 34.064C192.447 34.064 192.361 34.0427 192.276 34C192.201 33.9573 192.164 33.888 192.164 33.792C192.164 33.6427 192.212 33.5467 192.308 33.504C192.404 33.4613 192.516 33.4453 192.644 33.456C192.783 33.456 192.9 33.456 192.996 33.456C193.22 33.456 193.375 33.392 193.46 33.264C193.556 33.1253 193.609 32.96 193.62 32.768C193.641 32.576 193.652 32.4053 193.652 32.256C193.652 30.88 193.647 29.5093 193.636 28.144C193.636 26.768 193.636 25.392 193.636 24.016C193.636 23.8453 193.615 23.6747 193.572 23.504C193.529 23.3227 193.449 23.168 193.332 23.04C193.225 22.912 193.071 22.848 192.868 22.848C192.783 22.848 192.697 22.8533 192.612 22.864C192.537 22.8747 192.457 22.88 192.372 22.88C192.287 22.88 192.207 22.8587 192.132 22.816C192.057 22.7733 192.02 22.704 192.02 22.608C192.02 22.4587 192.068 22.3627 192.164 22.32C192.26 22.2667 192.377 22.24 192.516 22.24C192.825 22.24 193.135 22.2507 193.444 22.272C193.764 22.2827 194.084 22.288 194.404 22.288C194.692 22.288 194.98 22.2827 195.268 22.272C195.556 22.2613 195.844 22.2453 196.132 22.224C196.175 22.224 196.212 22.224 196.244 22.224C196.276 22.2133 196.313 22.208 196.356 22.208C196.441 22.208 196.527 22.2347 196.612 22.288C196.697 22.3307 196.74 22.4053 196.74 22.512C196.74 22.7147 196.676 22.816 196.548 22.816C196.431 22.8053 196.308 22.8 196.18 22.8C195.785 22.8 195.54 22.9227 195.444 23.168C195.359 23.4133 195.316 23.696 195.316 24.016C195.316 24.6027 195.316 25.1947 195.316 25.792C195.327 26.3893 195.332 26.9867 195.332 27.584H201.748C201.748 26.9867 201.748 26.3893 201.748 25.792C201.759 25.1947 201.764 24.6027 201.764 24.016C201.764 23.8667 201.743 23.7013 201.7 23.52C201.668 23.3387 201.604 23.184 201.508 23.056C201.412 22.9173 201.268 22.848 201.076 22.848C200.98 22.848 200.889 22.8533 200.804 22.864C200.719 22.8747 200.633 22.88 200.548 22.88C200.463 22.88 200.383 22.8587 200.308 22.816C200.233 22.7733 200.196 22.704 200.196 22.608C200.196 22.448 200.244 22.3467 200.34 22.304C200.436 22.2613 200.553 22.24 200.692 22.24C201.001 22.24 201.305 22.2507 201.604 22.272C201.903 22.2827 202.207 22.288 202.516 22.288C202.804 22.288 203.097 22.2827 203.396 22.272C203.695 22.2613 203.988 22.2453 204.276 22.224C204.319 22.224 204.356 22.224 204.388 22.224C204.431 22.2133 204.473 22.208 204.516 22.208C204.601 22.208 204.687 22.2347 204.772 22.288C204.857 22.3307 204.9 22.4053 204.9 22.512C204.9 22.7147 204.836 22.816 204.708 22.816C204.58 22.8053 204.452 22.8 204.324 22.8C203.929 22.8 203.684 22.928 203.588 23.184C203.492 23.4293 203.444 23.7173 203.444 24.048C203.444 25.424 203.444 26.8 203.444 28.176C203.455 29.552 203.46 30.928 203.46 32.304C203.46 32.4533 203.476 32.6187 203.508 32.8C203.54 32.9707 203.604 33.12 203.7 33.248C203.796 33.3653 203.94 33.424 204.132 33.424C204.217 33.424 204.303 33.424 204.388 33.424C204.484 33.4133 204.58 33.408 204.676 33.408C204.761 33.408 204.836 33.44 204.9 33.504C204.964 33.5573 204.996 33.6267 204.996 33.712ZM220.148 28.208C220.148 27.8133 220.105 27.3813 220.02 26.912C219.945 26.4427 219.823 25.9733 219.652 25.504C219.481 25.0347 219.263 24.608 218.996 24.224C218.729 23.8293 218.409 23.5147 218.036 23.28C217.673 23.0347 217.247 22.912 216.756 22.912C216.265 22.912 215.833 23.0293 215.46 23.264C215.087 23.4987 214.767 23.8133 214.5 24.208C214.233 24.6027 214.015 25.0347 213.844 25.504C213.684 25.9627 213.567 26.432 213.492 26.912C213.417 27.3813 213.38 27.8133 213.38 28.208C213.38 28.7093 213.439 29.2587 213.556 29.856C213.673 30.4427 213.865 31.0027 214.132 31.536C214.399 32.0587 214.745 32.4907 215.172 32.832C215.609 33.1627 216.137 33.328 216.756 33.328C217.385 33.328 217.913 33.1627 218.34 32.832C218.777 32.4907 219.124 32.0587 219.38 31.536C219.647 31.0027 219.839 30.4427 219.956 29.856C220.084 29.2693 220.148 28.72 220.148 28.208ZM221.956 28.096C221.956 28.9173 221.855 29.6907 221.652 30.416C221.449 31.1413 221.14 31.7813 220.724 32.336C220.308 32.88 219.775 33.312 219.124 33.632C218.473 33.9413 217.7 34.096 216.804 34.096C215.439 34.096 214.367 33.76 213.588 33.088C212.809 32.4053 212.249 31.424 211.908 30.144C211.833 29.8347 211.769 29.5093 211.716 29.168C211.663 28.816 211.647 28.4853 211.668 28.176H209.876V32.32C209.876 32.48 209.881 32.6507 209.892 32.832C209.903 33.0133 209.956 33.168 210.052 33.296C210.148 33.4133 210.308 33.472 210.532 33.472C210.617 33.472 210.703 33.472 210.788 33.472C210.884 33.4613 210.98 33.456 211.076 33.456C211.151 33.456 211.22 33.4773 211.284 33.52C211.359 33.5627 211.396 33.6267 211.396 33.712C211.396 33.8293 211.353 33.9147 211.268 33.968C211.183 34.0107 211.087 34.032 210.98 34.032C210.767 34.032 210.553 34.0267 210.34 34.016C210.137 34.016 209.929 34.016 209.716 34.016C209.385 34.016 209.049 34.016 208.708 34.016C208.377 34.016 208.041 34.0267 207.7 34.048C207.561 34.0587 207.423 34.064 207.284 34.064C207.156 34.0747 207.023 34.08 206.884 34.08C206.66 34.08 206.548 33.9787 206.548 33.776C206.548 33.6373 206.601 33.552 206.708 33.52C206.825 33.488 206.964 33.472 207.124 33.472C207.295 33.472 207.46 33.4507 207.62 33.408C207.791 33.3653 207.929 33.264 208.036 33.104C208.153 32.9333 208.212 32.6613 208.212 32.288C208.212 30.8907 208.207 29.4987 208.196 28.112C208.196 26.7253 208.196 25.3387 208.196 23.952C208.196 23.664 208.153 23.4187 208.068 23.216C207.993 23.0133 207.785 22.912 207.444 22.912C207.369 22.912 207.295 22.9227 207.22 22.944C207.156 22.9547 207.087 22.96 207.012 22.96C206.937 22.96 206.863 22.9333 206.788 22.88C206.713 22.8267 206.676 22.7573 206.676 22.672C206.676 22.4907 206.719 22.384 206.804 22.352C206.9 22.32 207.023 22.304 207.172 22.304C207.449 22.304 207.721 22.3147 207.988 22.336C208.265 22.3467 208.543 22.352 208.82 22.352C209.193 22.352 209.561 22.3413 209.924 22.32C210.287 22.288 210.649 22.272 211.012 22.272C211.108 22.272 211.188 22.2987 211.252 22.352C211.327 22.4053 211.364 22.4853 211.364 22.592C211.364 22.7733 211.284 22.8693 211.124 22.88C210.975 22.8907 210.841 22.896 210.724 22.896C210.329 22.896 210.084 23.0187 209.988 23.264C209.892 23.4987 209.849 23.7813 209.86 24.112V27.424H211.716C211.844 26.4533 212.105 25.5787 212.5 24.8C212.895 24.0107 213.444 23.3813 214.148 22.912C214.863 22.4427 215.748 22.208 216.804 22.208C217.668 22.208 218.42 22.3627 219.06 22.672C219.711 22.9813 220.249 23.408 220.676 23.952C221.103 24.4853 221.423 25.1093 221.636 25.824C221.849 26.5387 221.956 27.296 221.956 28.096Z" fill="white"/>
</g>
<defs>
<filter id="filter0_d_97_4" x="0" y="0" width="257" height="56" filterUnits="userSpaceOnUse" color-interpolation-filters="sRGB">
<feFlood flood-opacity="0" result="BackgroundImageFix"/>
<feColorMatrix in="SourceAlpha" type="matrix" values="0 0 0 0 0 0 0 0 0 0 0 0 0 0 0 0 0 0 127 0" result="hardAlpha"/>
<feOffset dy="1"/>
<feGaussianBlur stdDeviation="1"/>
<feComposite in2="hardAlpha" operator="out"/>
<feColorMatrix type="matrix" values="0 0 0 0 0 0 0 0 0 0 0 0 0 0 0 0 0 0 0.05 0"/>
<feBlend mode="normal" in2="BackgroundImageFix" result="effect1_dropShadow_97_4"/>
<feBlend mode="normal" in="SourceGraphic" in2="effect1_dropShadow_97_4" result="shape"/>
</filter>
</defs>
</svg>
