<svg width="324" height="80" viewBox="0 0 324 80" fill="none" xmlns="http://www.w3.org/2000/svg">
<g filter="url(#filter0_d_97_4)">
<path d="M2 39C2 18.0132 19.0132 1 40 1H284C304.987 1 322 18.0132 322 39C322 59.9868 304.987 77 284 77H40C19.0132 77 2 59.9868 2 39Z" fill="#9A4F4F" fill-opacity="0.8" shape-rendering="crispEdges"/>
<path d="M84.712 31.04C84.712 31.1147 84.6747 31.2053 84.6 31.312C84.536 31.4187 84.4827 31.4987 84.44 31.552C83.7893 32.5227 83.0533 33.1947 82.232 33.568C81.4107 33.9413 80.4293 34.128 79.288 34.128C78.0827 34.128 77.0267 33.8933 76.12 33.424C75.224 32.944 74.5307 32.2667 74.04 31.392C73.5493 30.5173 73.304 29.472 73.304 28.256C73.304 27.04 73.544 25.968 74.024 25.04C74.504 24.1013 75.192 23.3707 76.088 22.848C76.984 22.3253 78.0507 22.064 79.288 22.064C79.7893 22.064 80.264 22.1387 80.712 22.288C81.1707 22.4373 81.6347 22.576 82.104 22.704C82.3493 22.768 82.5947 22.8107 82.84 22.832C83.0853 22.8533 83.3307 22.864 83.576 22.864C83.6187 23.2373 83.656 23.616 83.688 24C83.7307 24.3733 83.7787 24.7467 83.832 25.12C83.8533 25.2587 83.88 25.3973 83.912 25.536C83.944 25.6747 83.96 25.8187 83.96 25.968C83.96 26.1387 83.8853 26.2613 83.736 26.336C83.5867 26.4 83.4427 26.432 83.304 26.432C83.1973 26.432 83.1013 26.3947 83.016 26.32C82.9307 26.2453 82.8667 26.16 82.824 26.064C82.792 25.9893 82.7653 25.904 82.744 25.808C82.7333 25.712 82.7173 25.6267 82.696 25.552C82.4827 24.6987 82.0987 24 81.544 23.456C81 22.9013 80.2693 22.624 79.352 22.624C79.0213 22.624 78.6747 22.6933 78.312 22.832C77.96 22.96 77.6453 23.1147 77.368 23.296C76.8667 23.6587 76.456 24.1067 76.136 24.64C75.8267 25.1733 75.6027 25.7493 75.464 26.368C75.3253 26.976 75.256 27.5787 75.256 28.176C75.256 28.6027 75.2987 29.04 75.384 29.488C75.48 29.936 75.608 30.3627 75.768 30.768C76.1307 31.6107 76.6427 32.2613 77.304 32.72C77.976 33.168 78.776 33.392 79.704 33.392C80.4933 33.392 81.208 33.2107 81.848 32.848C82.4987 32.4747 83.0587 31.9787 83.528 31.36C83.5813 31.2747 83.6347 31.1893 83.688 31.104C83.752 31.0187 83.816 30.9387 83.88 30.864C83.976 30.7467 84.1093 30.688 84.28 30.688C84.344 30.688 84.4293 30.7307 84.536 30.816C84.6533 30.8907 84.712 30.9653 84.712 31.04ZM102.632 22.56C102.632 22.6667 102.568 22.7467 102.44 22.8C102.323 22.8427 102.221 22.864 102.136 22.864C102.008 22.864 101.88 22.8587 101.752 22.848C101.624 22.8267 101.496 22.816 101.368 22.816C101.251 22.816 101.16 22.8373 101.096 22.88C101.043 22.9227 100.984 22.9973 100.92 23.104C100.92 23.104 100.915 23.2213 100.904 23.456C100.904 23.6907 100.904 23.968 100.904 24.288C100.904 24.608 100.904 24.896 100.904 25.152C100.904 25.408 100.904 25.5627 100.904 25.616V28.512C100.904 29.1413 100.904 29.776 100.904 30.416C100.915 31.056 100.92 31.6907 100.92 32.32C100.92 32.48 100.925 32.6453 100.936 32.816C100.957 32.976 101.011 33.1147 101.096 33.232C101.192 33.3493 101.347 33.408 101.56 33.408C101.667 33.408 101.773 33.4027 101.88 33.392C101.987 33.3813 102.093 33.376 102.2 33.376C102.275 33.376 102.355 33.408 102.44 33.472C102.525 33.5253 102.568 33.5947 102.568 33.68C102.568 33.8613 102.509 33.968 102.392 34C102.275 34.0213 102.141 34.032 101.992 34.032C101.672 34.032 101.352 34.0213 101.032 34C100.723 33.9893 100.408 33.984 100.088 33.984C99.7253 33.984 99.3573 33.9947 98.984 34.016C98.6107 34.0373 98.2373 34.048 97.864 34.048C97.768 34.048 97.6827 34.0213 97.608 33.968C97.544 33.9147 97.512 33.8347 97.512 33.728C97.512 33.6107 97.5653 33.536 97.672 33.504C97.7893 33.4613 97.912 33.44 98.04 33.44C98.1787 33.44 98.2853 33.4347 98.36 33.424C98.6907 33.36 98.904 33.2213 99 33.008C99.096 32.784 99.144 32.5227 99.144 32.224V23.472C98.5467 24.9333 97.944 26.4 97.336 27.872C96.728 29.3333 96.136 30.8 95.56 32.272C95.4853 32.4747 95.4053 32.6827 95.32 32.896C95.2453 33.1093 95.16 33.3173 95.064 33.52C94.8933 33.6053 94.7173 33.648 94.536 33.648C94.4187 33.648 94.3333 33.6213 94.28 33.568C94.2053 33.4933 94.136 33.3653 94.072 33.184C94.0187 32.992 93.9653 32.848 93.912 32.752C93.24 31.216 92.5627 29.6853 91.88 28.16C91.1973 26.624 90.5253 25.088 89.864 23.552C89.864 25.024 89.8587 26.496 89.848 27.968C89.848 29.44 89.848 30.912 89.848 32.384C89.848 32.736 89.896 32.9813 89.992 33.12C90.088 33.2587 90.232 33.3387 90.424 33.36C90.616 33.3707 90.8507 33.376 91.128 33.376C91.2133 33.376 91.2933 33.408 91.368 33.472C91.4533 33.5253 91.496 33.6 91.496 33.696C91.496 33.8347 91.4427 33.92 91.336 33.952C91.24 33.984 91.1333 34 91.016 34C90.8453 34 90.6747 34 90.504 34C90.3333 33.9893 90.1627 33.984 89.992 33.984C89.6293 33.984 89.272 33.9947 88.92 34.016C88.568 34.048 88.2107 34.064 87.848 34.064C87.7413 34.064 87.6453 34.0427 87.56 34C87.4853 33.9467 87.448 33.8613 87.448 33.744C87.448 33.5947 87.528 33.5093 87.688 33.488C87.848 33.4667 87.9813 33.456 88.088 33.456C88.4933 33.456 88.744 33.3653 88.84 33.184C88.9467 32.992 89 32.7147 89 32.352C89 30.848 89.0053 29.344 89.016 27.84C89.0373 26.3253 89.048 24.816 89.048 23.312C89.048 22.9707 88.8827 22.8 88.552 22.8C88.4453 22.8 88.3333 22.8107 88.216 22.832C88.1093 22.8427 87.9973 22.848 87.88 22.848C87.7733 22.848 87.6613 22.8267 87.544 22.784C87.4373 22.7307 87.384 22.64 87.384 22.512C87.384 22.4373 87.4107 22.368 87.464 22.304C87.528 22.24 87.5973 22.208 87.672 22.208C88.0347 22.208 88.392 22.2187 88.744 22.24C89.096 22.2507 89.4533 22.256 89.816 22.256C90.0507 22.256 90.28 22.256 90.504 22.256C90.7387 22.256 90.9733 22.2507 91.208 22.24L95.16 31.216C95.7893 29.7227 96.408 28.2347 97.016 26.752C97.624 25.2587 98.2107 23.76 98.776 22.256C99.3733 22.256 99.9653 22.2507 100.552 22.24C101.149 22.2187 101.741 22.208 102.328 22.208C102.403 22.208 102.472 22.2507 102.536 22.336C102.6 22.4213 102.632 22.496 102.632 22.56ZM114.904 28.096C114.904 27.4773 114.835 26.8533 114.696 26.224C114.557 25.584 114.333 25.0027 114.024 24.48C113.725 23.9467 113.325 23.52 112.824 23.2C112.323 22.88 111.704 22.72 110.968 22.72C110.264 22.72 109.656 22.8907 109.144 23.232C108.643 23.5627 108.232 24.0053 107.912 24.56C107.592 25.104 107.352 25.696 107.192 26.336C107.043 26.976 106.968 27.5947 106.968 28.192C106.968 28.8213 107.037 29.4507 107.176 30.08C107.325 30.6987 107.555 31.264 107.864 31.776C108.184 32.288 108.595 32.6987 109.096 33.008C109.608 33.3173 110.232 33.472 110.968 33.472C111.704 33.472 112.323 33.312 112.824 32.992C113.325 32.672 113.725 32.2507 114.024 31.728C114.333 31.1947 114.557 30.6133 114.696 29.984C114.835 29.344 114.904 28.7147 114.904 28.096ZM116.904 28.064C116.904 29.312 116.669 30.3893 116.2 31.296C115.741 32.192 115.069 32.8853 114.184 33.376C113.299 33.856 112.227 34.096 110.968 34.096C109.752 34.096 108.701 33.856 107.816 33.376C106.941 32.896 106.269 32.2187 105.8 31.344C105.331 30.4587 105.096 29.408 105.096 28.192C105.096 27.328 105.235 26.528 105.512 25.792C105.789 25.056 106.189 24.416 106.712 23.872C107.235 23.3173 107.853 22.8907 108.568 22.592C109.293 22.2827 110.093 22.128 110.968 22.128C112.205 22.128 113.267 22.368 114.152 22.848C115.037 23.3173 115.715 23.9947 116.184 24.88C116.664 25.7653 116.904 26.8267 116.904 28.064ZM132.408 25.168C132.408 25.2533 132.365 25.312 132.28 25.344C132.195 25.3653 132.12 25.376 132.056 25.376C131.981 25.376 131.912 25.3653 131.848 25.344C131.784 25.312 131.731 25.232 131.688 25.104C131.645 24.9653 131.613 24.8213 131.592 24.672C131.571 24.5227 131.549 24.4107 131.528 24.336C131.421 23.8773 131.256 23.5467 131.032 23.344C130.808 23.1413 130.531 23.0133 130.2 22.96C129.88 22.9067 129.512 22.88 129.096 22.88C128.957 22.88 128.797 22.8853 128.616 22.896C128.435 22.9067 128.269 22.9493 128.12 23.024C127.981 23.0987 127.896 23.232 127.864 23.424C127.853 23.4667 127.848 23.52 127.848 23.584C127.848 23.6373 127.848 23.6907 127.848 23.744C127.848 25.184 127.853 26.624 127.864 28.064C127.875 29.4933 127.88 30.928 127.88 32.368C127.88 32.6347 127.933 32.88 128.04 33.104C128.157 33.328 128.371 33.44 128.68 33.44C128.797 33.44 128.909 33.44 129.016 33.44C129.133 33.4293 129.245 33.424 129.352 33.424C129.437 33.424 129.517 33.4507 129.592 33.504C129.677 33.5467 129.72 33.616 129.72 33.712C129.72 33.8507 129.667 33.9413 129.56 33.984C129.464 34.016 129.357 34.032 129.24 34.032C128.845 34.032 128.456 34.0267 128.072 34.016C127.688 34.016 127.299 34.016 126.904 34.016C126.509 34.016 126.115 34.0213 125.72 34.032C125.325 34.0427 124.931 34.048 124.536 34.048C124.451 34.048 124.36 34.032 124.264 34C124.179 33.9573 124.136 33.8827 124.136 33.776C124.136 33.6267 124.195 33.5467 124.312 33.536C124.44 33.5147 124.557 33.504 124.664 33.504C125.101 33.504 125.432 33.4347 125.656 33.296C125.88 33.1467 125.992 32.8267 125.992 32.336C125.992 30.992 125.992 29.6533 125.992 28.32C125.992 26.976 125.992 25.6373 125.992 24.304C125.992 23.952 125.987 23.68 125.976 23.488C125.976 23.2853 125.939 23.1413 125.864 23.056C125.789 22.9707 125.656 22.9173 125.464 22.896C125.272 22.8747 124.989 22.864 124.616 22.864C124.232 22.864 123.901 22.8907 123.624 22.944C123.347 22.9867 123.112 23.104 122.92 23.296C122.739 23.4773 122.595 23.776 122.488 24.192C122.477 24.256 122.456 24.368 122.424 24.528C122.392 24.688 122.36 24.8427 122.328 24.992C122.296 25.1413 122.264 25.232 122.232 25.264C122.147 25.3493 122.035 25.392 121.896 25.392C121.843 25.392 121.779 25.376 121.704 25.344C121.629 25.3013 121.592 25.2427 121.592 25.168C121.592 24.8693 121.597 24.576 121.608 24.288C121.629 23.9893 121.645 23.6907 121.656 23.392C121.667 23.2107 121.672 23.0293 121.672 22.848C121.683 22.6667 121.709 22.4907 121.752 22.32C121.816 22.256 121.891 22.224 121.976 22.224C122.317 22.224 122.659 22.24 123 22.272C123.341 22.2933 123.683 22.304 124.024 22.304H126.568C127.016 22.304 127.464 22.304 127.912 22.304C128.36 22.304 128.808 22.2987 129.256 22.288C129.747 22.2773 130.232 22.2667 130.712 22.256C131.192 22.2347 131.672 22.2187 132.152 22.208C132.173 22.2293 132.195 22.256 132.216 22.288C132.237 22.32 132.253 22.352 132.264 22.384C132.285 22.448 132.307 22.608 132.328 22.864C132.349 23.1093 132.365 23.392 132.376 23.712C132.387 24.032 132.392 24.3307 132.392 24.608C132.403 24.8853 132.408 25.072 132.408 25.168ZM146.248 25.296C146.248 24.6667 146.093 24.176 145.784 23.824C145.475 23.4613 145.075 23.2107 144.584 23.072C144.093 22.9227 143.581 22.848 143.048 22.848C142.963 22.848 142.824 22.8587 142.632 22.88C142.451 22.8907 142.259 22.9173 142.056 22.96C141.864 23.0027 141.699 23.0667 141.56 23.152C141.432 23.2267 141.368 23.3227 141.368 23.44V27.68C141.635 27.84 141.933 27.9467 142.264 28C142.605 28.0427 142.925 28.064 143.224 28.064C144.109 28.064 144.835 27.84 145.4 27.392C145.965 26.9333 146.248 26.2347 146.248 25.296ZM148.168 25.2C148.168 25.936 148.024 26.5333 147.736 26.992C147.448 27.4507 147.064 27.8027 146.584 28.048C146.104 28.2827 145.571 28.448 144.984 28.544C144.397 28.6293 143.8 28.672 143.192 28.672C142.893 28.672 142.589 28.656 142.28 28.624C141.981 28.592 141.683 28.5547 141.384 28.512C141.384 29.1413 141.384 29.7707 141.384 30.4C141.395 31.0293 141.4 31.6587 141.4 32.288C141.4 32.576 141.448 32.8427 141.544 33.088C141.651 33.3333 141.875 33.456 142.216 33.456C142.301 33.456 142.387 33.456 142.472 33.456C142.568 33.4453 142.659 33.44 142.744 33.44C142.819 33.44 142.899 33.4667 142.984 33.52C143.069 33.5733 143.112 33.6427 143.112 33.728C143.112 33.856 143.059 33.9467 142.952 34C142.845 34.0427 142.739 34.064 142.632 34.064C142.28 34.064 141.928 34.0533 141.576 34.032C141.224 34.0213 140.877 34.016 140.536 34.016C140.163 34.016 139.795 34.0267 139.432 34.048C139.069 34.0693 138.701 34.08 138.328 34.08C138.093 34.08 137.976 33.9733 137.976 33.76C137.976 33.7067 138.008 33.648 138.072 33.584C138.147 33.5093 138.211 33.472 138.264 33.472H138.472C138.568 33.472 138.664 33.472 138.76 33.472C138.867 33.4613 138.968 33.4453 139.064 33.424C139.341 33.36 139.512 33.2373 139.576 33.056C139.64 32.864 139.672 32.64 139.672 32.384C139.672 30.9973 139.672 29.616 139.672 28.24C139.683 26.8533 139.688 25.4667 139.688 24.08C139.688 23.8773 139.683 23.696 139.672 23.536C139.672 23.3653 139.624 23.2267 139.528 23.12C139.443 23.0133 139.267 22.96 139 22.96C138.893 22.96 138.787 22.9653 138.68 22.976C138.573 22.9867 138.467 22.992 138.36 22.992C138.275 22.992 138.168 22.9653 138.04 22.912C137.912 22.8587 137.848 22.7787 137.848 22.672C137.848 22.5973 137.875 22.5227 137.928 22.448C137.992 22.3627 138.067 22.32 138.152 22.32C138.664 22.32 139.176 22.32 139.688 22.32C140.211 22.32 140.728 22.3147 141.24 22.304C141.741 22.2827 142.243 22.2613 142.744 22.24C143.245 22.2187 143.747 22.208 144.248 22.208C144.749 22.208 145.235 22.256 145.704 22.352C146.173 22.4373 146.589 22.592 146.952 22.816C147.325 23.04 147.619 23.3493 147.832 23.744C148.056 24.128 148.168 24.6133 148.168 25.2ZM164.136 30.976C164.136 31.0827 164.125 31.1893 164.104 31.296C164.093 31.392 164.077 31.488 164.056 31.584C164.024 31.7973 163.992 32.0107 163.96 32.224C163.928 32.4267 163.901 32.6347 163.88 32.848C163.869 33.008 163.859 33.168 163.848 33.328C163.837 33.488 163.811 33.6427 163.768 33.792C163.736 33.8987 163.683 33.968 163.608 34C163.544 34.032 163.459 34.048 163.352 34.048C162.392 34.048 161.432 34.0373 160.472 34.016C159.512 34.0053 158.552 34 157.592 34C157.048 34 156.504 34.0107 155.96 34.032C155.427 34.064 154.888 34.08 154.344 34.08C154.269 34.08 154.184 34.0533 154.088 34C153.992 33.936 153.944 33.8667 153.944 33.792C153.944 33.6107 154.013 33.4987 154.152 33.456C154.216 33.424 154.312 33.408 154.44 33.408C154.579 33.408 154.717 33.4133 154.856 33.424C154.995 33.424 155.091 33.424 155.144 33.424C155.4 33.424 155.571 33.3493 155.656 33.2C155.752 33.04 155.805 32.8533 155.816 32.64C155.827 32.416 155.832 32.2187 155.832 32.048C155.832 31.3547 155.837 30.672 155.848 30C155.859 29.3173 155.864 28.6347 155.864 27.952V24.752C155.864 24.5493 155.864 24.3467 155.864 24.144C155.864 23.9307 155.853 23.7227 155.832 23.52C155.821 23.3493 155.795 23.2267 155.752 23.152C155.709 23.0667 155.597 23.008 155.416 22.976C155.267 22.944 155.112 22.928 154.952 22.928C154.792 22.928 154.632 22.928 154.472 22.928C154.397 22.928 154.312 22.8907 154.216 22.816C154.131 22.7413 154.088 22.6613 154.088 22.576C154.088 22.5013 154.125 22.4267 154.2 22.352C154.285 22.2667 154.365 22.224 154.44 22.224C154.611 22.224 154.781 22.2293 154.952 22.24C155.123 22.2507 155.293 22.256 155.464 22.256H159.08C159.485 22.256 159.891 22.256 160.296 22.256C160.701 22.2453 161.101 22.2347 161.496 22.224C161.763 22.2133 162.024 22.2027 162.28 22.192C162.536 22.1707 162.797 22.16 163.064 22.16C163.107 22.16 163.149 22.1707 163.192 22.192C163.245 22.2027 163.277 22.2293 163.288 22.272C163.299 22.2827 163.304 22.304 163.304 22.336C163.304 22.3573 163.304 22.3787 163.304 22.4C163.336 22.688 163.379 22.976 163.432 23.264C163.496 23.552 163.56 23.84 163.624 24.128C163.645 24.2027 163.661 24.2773 163.672 24.352C163.693 24.4267 163.704 24.5067 163.704 24.592C163.704 24.688 163.656 24.7627 163.56 24.816C163.464 24.8693 163.373 24.896 163.288 24.896C163.149 24.896 163.064 24.88 163.032 24.848C163 24.8053 162.963 24.7307 162.92 24.624C162.696 24.0587 162.419 23.6533 162.088 23.408C161.768 23.152 161.389 22.992 160.952 22.928C160.525 22.8533 160.04 22.816 159.496 22.816C159.24 22.816 158.979 22.8213 158.712 22.832C158.456 22.8427 158.2 22.848 157.944 22.848C157.859 22.848 157.768 22.88 157.672 22.944C157.576 22.9973 157.528 23.0773 157.528 23.184V27.536C157.741 27.536 157.955 27.5413 158.168 27.552C158.381 27.552 158.589 27.552 158.792 27.552C159.261 27.552 159.72 27.536 160.168 27.504C160.627 27.4613 161.085 27.3973 161.544 27.312C161.672 27.2907 161.795 27.264 161.912 27.232C162.029 27.2 162.152 27.184 162.28 27.184C162.312 27.184 162.355 27.2 162.408 27.232C162.461 27.2533 162.488 27.2907 162.488 27.344C162.488 27.3973 162.456 27.4987 162.392 27.648C162.339 27.7973 162.269 27.936 162.184 28.064C162.109 28.192 162.045 28.256 161.992 28.256H161.768C161.427 28.256 161.08 28.24 160.728 28.208C160.387 28.1653 160.045 28.144 159.704 28.144C159.587 28.144 159.411 28.1493 159.176 28.16C158.941 28.1707 158.696 28.1973 158.44 28.24C158.184 28.2827 157.965 28.352 157.784 28.448C157.613 28.5333 157.528 28.6613 157.528 28.832V32.768C157.528 33.088 157.613 33.28 157.784 33.344C157.965 33.3973 158.184 33.424 158.44 33.424H160.52C160.947 33.424 161.32 33.376 161.64 33.28C161.96 33.184 162.275 32.9867 162.584 32.688C162.808 32.464 162.989 32.1973 163.128 31.888C163.267 31.568 163.389 31.264 163.496 30.976C163.507 30.9547 163.517 30.9333 163.528 30.912C163.539 30.88 163.549 30.8587 163.56 30.848C163.581 30.816 163.613 30.7947 163.656 30.784C163.709 30.7733 163.757 30.768 163.8 30.768C163.853 30.768 163.923 30.784 164.008 30.816C164.093 30.848 164.136 30.9013 164.136 30.976ZM180.408 25.168C180.408 25.2533 180.365 25.312 180.28 25.344C180.195 25.3653 180.12 25.376 180.056 25.376C179.981 25.376 179.912 25.3653 179.848 25.344C179.784 25.312 179.731 25.232 179.688 25.104C179.645 24.9653 179.613 24.8213 179.592 24.672C179.571 24.5227 179.549 24.4107 179.528 24.336C179.421 23.8773 179.256 23.5467 179.032 23.344C178.808 23.1413 178.531 23.0133 178.2 22.96C177.88 22.9067 177.512 22.88 177.096 22.88C176.957 22.88 176.797 22.8853 176.616 22.896C176.435 22.9067 176.269 22.9493 176.12 23.024C175.981 23.0987 175.896 23.232 175.864 23.424C175.853 23.4667 175.848 23.52 175.848 23.584C175.848 23.6373 175.848 23.6907 175.848 23.744C175.848 25.184 175.853 26.624 175.864 28.064C175.875 29.4933 175.88 30.928 175.88 32.368C175.88 32.6347 175.933 32.88 176.04 33.104C176.157 33.328 176.371 33.44 176.68 33.44C176.797 33.44 176.909 33.44 177.016 33.44C177.133 33.4293 177.245 33.424 177.352 33.424C177.437 33.424 177.517 33.4507 177.592 33.504C177.677 33.5467 177.72 33.616 177.72 33.712C177.72 33.8507 177.667 33.9413 177.56 33.984C177.464 34.016 177.357 34.032 177.24 34.032C176.845 34.032 176.456 34.0267 176.072 34.016C175.688 34.016 175.299 34.016 174.904 34.016C174.509 34.016 174.115 34.0213 173.72 34.032C173.325 34.0427 172.931 34.048 172.536 34.048C172.451 34.048 172.36 34.032 172.264 34C172.179 33.9573 172.136 33.8827 172.136 33.776C172.136 33.6267 172.195 33.5467 172.312 33.536C172.44 33.5147 172.557 33.504 172.664 33.504C173.101 33.504 173.432 33.4347 173.656 33.296C173.88 33.1467 173.992 32.8267 173.992 32.336C173.992 30.992 173.992 29.6533 173.992 28.32C173.992 26.976 173.992 25.6373 173.992 24.304C173.992 23.952 173.987 23.68 173.976 23.488C173.976 23.2853 173.939 23.1413 173.864 23.056C173.789 22.9707 173.656 22.9173 173.464 22.896C173.272 22.8747 172.989 22.864 172.616 22.864C172.232 22.864 171.901 22.8907 171.624 22.944C171.347 22.9867 171.112 23.104 170.92 23.296C170.739 23.4773 170.595 23.776 170.488 24.192C170.477 24.256 170.456 24.368 170.424 24.528C170.392 24.688 170.36 24.8427 170.328 24.992C170.296 25.1413 170.264 25.232 170.232 25.264C170.147 25.3493 170.035 25.392 169.896 25.392C169.843 25.392 169.779 25.376 169.704 25.344C169.629 25.3013 169.592 25.2427 169.592 25.168C169.592 24.8693 169.597 24.576 169.608 24.288C169.629 23.9893 169.645 23.6907 169.656 23.392C169.667 23.2107 169.672 23.0293 169.672 22.848C169.683 22.6667 169.709 22.4907 169.752 22.32C169.816 22.256 169.891 22.224 169.976 22.224C170.317 22.224 170.659 22.24 171 22.272C171.341 22.2933 171.683 22.304 172.024 22.304H174.568C175.016 22.304 175.464 22.304 175.912 22.304C176.36 22.304 176.808 22.2987 177.256 22.288C177.747 22.2773 178.232 22.2667 178.712 22.256C179.192 22.2347 179.672 22.2187 180.152 22.208C180.173 22.2293 180.195 22.256 180.216 22.288C180.237 22.32 180.253 22.352 180.264 22.384C180.285 22.448 180.307 22.608 180.328 22.864C180.349 23.1093 180.365 23.392 180.376 23.712C180.387 24.032 180.392 24.3307 180.392 24.608C180.403 24.8853 180.408 25.072 180.408 25.168ZM193.96 30.72C193.96 29.888 193.757 29.248 193.352 28.8C192.957 28.3413 192.333 28.112 191.48 28.112C191.331 28.112 191.187 28.112 191.048 28.112C190.909 28.1013 190.765 28.096 190.616 28.096C190.381 28.096 190.152 28.1067 189.928 28.128C189.715 28.1387 189.496 28.1547 189.272 28.176V32.96C189.272 33.1413 189.331 33.2747 189.448 33.36C189.565 33.4347 189.704 33.4827 189.864 33.504C190.035 33.5253 190.184 33.536 190.312 33.536C190.931 33.536 191.517 33.4507 192.072 33.28C192.627 33.1093 193.08 32.8213 193.432 32.416C193.784 32 193.96 31.4347 193.96 30.72ZM195.896 30.48C195.896 31.2693 195.699 31.9307 195.304 32.464C194.909 32.9867 194.349 33.3867 193.624 33.664C193.165 33.8347 192.659 33.936 192.104 33.968C191.56 34 191.043 34.016 190.552 34.016C190.157 34.016 189.763 34.0107 189.368 34C188.984 33.9893 188.595 33.984 188.2 33.984C187.869 33.984 187.544 33.9893 187.224 34C186.904 34.0213 186.584 34.032 186.264 34.032C186.179 34.032 186.093 34.0107 186.008 33.968C185.933 33.9253 185.896 33.856 185.896 33.76C185.896 33.5787 185.955 33.488 186.072 33.488C186.2 33.488 186.317 33.488 186.424 33.488C186.755 33.488 187.011 33.4453 187.192 33.36C187.373 33.264 187.485 33.0347 187.528 32.672C187.549 32.5227 187.56 32.368 187.56 32.208C187.56 32.048 187.56 31.8933 187.56 31.744C187.56 30.3787 187.555 29.0187 187.544 27.664C187.544 26.3093 187.544 24.9547 187.544 23.6C187.544 23.44 187.512 23.2907 187.448 23.152C187.395 23.0133 187.283 22.9227 187.112 22.88C186.984 22.8373 186.845 22.8213 186.696 22.832C186.547 22.832 186.408 22.832 186.28 22.832C186.195 22.832 186.115 22.8107 186.04 22.768C185.976 22.7147 185.944 22.6453 185.944 22.56C185.944 22.4213 185.987 22.3253 186.072 22.272C186.157 22.2187 186.264 22.192 186.392 22.192C186.584 22.192 186.771 22.1973 186.952 22.208C187.144 22.2187 187.341 22.224 187.544 22.224C187.896 22.224 188.243 22.224 188.584 22.224C188.936 22.2133 189.293 22.208 189.656 22.208C189.784 22.208 189.907 22.2027 190.024 22.192C190.152 22.1813 190.285 22.176 190.424 22.176C190.477 22.176 190.536 22.2027 190.6 22.256C190.675 22.3093 190.712 22.368 190.712 22.432C190.712 22.5707 190.669 22.6613 190.584 22.704C190.509 22.736 190.419 22.752 190.312 22.752C190.205 22.7413 190.109 22.736 190.024 22.736C189.736 22.736 189.533 22.8 189.416 22.928C189.309 23.056 189.261 23.2587 189.272 23.536V27.552C189.581 27.5413 189.885 27.536 190.184 27.536C190.493 27.5253 190.803 27.52 191.112 27.52C191.475 27.52 191.843 27.5253 192.216 27.536C192.589 27.5467 192.957 27.5947 193.32 27.68C193.789 27.7867 194.216 27.9627 194.6 28.208C194.995 28.4533 195.309 28.768 195.544 29.152C195.779 29.5253 195.896 29.968 195.896 30.48ZM86.632 46.56C86.632 46.6667 86.568 46.7467 86.44 46.8C86.3227 46.8427 86.2213 46.864 86.136 46.864C86.008 46.864 85.88 46.8587 85.752 46.848C85.624 46.8267 85.496 46.816 85.368 46.816C85.2507 46.816 85.16 46.8373 85.096 46.88C85.0427 46.9227 84.984 46.9973 84.92 47.104C84.92 47.104 84.9147 47.2213 84.904 47.456C84.904 47.6907 84.904 47.968 84.904 48.288C84.904 48.608 84.904 48.896 84.904 49.152C84.904 49.408 84.904 49.5627 84.904 49.616V52.512C84.904 53.1413 84.904 53.776 84.904 54.416C84.9147 55.056 84.92 55.6907 84.92 56.32C84.92 56.48 84.9253 56.6453 84.936 56.816C84.9573 56.976 85.0107 57.1147 85.096 57.232C85.192 57.3493 85.3467 57.408 85.56 57.408C85.6667 57.408 85.7733 57.4027 85.88 57.392C85.9867 57.3813 86.0933 57.376 86.2 57.376C86.2747 57.376 86.3547 57.408 86.44 57.472C86.5253 57.5253 86.568 57.5947 86.568 57.68C86.568 57.8613 86.5093 57.968 86.392 58C86.2747 58.0213 86.1413 58.032 85.992 58.032C85.672 58.032 85.352 58.0213 85.032 58C84.7227 57.9893 84.408 57.984 84.088 57.984C83.7253 57.984 83.3573 57.9947 82.984 58.016C82.6107 58.0373 82.2373 58.048 81.864 58.048C81.768 58.048 81.6827 58.0213 81.608 57.968C81.544 57.9147 81.512 57.8347 81.512 57.728C81.512 57.6107 81.5653 57.536 81.672 57.504C81.7893 57.4613 81.912 57.44 82.04 57.44C82.1787 57.44 82.2853 57.4347 82.36 57.424C82.6907 57.36 82.904 57.2213 83 57.008C83.096 56.784 83.144 56.5227 83.144 56.224V47.472C82.5467 48.9333 81.944 50.4 81.336 51.872C80.728 53.3333 80.136 54.8 79.56 56.272C79.4853 56.4747 79.4053 56.6827 79.32 56.896C79.2453 57.1093 79.16 57.3173 79.064 57.52C78.8933 57.6053 78.7173 57.648 78.536 57.648C78.4187 57.648 78.3333 57.6213 78.28 57.568C78.2053 57.4933 78.136 57.3653 78.072 57.184C78.0187 56.992 77.9653 56.848 77.912 56.752C77.24 55.216 76.5627 53.6853 75.88 52.16C75.1973 50.624 74.5253 49.088 73.864 47.552C73.864 49.024 73.8587 50.496 73.848 51.968C73.848 53.44 73.848 54.912 73.848 56.384C73.848 56.736 73.896 56.9813 73.992 57.12C74.088 57.2587 74.232 57.3387 74.424 57.36C74.616 57.3707 74.8507 57.376 75.128 57.376C75.2133 57.376 75.2933 57.408 75.368 57.472C75.4533 57.5253 75.496 57.6 75.496 57.696C75.496 57.8347 75.4427 57.92 75.336 57.952C75.24 57.984 75.1333 58 75.016 58C74.8453 58 74.6747 58 74.504 58C74.3333 57.9893 74.1627 57.984 73.992 57.984C73.6293 57.984 73.272 57.9947 72.92 58.016C72.568 58.048 72.2107 58.064 71.848 58.064C71.7413 58.064 71.6453 58.0427 71.56 58C71.4853 57.9467 71.448 57.8613 71.448 57.744C71.448 57.5947 71.528 57.5093 71.688 57.488C71.848 57.4667 71.9813 57.456 72.088 57.456C72.4933 57.456 72.744 57.3653 72.84 57.184C72.9467 56.992 73 56.7147 73 56.352C73 54.848 73.0053 53.344 73.016 51.84C73.0373 50.3253 73.048 48.816 73.048 47.312C73.048 46.9707 72.8827 46.8 72.552 46.8C72.4453 46.8 72.3333 46.8107 72.216 46.832C72.1093 46.8427 71.9973 46.848 71.88 46.848C71.7733 46.848 71.6613 46.8267 71.544 46.784C71.4373 46.7307 71.384 46.64 71.384 46.512C71.384 46.4373 71.4107 46.368 71.464 46.304C71.528 46.24 71.5973 46.208 71.672 46.208C72.0347 46.208 72.392 46.2187 72.744 46.24C73.096 46.2507 73.4533 46.256 73.816 46.256C74.0507 46.256 74.28 46.256 74.504 46.256C74.7387 46.256 74.9733 46.2507 75.208 46.24L79.16 55.216C79.7893 53.7227 80.408 52.2347 81.016 50.752C81.624 49.2587 82.2107 47.76 82.776 46.256C83.3733 46.256 83.9653 46.2507 84.552 46.24C85.1493 46.2187 85.7413 46.208 86.328 46.208C86.4027 46.208 86.472 46.2507 86.536 46.336C86.6 46.4213 86.632 46.496 86.632 46.56ZM100.136 54.976C100.136 55.0827 100.125 55.1893 100.104 55.296C100.093 55.392 100.077 55.488 100.056 55.584C100.024 55.7973 99.992 56.0107 99.96 56.224C99.928 56.4267 99.9013 56.6347 99.88 56.848C99.8693 57.008 99.8587 57.168 99.848 57.328C99.8373 57.488 99.8107 57.6427 99.768 57.792C99.736 57.8987 99.6827 57.968 99.608 58C99.544 58.032 99.4587 58.048 99.352 58.048C98.392 58.048 97.432 58.0373 96.472 58.016C95.512 58.0053 94.552 58 93.592 58C93.048 58 92.504 58.0107 91.96 58.032C91.4267 58.064 90.888 58.08 90.344 58.08C90.2693 58.08 90.184 58.0533 90.088 58C89.992 57.936 89.944 57.8667 89.944 57.792C89.944 57.6107 90.0133 57.4987 90.152 57.456C90.216 57.424 90.312 57.408 90.44 57.408C90.5787 57.408 90.7173 57.4133 90.856 57.424C90.9947 57.424 91.0907 57.424 91.144 57.424C91.4 57.424 91.5707 57.3493 91.656 57.2C91.752 57.04 91.8053 56.8533 91.816 56.64C91.8267 56.416 91.832 56.2187 91.832 56.048C91.832 55.3547 91.8373 54.672 91.848 54C91.8587 53.3173 91.864 52.6347 91.864 51.952V48.752C91.864 48.5493 91.864 48.3467 91.864 48.144C91.864 47.9307 91.8533 47.7227 91.832 47.52C91.8213 47.3493 91.7947 47.2267 91.752 47.152C91.7093 47.0667 91.5973 47.008 91.416 46.976C91.2667 46.944 91.112 46.928 90.952 46.928C90.792 46.928 90.632 46.928 90.472 46.928C90.3973 46.928 90.312 46.8907 90.216 46.816C90.1307 46.7413 90.088 46.6613 90.088 46.576C90.088 46.5013 90.1253 46.4267 90.2 46.352C90.2853 46.2667 90.3653 46.224 90.44 46.224C90.6107 46.224 90.7813 46.2293 90.952 46.24C91.1227 46.2507 91.2933 46.256 91.464 46.256H95.08C95.4853 46.256 95.8907 46.256 96.296 46.256C96.7013 46.2453 97.1013 46.2347 97.496 46.224C97.7627 46.2133 98.024 46.2027 98.28 46.192C98.536 46.1707 98.7973 46.16 99.064 46.16C99.1067 46.16 99.1493 46.1707 99.192 46.192C99.2453 46.2027 99.2773 46.2293 99.288 46.272C99.2987 46.2827 99.304 46.304 99.304 46.336C99.304 46.3573 99.304 46.3787 99.304 46.4C99.336 46.688 99.3787 46.976 99.432 47.264C99.496 47.552 99.56 47.84 99.624 48.128C99.6453 48.2027 99.6613 48.2773 99.672 48.352C99.6933 48.4267 99.704 48.5067 99.704 48.592C99.704 48.688 99.656 48.7627 99.56 48.816C99.464 48.8693 99.3733 48.896 99.288 48.896C99.1493 48.896 99.064 48.88 99.032 48.848C99 48.8053 98.9627 48.7307 98.92 48.624C98.696 48.0587 98.4187 47.6533 98.088 47.408C97.768 47.152 97.3893 46.992 96.952 46.928C96.5253 46.8533 96.04 46.816 95.496 46.816C95.24 46.816 94.9787 46.8213 94.712 46.832C94.456 46.8427 94.2 46.848 93.944 46.848C93.8587 46.848 93.768 46.88 93.672 46.944C93.576 46.9973 93.528 47.0773 93.528 47.184V51.536C93.7413 51.536 93.9547 51.5413 94.168 51.552C94.3813 51.552 94.5893 51.552 94.792 51.552C95.2613 51.552 95.72 51.536 96.168 51.504C96.6267 51.4613 97.0853 51.3973 97.544 51.312C97.672 51.2907 97.7947 51.264 97.912 51.232C98.0293 51.2 98.152 51.184 98.28 51.184C98.312 51.184 98.3547 51.2 98.408 51.232C98.4613 51.2533 98.488 51.2907 98.488 51.344C98.488 51.3973 98.456 51.4987 98.392 51.648C98.3387 51.7973 98.2693 51.936 98.184 52.064C98.1093 52.192 98.0453 52.256 97.992 52.256H97.768C97.4267 52.256 97.08 52.24 96.728 52.208C96.3867 52.1653 96.0453 52.144 95.704 52.144C95.5867 52.144 95.4107 52.1493 95.176 52.16C94.9413 52.1707 94.696 52.1973 94.44 52.24C94.184 52.2827 93.9653 52.352 93.784 52.448C93.6133 52.5333 93.528 52.6613 93.528 52.832V56.768C93.528 57.088 93.6133 57.28 93.784 57.344C93.9653 57.3973 94.184 57.424 94.44 57.424H96.52C96.9467 57.424 97.32 57.376 97.64 57.28C97.96 57.184 98.2747 56.9867 98.584 56.688C98.808 56.464 98.9893 56.1973 99.128 55.888C99.2667 55.568 99.3893 55.264 99.496 54.976C99.5067 54.9547 99.5173 54.9333 99.528 54.912C99.5387 54.88 99.5493 54.8587 99.56 54.848C99.5813 54.816 99.6133 54.7947 99.656 54.784C99.7093 54.7733 99.7573 54.768 99.8 54.768C99.8533 54.768 99.9227 54.784 100.008 54.816C100.093 54.848 100.136 54.9013 100.136 54.976ZM117.496 57.712C117.496 57.8933 117.443 57.9947 117.336 58.016C117.24 58.0373 117.117 58.048 116.968 58.048C116.669 58.048 116.371 58.0373 116.072 58.016C115.784 58.0053 115.491 58 115.192 58C114.861 58 114.531 58.0107 114.2 58.032C113.88 58.0533 113.555 58.064 113.224 58.064C113.139 58.064 113.053 58.0427 112.968 58C112.893 57.9573 112.856 57.888 112.856 57.792C112.856 57.5893 112.909 57.488 113.016 57.488C113.133 57.4773 113.267 57.472 113.416 57.472C113.8 57.472 114.035 57.36 114.12 57.136C114.216 56.9013 114.264 56.6187 114.264 56.288C114.264 55.6267 114.259 54.9707 114.248 54.32C114.248 53.6587 114.248 53.0027 114.248 52.352H107.848V56.304C107.848 56.4533 107.864 56.6187 107.896 56.8C107.928 56.9707 107.992 57.12 108.088 57.248C108.184 57.3653 108.328 57.424 108.52 57.424C108.605 57.424 108.691 57.424 108.776 57.424C108.872 57.4133 108.968 57.408 109.064 57.408C109.149 57.408 109.224 57.4347 109.288 57.488C109.352 57.5413 109.384 57.616 109.384 57.712C109.384 57.8827 109.331 57.9787 109.224 58C109.128 58.032 109.005 58.048 108.856 58.048C108.557 58.048 108.259 58.0373 107.96 58.016C107.672 58.0053 107.379 58 107.08 58C106.739 58 106.397 58.0107 106.056 58.032C105.715 58.0533 105.373 58.064 105.032 58.064C104.947 58.064 104.861 58.0427 104.776 58C104.701 57.9573 104.664 57.888 104.664 57.792C104.664 57.6427 104.712 57.5467 104.808 57.504C104.904 57.4613 105.016 57.4453 105.144 57.456C105.283 57.456 105.4 57.456 105.496 57.456C105.72 57.456 105.875 57.392 105.96 57.264C106.056 57.1253 106.109 56.96 106.12 56.768C106.141 56.576 106.152 56.4053 106.152 56.256C106.152 54.88 106.147 53.5093 106.136 52.144C106.136 50.768 106.136 49.392 106.136 48.016C106.136 47.8453 106.115 47.6747 106.072 47.504C106.029 47.3227 105.949 47.168 105.832 47.04C105.725 46.912 105.571 46.848 105.368 46.848C105.283 46.848 105.197 46.8533 105.112 46.864C105.037 46.8747 104.957 46.88 104.872 46.88C104.787 46.88 104.707 46.8587 104.632 46.816C104.557 46.7733 104.52 46.704 104.52 46.608C104.52 46.4587 104.568 46.3627 104.664 46.32C104.76 46.2667 104.877 46.24 105.016 46.24C105.325 46.24 105.635 46.2507 105.944 46.272C106.264 46.2827 106.584 46.288 106.904 46.288C107.192 46.288 107.48 46.2827 107.768 46.272C108.056 46.2613 108.344 46.2453 108.632 46.224C108.675 46.224 108.712 46.224 108.744 46.224C108.776 46.2133 108.813 46.208 108.856 46.208C108.941 46.208 109.027 46.2347 109.112 46.288C109.197 46.3307 109.24 46.4053 109.24 46.512C109.24 46.7147 109.176 46.816 109.048 46.816C108.931 46.8053 108.808 46.8 108.68 46.8C108.285 46.8 108.04 46.9227 107.944 47.168C107.859 47.4133 107.816 47.696 107.816 48.016C107.816 48.6027 107.816 49.1947 107.816 49.792C107.827 50.3893 107.832 50.9867 107.832 51.584H114.248C114.248 50.9867 114.248 50.3893 114.248 49.792C114.259 49.1947 114.264 48.6027 114.264 48.016C114.264 47.8667 114.243 47.7013 114.2 47.52C114.168 47.3387 114.104 47.184 114.008 47.056C113.912 46.9173 113.768 46.848 113.576 46.848C113.48 46.848 113.389 46.8533 113.304 46.864C113.219 46.8747 113.133 46.88 113.048 46.88C112.963 46.88 112.883 46.8587 112.808 46.816C112.733 46.7733 112.696 46.704 112.696 46.608C112.696 46.448 112.744 46.3467 112.84 46.304C112.936 46.2613 113.053 46.24 113.192 46.24C113.501 46.24 113.805 46.2507 114.104 46.272C114.403 46.2827 114.707 46.288 115.016 46.288C115.304 46.288 115.597 46.2827 115.896 46.272C116.195 46.2613 116.488 46.2453 116.776 46.224C116.819 46.224 116.856 46.224 116.888 46.224C116.931 46.2133 116.973 46.208 117.016 46.208C117.101 46.208 117.187 46.2347 117.272 46.288C117.357 46.3307 117.4 46.4053 117.4 46.512C117.4 46.7147 117.336 46.816 117.208 46.816C117.08 46.8053 116.952 46.8 116.824 46.8C116.429 46.8 116.184 46.928 116.088 47.184C115.992 47.4293 115.944 47.7173 115.944 48.048C115.944 49.424 115.944 50.8 115.944 52.176C115.955 53.552 115.96 54.928 115.96 56.304C115.96 56.4533 115.976 56.6187 116.008 56.8C116.04 56.9707 116.104 57.12 116.2 57.248C116.296 57.3653 116.44 57.424 116.632 57.424C116.717 57.424 116.803 57.424 116.888 57.424C116.984 57.4133 117.08 57.408 117.176 57.408C117.261 57.408 117.336 57.44 117.4 57.504C117.464 57.5573 117.496 57.6267 117.496 57.712ZM132.648 52.208C132.648 51.8133 132.605 51.3813 132.52 50.912C132.445 50.4427 132.323 49.9733 132.152 49.504C131.981 49.0347 131.763 48.608 131.496 48.224C131.229 47.8293 130.909 47.5147 130.536 47.28C130.173 47.0347 129.747 46.912 129.256 46.912C128.765 46.912 128.333 47.0293 127.96 47.264C127.587 47.4987 127.267 47.8133 127 48.208C126.733 48.6027 126.515 49.0347 126.344 49.504C126.184 49.9627 126.067 50.432 125.992 50.912C125.917 51.3813 125.88 51.8133 125.88 52.208C125.88 52.7093 125.939 53.2587 126.056 53.856C126.173 54.4427 126.365 55.0027 126.632 55.536C126.899 56.0587 127.245 56.4907 127.672 56.832C128.109 57.1627 128.637 57.328 129.256 57.328C129.885 57.328 130.413 57.1627 130.84 56.832C131.277 56.4907 131.624 56.0587 131.88 55.536C132.147 55.0027 132.339 54.4427 132.456 53.856C132.584 53.2693 132.648 52.72 132.648 52.208ZM134.456 52.096C134.456 52.9173 134.355 53.6907 134.152 54.416C133.949 55.1413 133.64 55.7813 133.224 56.336C132.808 56.88 132.275 57.312 131.624 57.632C130.973 57.9413 130.2 58.096 129.304 58.096C127.939 58.096 126.867 57.76 126.088 57.088C125.309 56.4053 124.749 55.424 124.408 54.144C124.333 53.8347 124.269 53.5093 124.216 53.168C124.163 52.816 124.147 52.4853 124.168 52.176H122.376V56.32C122.376 56.48 122.381 56.6507 122.392 56.832C122.403 57.0133 122.456 57.168 122.552 57.296C122.648 57.4133 122.808 57.472 123.032 57.472C123.117 57.472 123.203 57.472 123.288 57.472C123.384 57.4613 123.48 57.456 123.576 57.456C123.651 57.456 123.72 57.4773 123.784 57.52C123.859 57.5627 123.896 57.6267 123.896 57.712C123.896 57.8293 123.853 57.9147 123.768 57.968C123.683 58.0107 123.587 58.032 123.48 58.032C123.267 58.032 123.053 58.0267 122.84 58.016C122.637 58.016 122.429 58.016 122.216 58.016C121.885 58.016 121.549 58.016 121.208 58.016C120.877 58.016 120.541 58.0267 120.2 58.048C120.061 58.0587 119.923 58.064 119.784 58.064C119.656 58.0747 119.523 58.08 119.384 58.08C119.16 58.08 119.048 57.9787 119.048 57.776C119.048 57.6373 119.101 57.552 119.208 57.52C119.325 57.488 119.464 57.472 119.624 57.472C119.795 57.472 119.96 57.4507 120.12 57.408C120.291 57.3653 120.429 57.264 120.536 57.104C120.653 56.9333 120.712 56.6613 120.712 56.288C120.712 54.8907 120.707 53.4987 120.696 52.112C120.696 50.7253 120.696 49.3387 120.696 47.952C120.696 47.664 120.653 47.4187 120.568 47.216C120.493 47.0133 120.285 46.912 119.944 46.912C119.869 46.912 119.795 46.9227 119.72 46.944C119.656 46.9547 119.587 46.96 119.512 46.96C119.437 46.96 119.363 46.9333 119.288 46.88C119.213 46.8267 119.176 46.7573 119.176 46.672C119.176 46.4907 119.219 46.384 119.304 46.352C119.4 46.32 119.523 46.304 119.672 46.304C119.949 46.304 120.221 46.3147 120.488 46.336C120.765 46.3467 121.043 46.352 121.32 46.352C121.693 46.352 122.061 46.3413 122.424 46.32C122.787 46.288 123.149 46.272 123.512 46.272C123.608 46.272 123.688 46.2987 123.752 46.352C123.827 46.4053 123.864 46.4853 123.864 46.592C123.864 46.7733 123.784 46.8693 123.624 46.88C123.475 46.8907 123.341 46.896 123.224 46.896C122.829 46.896 122.584 47.0187 122.488 47.264C122.392 47.4987 122.349 47.7813 122.36 48.112V51.424H124.216C124.344 50.4533 124.605 49.5787 125 48.8C125.395 48.0107 125.944 47.3813 126.648 46.912C127.363 46.4427 128.248 46.208 129.304 46.208C130.168 46.208 130.92 46.3627 131.56 46.672C132.211 46.9813 132.749 47.408 133.176 47.952C133.603 48.4853 133.923 49.1093 134.136 49.824C134.349 50.5387 134.456 51.296 134.456 52.096Z" fill="white"/>
</g>
<defs>
<filter id="filter0_d_97_4" x="0" y="0" width="324" height="80" filterUnits="userSpaceOnUse" color-interpolation-filters="sRGB">
<feFlood flood-opacity="0" result="BackgroundImageFix"/>
<feColorMatrix in="SourceAlpha" type="matrix" values="0 0 0 0 0 0 0 0 0 0 0 0 0 0 0 0 0 0 127 0" result="hardAlpha"/>
<feOffset dy="1"/>
<feGaussianBlur stdDeviation="1"/>
<feComposite in2="hardAlpha" operator="out"/>
<feColorMatrix type="matrix" values="0 0 0 0 0 0 0 0 0 0 0 0 0 0 0 0 0 0 0.05 0"/>
<feBlend mode="normal" in2="BackgroundImageFix" result="effect1_dropShadow_97_4"/>
<feBlend mode="normal" in="SourceGraphic" in2="effect1_dropShadow_97_4" result="shape"/>
</filter>
</defs>
</svg>
