<svg width="26" height="23" viewBox="0 0 26 23" fill="none" xmlns="http://www.w3.org/2000/svg">
<g clip-path="url(#clip0_78_380)">
<mask id="mask0_78_380" style="mask-type:luminance" maskUnits="userSpaceOnUse" x="0" y="0" width="26" height="23">
<path d="M0 0H26V23H0V0Z" fill="white"/>
</mask>
<g mask="url(#mask0_78_380)">
<path fill-rule="evenodd" clip-rule="evenodd" d="M26 11.5C26 17.8509 20.1793 23 13 23C5.82075 23 0 17.8509 0 11.5C0 5.14913 5.82075 0 13 0C20.1793 0 26 5.14913 26 11.5ZM13.4658 8.48988C12.2016 8.95467 9.67417 9.91779 5.88467 11.3783C5.26933 11.5949 4.9465 11.8067 4.91725 12.0137C4.86742 12.3644 5.36358 12.5024 6.03742 12.6893C6.1295 12.7152 6.22483 12.741 6.32233 12.7698C6.98642 12.9605 7.87908 13.1838 8.34275 13.1924C8.76417 13.2001 9.23433 13.0467 9.75325 12.7324C13.2936 10.6174 15.1212 9.54883 15.236 9.52583C15.3173 9.50954 15.4299 9.48846 15.5058 9.54883C15.5816 9.60825 15.574 9.72133 15.5664 9.752C15.5166 9.93696 13.5731 11.5364 12.5656 12.3644C12.2514 12.6222 12.0293 12.8052 11.9838 12.8474C11.882 12.9404 11.778 13.0295 11.6783 13.1148C11.0608 13.64 10.5993 14.0348 11.7043 14.6788C12.2352 14.9883 12.6598 15.2442 13.0834 15.4991C13.546 15.778 14.0075 16.0559 14.6055 16.4028C14.7572 16.491 14.9023 16.582 15.0443 16.6712C15.5827 17.0114 16.0669 17.3161 16.6649 17.2682C17.0116 17.2395 17.3712 16.951 17.5532 16.0895C17.9833 14.052 18.8305 9.63988 19.0266 7.82096C19.0385 7.66994 19.0312 7.51821 19.0049 7.36862C18.9892 7.24781 18.9226 7.13664 18.8186 7.05717C18.6637 6.94504 18.4232 6.92108 18.3148 6.923C17.8263 6.93067 17.0766 7.16163 13.4658 8.48988Z" fill="white"/>
</g>
</g>
<defs>
<clipPath id="clip0_78_380">
<rect width="26" height="23" fill="white"/>
</clipPath>
</defs>
</svg>
