<svg width="24" height="33" viewBox="0 0 24 33" fill="none" xmlns="http://www.w3.org/2000/svg">
<path d="M0.335324 32.0232L0.511102 0.247707L9.58296 0.297892C13.2629 0.318249 16.1874 0.958437 18.3565 2.21846C20.5255 3.47847 21.6032 5.35646 21.5894 7.85242C21.5796 9.6124 20.9471 11.1449 19.6919 12.45C18.4688 13.7233 16.7515 14.6898 14.5398 15.3495C17.4487 15.9096 19.6352 16.9138 21.0992 18.3619C22.5954 19.7782 23.3388 21.3343 23.3294 23.0303C23.32 24.7263 22.88 26.1798 22.0093 27.391C21.1387 28.5703 20.0297 29.4761 18.6822 30.1087C15.9548 31.4376 13.1671 32.0942 10.3192 32.0785L0.335324 32.0232ZM5.08658 14.8172L8.54252 14.8364C11.4545 14.8525 13.538 14.224 14.7931 12.9509C16.0803 11.646 16.7293 10.0176 16.7401 8.0656C16.7474 6.75362 16.3059 5.56716 15.4158 4.50622C14.5578 3.41346 13.2183 2.59004 11.3974 2.03596C9.22141 2.02392 7.13967 2.33241 5.15216 2.96142L5.08658 14.8172ZM5.07888 16.2092L5.0032 29.889C6.02542 30.2147 7.60851 30.3834 9.75247 30.3953C11.8964 30.4072 13.8037 29.8257 15.4742 28.6509C17.1447 27.4761 17.9858 25.8328 17.9975 23.7208C18.0092 21.6088 17.107 19.8438 15.2908 18.4257C13.4748 16.9757 11.2868 16.2436 8.72682 16.2294L5.07888 16.2092Z" fill="#9A4F4F"/>
</svg>
