<svg width="34" height="48" viewBox="0 0 34 48" fill="none" xmlns="http://www.w3.org/2000/svg">
<path d="M0.0974758 47.0106L0.353819 0.671319L13.5836 0.744505C18.9502 0.774192 23.2151 1.7078 26.3783 3.54533C29.5415 5.38285 31.1131 8.12159 31.0929 11.7615C31.0787 14.3282 30.1564 16.5631 28.3258 18.4663C26.5422 20.3232 24.0377 21.7327 20.8123 22.6948C25.0545 23.5116 28.2431 24.976 30.3781 27.0878C32.5601 29.1532 33.6442 31.4226 33.6305 33.8959C33.6169 36.3692 32.9751 38.489 31.7053 40.2554C30.4358 41.975 28.8185 43.2961 26.8533 44.2186C22.8759 46.1566 18.8105 47.1141 14.6573 47.0912L0.0974758 47.0106ZM7.02639 21.9186L12.0663 21.9464C16.3129 21.9699 19.3514 21.0534 21.1817 19.1968C23.0589 17.2938 24.0054 14.919 24.0211 12.0724C24.0317 10.1591 23.3879 8.42886 22.0898 6.88165C20.8386 5.28804 18.8852 4.08722 16.2296 3.27918C13.0564 3.26163 10.0205 3.71151 7.12203 4.62882L7.02639 21.9186ZM7.01516 23.9485L6.9048 43.8982C8.39553 44.3731 10.7042 44.6193 13.8308 44.6365C16.9574 44.6538 19.7388 43.8059 22.175 42.0927C24.6112 40.3795 25.8378 37.9829 25.8548 34.9029C25.8719 31.823 24.5561 29.249 21.9075 27.181C19.2592 25.0663 16.0684 23.9986 12.3351 23.978L7.01516 23.9485Z" fill="white"/>
</svg>
