<svg width="43" height="37" viewBox="0 0 43 37" fill="none" xmlns="http://www.w3.org/2000/svg">
<path d="M21.0576 36.5876L3.56452 19.0353C2.16915 17.6352 1.24008 16.0087 0.777299 14.1556C0.325883 12.3026 0.334674 10.4617 0.803673 8.63292C1.27269 6.7928 2.20153 5.19209 3.5902 3.8308C5.01301 2.43548 6.63389 1.51208 8.45284 1.0606C10.2832 0.597784 12.107 0.600865 13.9244 1.06985C15.7532 1.53884 17.3766 2.46772 18.7947 3.85648L21.1091 6.1104L23.4311 3.86431C24.8652 2.48037 26.4918 1.55698 28.3108 1.09415C30.1297 0.631307 31.9479 0.634378 33.7653 1.10336C35.5941 1.56099 37.2175 2.48987 38.6356 3.89C40.0197 5.25597 40.9431 6.85981 41.4059 8.7015C41.8687 10.5318 41.8656 12.3727 41.3966 14.2242C40.9389 16.0757 40.01 17.6992 38.6099 19.0945L21.0576 36.5876Z" fill="white"/>
</svg>
