<svg width="116" height="32" viewBox="0 0 116 32" fill="none" xmlns="http://www.w3.org/2000/svg">
<path d="M0.5 16C0.5 7.43959 7.43959 0.5 16 0.5L100 0.5C108.56 0.5 115.5 7.43959 115.5 16C115.5 24.5604 108.56 31.5 100 31.5L16 31.5C7.43959 31.5 0.5 24.5604 0.5 16Z" stroke="#E0E0E0"/>
<path d="M23 23C27.4183 23 31 19.4183 31 15C31 10.5817 27.4183 7 23 7C18.5817 7 15 10.5817 15 15C15 19.4183 18.5817 23 23 23Z" stroke="white" stroke-width="2" stroke-linecap="round" stroke-linejoin="round"/>
<path d="M33.0004 24.9999L28.6504 20.6499" stroke="white" stroke-width="2" stroke-linecap="round" stroke-linejoin="round"/>
</svg>
