<svg width="32" height="29" viewBox="0 0 32 29" fill="none" xmlns="http://www.w3.org/2000/svg">
<path d="M23.4663 7.63668C22.4889 6.74423 21.3255 6.0368 20.0436 5.55554C18.7618 5.07428 17.3872 4.82879 15.9997 4.83334C14.1448 4.83499 12.323 5.27825 10.7166 6.11874C9.11027 6.95923 7.77578 8.16746 6.84679 9.62241C5.91781 11.0774 5.42695 12.728 5.42336 14.4089C5.41977 16.0899 5.90358 17.7422 6.82634 19.2004L5.33301 24.1667L10.933 22.8375C12.4787 23.6186 14.2166 24.0342 15.9863 24.0458C18.7992 24.0459 21.4983 23.0391 23.496 21.2445C25.4937 19.4499 26.6284 17.0128 26.653 14.4638C26.6436 13.1918 26.3573 11.9339 25.8105 10.7624C25.2636 9.59087 24.467 8.52866 23.4663 7.63668ZM15.9997 22.3904C14.4234 22.3902 12.8762 22.0062 11.5197 21.2788L11.1997 21.0975L7.87967 21.895L8.75967 18.9588L8.54634 18.6567C7.41201 16.9972 6.98866 15.0184 7.35651 13.095C7.72435 11.1716 8.85782 9.43729 10.5422 8.22058C12.2266 7.00386 14.3449 6.38926 16.4958 6.49321C18.6468 6.59716 20.681 7.41244 22.213 8.78459C23.8877 10.2687 24.8464 12.293 24.8797 14.4154C24.8586 16.5372 23.9137 18.5655 22.2507 20.0591C20.5876 21.5526 18.341 22.3905 15.9997 22.3904ZM20.813 16.4213C20.5463 16.3004 19.253 15.7204 19.013 15.6479C18.773 15.5754 18.5863 15.5271 18.413 15.7688C18.1522 16.0927 17.8717 16.4033 17.573 16.6992C17.4263 16.8683 17.2663 16.8804 16.9997 16.6992C15.4793 16.1547 14.2126 15.1518 13.413 13.8596C13.133 13.4367 13.6797 13.4608 14.1863 12.5546C14.2237 12.4893 14.2433 12.4167 14.2433 12.3431C14.2433 12.2695 14.2237 12.197 14.1863 12.1317C14.1863 12.0108 13.5863 10.8267 13.373 10.3554C13.1597 9.88418 12.9463 9.95668 12.773 9.94459H12.253C12.1181 9.94568 11.9851 9.97325 11.8631 10.0254C11.7411 10.0775 11.633 10.153 11.5463 10.2467C11.2479 10.5108 11.015 10.8295 10.8632 11.1817C10.7115 11.5338 10.6444 11.9112 10.6663 12.2888C10.7484 13.193 11.1242 14.055 11.7463 14.7658C12.8831 16.307 14.4401 17.5558 16.2663 18.3908C17.2243 18.8977 18.3377 19.1096 19.4397 18.995C19.8066 18.929 20.1542 18.7938 20.4597 18.5981C20.7652 18.4024 21.0219 18.1506 21.213 17.8592C21.3917 17.5039 21.4475 17.1079 21.373 16.7233C21.253 16.6025 21.0797 16.5421 20.813 16.4213Z" fill="#9A4F4F"/>
</svg>
