<svg width="43" height="40" viewBox="0 0 43 40" fill="none" xmlns="http://www.w3.org/2000/svg">
<path d="M31.5337 10.5333C30.2203 9.30238 28.6569 8.32662 26.9344 7.66281C25.2119 6.999 23.3648 6.6604 21.5003 6.66668C19.0079 6.66894 16.5598 7.28034 14.4012 8.43964C12.2427 9.59894 10.4495 11.2655 9.20114 13.2723C7.95282 15.2791 7.29322 17.5558 7.2884 19.8744C7.28358 22.193 7.9337 24.472 9.17366 26.4833L7.16699 33.3333L14.692 31.5C16.769 32.5774 19.1044 33.1506 21.4824 33.1667C25.2622 33.1668 28.8891 31.7781 31.5735 29.3028C34.258 26.8275 35.7827 23.466 35.8157 19.95C35.8031 18.1955 35.4184 16.4606 34.6836 14.8447C33.9488 13.2288 32.8783 11.7637 31.5337 10.5333ZM21.5003 30.8833C19.3823 30.883 17.3032 30.3534 15.4803 29.35L15.0503 29.1L10.5891 30.2L11.7716 26.15L11.4849 25.7333C9.96065 23.4445 9.39178 20.715 9.88607 18.0621C10.3804 15.4091 11.9035 13.017 14.1669 11.3387C16.4303 9.6605 19.2767 8.81278 22.1671 8.95616C25.0574 9.09953 27.7908 10.2241 29.8495 12.1167C32.0998 14.1637 33.3881 16.9558 33.4328 19.8833C33.4045 22.8099 32.1348 25.6076 29.9001 27.6677C27.6654 29.7277 24.6465 30.8835 21.5003 30.8833ZM27.9682 22.65C27.6099 22.4833 25.872 21.6833 25.5495 21.5833C25.227 21.4833 24.9762 21.4167 24.7432 21.75C24.3927 22.1968 24.0159 22.6253 23.6145 23.0333C23.4174 23.2667 23.2024 23.2833 22.8441 23.0333C20.8011 22.2823 19.0989 20.899 18.0245 19.1167C17.6482 18.5333 18.3828 18.5667 19.0637 17.3167C19.1139 17.2266 19.1402 17.1265 19.1402 17.025C19.1402 16.9235 19.1139 16.8235 19.0637 16.7333C19.0637 16.5667 18.2574 14.9333 17.9707 14.2833C17.6841 13.6333 17.3974 13.7333 17.1645 13.7167H16.4657C16.2845 13.7182 16.1058 13.7562 15.9418 13.8281C15.7779 13.9001 15.6327 14.0042 15.5162 14.1333C15.1151 14.4976 14.8022 14.9373 14.5982 15.423C14.3943 15.9087 14.3041 16.4293 14.3337 16.95C14.4439 18.1973 14.9489 19.3862 15.7849 20.3667C17.3124 22.4925 19.4047 24.2148 21.8587 25.3667C23.1459 26.0657 24.642 26.3581 26.1228 26.2C26.6159 26.109 27.0829 25.9224 27.4935 25.6525C27.904 25.3826 28.2489 25.0354 28.5057 24.6333C28.7458 24.1433 28.8208 23.5971 28.7207 23.0667C28.5595 22.9 28.3266 22.8167 27.9682 22.65Z" fill="white"/>
</svg>
