<svg width="117" height="33" viewBox="0 0 117 33" fill="none" xmlns="http://www.w3.org/2000/svg">
<path d="M16.167 1.54346L100.167 1.54346C108.175 1.54346 114.667 8.03533 114.667 16.0435C114.667 24.0516 108.175 30.5435 100.167 30.5435L16.167 30.5435C8.15886 30.5435 1.66699 24.0516 1.66699 16.0435C1.66699 8.03533 8.15886 1.54346 16.167 1.54346Z" stroke="#E0E0E0" stroke-width="3"/>
<path d="M23.167 23.0435C27.5853 23.0435 31.167 19.4617 31.167 15.0435C31.167 10.6252 27.5853 7.04346 23.167 7.04346C18.7487 7.04346 15.167 10.6252 15.167 15.0435C15.167 19.4617 18.7487 23.0435 23.167 23.0435Z" stroke="white" stroke-width="2" stroke-linecap="round" stroke-linejoin="round"/>
<path d="M33.1674 25.0434L28.8174 20.6934" stroke="white" stroke-width="2" stroke-linecap="round" stroke-linejoin="round"/>
</svg>
