<svg width="592" height="44" viewBox="0 0 592 44" fill="none" xmlns="http://www.w3.org/2000/svg">
<path d="M34.7188 22.5781C34.8438 22.5156 34.9583 22.4844 35.0625 22.4844C35.1771 22.4844 35.2656 22.526 35.3281 22.6094C35.3906 22.6823 35.4219 22.776 35.4219 22.8906C35.4219 23.0365 35.3646 23.2031 35.25 23.3906C35.1354 23.5677 34.9583 23.7292 34.7188 23.875C34.1146 24.2917 33.5052 24.6875 32.8906 25.0625C32.2865 25.4271 31.6667 25.7708 31.0312 26.0938C30.4896 26.375 29.9167 26.6458 29.3125 26.9062C28.7083 27.1667 28.0885 27.401 27.4531 27.6094C26.8281 27.8177 26.1927 27.9844 25.5469 28.1094C24.9115 28.2344 24.2917 28.2969 23.6875 28.2969C22.8542 28.2969 22.1146 28.1667 21.4688 27.9062C21.25 28.2812 21.026 28.6458 20.7969 29C20.5781 29.3438 20.3594 29.6823 20.1406 30.0156C21.2135 30.6094 22.2552 31.2083 23.2656 31.8125C24.2865 32.4271 25.2448 33.0156 26.1406 33.5781C27.0469 34.151 27.8802 34.6927 28.6406 35.2031C29.4115 35.7135 30.0833 36.1667 30.6562 36.5625C31.2292 36.9583 31.6927 37.2865 32.0469 37.5469C32.401 37.8073 32.6198 37.974 32.7031 38.0469C32.9531 38.2552 33.1302 38.474 33.2344 38.7031C33.349 38.9427 33.4062 39.1615 33.4062 39.3594C33.4062 39.5365 33.3646 39.6823 33.2812 39.7969C33.1979 39.9115 33.0833 39.9688 32.9375 39.9688C32.7604 39.9688 32.5729 39.901 32.375 39.7656C32.1875 39.6302 31.974 39.3958 31.7344 39.0625C31.5781 38.8646 31.3021 38.6042 30.9062 38.2812C30.5104 37.9583 30.0208 37.5885 29.4375 37.1719C28.8542 36.7552 28.1823 36.3021 27.4219 35.8125C26.6719 35.3333 25.8594 34.8385 24.9844 34.3281C24.1094 33.8177 23.1875 33.2969 22.2188 32.7656C21.25 32.2448 20.2552 31.7396 19.2344 31.25C18.4531 32.2708 17.6354 33.151 16.7812 33.8906C15.9375 34.6406 15.0469 35.2604 14.1094 35.75C13.1719 36.2396 12.1771 36.599 11.125 36.8281C10.0833 37.0677 8.96875 37.1875 7.78125 37.1875C6.47917 37.1875 5.33854 36.9844 4.35938 36.5781C3.39062 36.1719 2.58333 35.6406 1.9375 34.9844C1.29167 34.3385 0.807292 33.599 0.484375 32.7656C0.161458 31.9427 0 31.1094 0 30.2656C0 29.2448 0.125 28.3802 0.375 27.6719C0.625 26.9531 0.979167 26.375 1.4375 25.9375C1.89583 25.4896 2.44792 25.1667 3.09375 24.9688C3.73958 24.7604 4.45312 24.6562 5.23438 24.6562C6.07812 24.6562 6.98958 24.7604 7.96875 24.9688C8.94792 25.1771 9.96875 25.4635 11.0312 25.8281C12.0938 26.1927 13.1823 26.625 14.2969 27.125C15.4219 27.6146 16.5417 28.1406 17.6562 28.7031C17.8958 28.3385 18.125 27.9688 18.3438 27.5938C18.5625 27.2188 18.7812 26.8385 19 26.4531C18.8542 26.3177 18.7344 26.1823 18.6406 26.0469C18.5573 25.9115 18.5156 25.7708 18.5156 25.625C18.5156 25.4167 18.6458 25.1771 18.9062 24.9062C19.1771 24.6354 19.6146 24.3906 20.2188 24.1719C20.9479 22.7448 21.6354 21.2969 22.2812 19.8281C22.9271 18.349 23.5312 16.9167 24.0938 15.5312C24.6667 14.1458 25.2031 12.8438 25.7031 11.625C26.2031 10.3958 26.6667 9.32812 27.0938 8.42188C27.5312 7.50521 27.9323 6.78646 28.2969 6.26562C28.6719 5.73438 29.0156 5.46875 29.3281 5.46875C28.4115 5.46875 27.3594 5.39062 26.1719 5.23438C24.9948 5.07812 23.7552 4.88021 22.4531 4.64062C21.1615 4.40104 19.8438 4.14583 18.5 3.875C17.1562 3.59375 15.8646 3.33333 14.625 3.09375C13.3854 2.85417 12.2292 2.65625 11.1562 2.5C10.0938 2.34375 9.1875 2.26562 8.4375 2.26562C7.51042 2.26562 6.72396 2.38542 6.07812 2.625C5.43229 2.86458 4.90625 3.1875 4.5 3.59375C4.09375 3.98958 3.79688 4.45312 3.60938 4.98438C3.43229 5.51562 3.34375 6.07292 3.34375 6.65625C3.34375 7.39583 3.47917 8.14583 3.75 8.90625C4.02083 9.65625 4.38542 10.3385 4.84375 10.9531C5.3125 11.5573 5.85417 12.0521 6.46875 12.4375C7.08333 12.8229 7.73958 13.0156 8.4375 13.0156C9.77083 13.0156 10.8646 12.901 11.7188 12.6719C12.5833 12.4427 13.2708 12.1562 13.7812 11.8125C14.2917 11.4583 14.6615 11.0781 14.8906 10.6719C15.1302 10.2656 15.2917 9.89062 15.375 9.54688C15.4583 9.19271 15.5 8.90104 15.5 8.67188C15.5104 8.44271 15.5469 8.32812 15.6094 8.32812C15.7135 8.32812 15.8177 8.36979 15.9219 8.45312C16.0365 8.53646 16.1354 8.64583 16.2188 8.78125C16.3021 8.90625 16.3698 9.05208 16.4219 9.21875C16.474 9.375 16.5 9.52604 16.5 9.67188C16.5 10.5156 16.3125 11.2656 15.9375 11.9219C15.5729 12.5677 15.0781 13.1146 14.4531 13.5625C13.8385 14 13.1302 14.3333 12.3281 14.5625C11.526 14.7917 10.6979 14.9062 9.84375 14.9062C8.54167 14.9062 7.36979 14.6667 6.32812 14.1875C5.28646 13.7083 4.39583 13.0885 3.65625 12.3281C2.92708 11.5573 2.36458 10.7031 1.96875 9.76562C1.57292 8.81771 1.375 7.875 1.375 6.9375C1.375 6.20833 1.50521 5.50521 1.76562 4.82812C2.02604 4.15104 2.43229 3.55729 2.98438 3.04688C3.54688 2.52604 4.25521 2.11458 5.10938 1.8125C5.97396 1.5 7 1.34375 8.1875 1.34375C9.14583 1.34375 10.1719 1.41146 11.2656 1.54688C12.3594 1.68229 13.4896 1.85417 14.6562 2.0625C15.8333 2.26042 17.026 2.47917 18.2344 2.71875C19.4531 2.95833 20.6667 3.18229 21.875 3.39062C23.0833 3.58854 24.2708 3.75521 25.4375 3.89062C26.6146 4.02604 27.7396 4.09375 28.8125 4.09375C30.0417 4.09375 31.2708 3.98438 32.5 3.76562C33.7396 3.53646 35.0469 3.15104 36.4219 2.60938C36.526 2.66146 36.6406 2.72396 36.7656 2.79688C36.901 2.86979 37.0208 2.95312 37.125 3.04688C37.2396 3.13021 37.3333 3.22396 37.4062 3.32812C37.4792 3.42188 37.5156 3.52083 37.5156 3.625C37.5156 3.79167 37.3958 3.94792 37.1562 4.09375C36.6354 4.40625 36.1771 4.65625 35.7812 4.84375C35.3854 5.02083 35.0208 5.16146 34.6875 5.26562C34.3542 5.36979 34.0312 5.4375 33.7188 5.46875C33.4062 5.5 33.0781 5.51562 32.7344 5.51562C32.3802 5.51562 32 5.51042 31.5938 5.5C31.1875 5.47917 30.7031 5.46875 30.1406 5.46875C28.8385 9.6875 27.5885 13.4531 26.3906 16.7656C25.2031 20.0677 24 22.9531 22.7812 25.4219L22.8438 25.5C23.125 25.9167 23.474 26.2135 23.8906 26.3906C24.3177 26.5677 24.7969 26.6562 25.3281 26.6562C25.7865 26.6562 26.2708 26.599 26.7812 26.4844C27.3021 26.3594 27.8229 26.2031 28.3438 26.0156C28.875 25.8281 29.401 25.6146 29.9219 25.375C30.4427 25.125 30.9375 24.875 31.4062 24.625C31.9688 24.3229 32.5208 24.0052 33.0625 23.6719C33.6042 23.3281 34.1562 22.9635 34.7188 22.5781ZM8.26562 35.7812C9.06771 35.7812 9.84375 35.6406 10.5938 35.3594C11.3438 35.0885 12.0677 34.6979 12.7656 34.1875C13.474 33.6875 14.151 33.0885 14.7969 32.3906C15.4531 31.6927 16.0885 30.9219 16.7031 30.0781C15.6927 29.6302 14.6823 29.2188 13.6719 28.8438C12.6719 28.4583 11.6979 28.1302 10.75 27.8594C9.80208 27.5781 8.89583 27.3594 8.03125 27.2031C7.16667 27.0469 6.36458 26.9688 5.625 26.9688C5 26.9688 4.45312 27.0625 3.98438 27.25C3.52604 27.4375 3.14583 27.6875 2.84375 28C2.54167 28.3125 2.3125 28.6771 2.15625 29.0938C2.01042 29.5104 1.9375 29.9427 1.9375 30.3906C1.9375 31.0052 2.07292 31.6302 2.34375 32.2656C2.61458 32.9115 3.01562 33.4948 3.54688 34.0156C4.07812 34.5365 4.73958 34.9583 5.53125 35.2812C6.32292 35.6146 7.23438 35.7812 8.26562 35.7812ZM37.9531 26.875C37.9531 26.5208 37.9688 26.1354 38 25.7188C38.0417 25.2917 38.0885 24.849 38.1406 24.3906C38.2031 23.9219 38.276 23.4531 38.3594 22.9844C38.4427 22.5052 38.5312 22.0365 38.625 21.5781L34.7188 23.875C34.6146 23.9479 34.5 23.9844 34.375 23.9844C34.25 23.9844 34.1458 23.9427 34.0625 23.8594C33.9688 23.776 33.9219 23.6719 33.9219 23.5469C33.9219 23.401 33.9844 23.25 34.1094 23.0938C34.224 22.9271 34.4271 22.7552 34.7188 22.5781L38.7812 20.0312C38.9479 19.5521 39.1875 18.9062 39.5 18.0938C39.8125 17.2812 40.1979 16.3802 40.6562 15.3906C41.1146 14.401 41.6458 13.3542 42.25 12.25C42.8542 11.1458 43.5365 10.0521 44.2969 8.96875C45.0573 7.88542 45.8906 6.85417 46.7969 5.875C47.7031 4.88542 48.6823 4.01562 49.7344 3.26562C50.7969 2.51562 51.9323 1.92188 53.1406 1.48438C54.3594 1.03646 55.6562 0.8125 57.0312 0.8125C58.1979 0.8125 59.2135 0.895833 60.0781 1.0625C60.9427 1.21875 61.6562 1.44271 62.2188 1.73438C62.7812 2.02604 63.1979 2.36979 63.4688 2.76562C63.75 3.15104 63.8906 3.57292 63.8906 4.03125C63.8906 4.75 63.5781 5.50521 62.9531 6.29688C62.3385 7.07812 61.4167 7.84375 60.1875 8.59375L42.4062 19.5469L41.4688 25.5625C42 25.2396 42.5312 24.9167 43.0625 24.5938C43.5938 24.2604 44.0938 23.9427 44.5625 23.6406C45.0417 23.3385 45.474 23.0625 45.8594 22.8125C46.2552 22.5521 46.5729 22.3333 46.8125 22.1562C46.9271 22.0521 47.0781 21.9323 47.2656 21.7969C47.4635 21.6615 47.6823 21.5365 47.9219 21.4219C48.1719 21.3073 48.4375 21.2083 48.7188 21.125C49 21.0417 49.2917 21 49.5938 21C49.8125 21 50.0312 21.026 50.25 21.0781C50.4688 21.1198 50.6615 21.224 50.8281 21.3906C51.0052 21.5573 51.1458 21.7969 51.25 22.1094C51.3646 22.4219 51.4219 22.8438 51.4219 23.375V27.4062C51.526 27.3438 51.7188 27.2292 52 27.0625C52.2917 26.8854 52.6406 26.6771 53.0469 26.4375C53.4531 26.1979 53.8958 25.9375 54.375 25.6562C54.8646 25.375 55.3542 25.0938 55.8438 24.8125L59.625 22.5781C59.8438 22.4531 60.0312 22.3906 60.1875 22.3906C60.4271 22.3906 60.5469 22.5104 60.5469 22.75C60.5469 22.9167 60.474 23.099 60.3281 23.2969C60.1927 23.4844 59.9583 23.6771 59.625 23.875C58.4792 24.5521 57.3802 25.1979 56.3281 25.8125C55.2865 26.4271 54.3385 26.974 53.4844 27.4531C52.6406 27.9323 51.9219 28.3229 51.3281 28.625C50.7344 28.9167 50.3177 29.0833 50.0781 29.125C49.9635 29.1458 49.8438 29.1615 49.7188 29.1719C49.5938 29.1823 49.4688 29.1875 49.3438 29.1875C48.9688 29.1875 48.6615 29.1354 48.4219 29.0312C48.1927 28.9375 48.0104 28.8073 47.875 28.6406C47.75 28.4635 47.6615 28.2656 47.6094 28.0469C47.5677 27.8281 47.5469 27.5938 47.5469 27.3438C47.5469 27.1042 47.5885 26.8542 47.6719 26.5938C47.7656 26.3229 47.8333 26.026 47.875 25.7031L48.3125 22.2812C46.7396 23.3854 45.3021 24.3646 44 25.2188C43.5417 25.5833 43.0885 25.9323 42.6406 26.2656C42.1927 26.599 41.7812 26.8958 41.4062 27.1562C41.0417 27.4167 40.724 27.625 40.4531 27.7812C40.1823 27.9271 40 28 39.9062 28C39.7083 28 39.4948 27.9896 39.2656 27.9688C39.0365 27.9479 38.8229 27.901 38.625 27.8281C38.4375 27.7448 38.276 27.6302 38.1406 27.4844C38.0156 27.3281 37.9531 27.125 37.9531 26.875ZM42.6875 17.5469C44 16.6615 45.3646 15.75 46.7812 14.8125C48.1979 13.8646 49.6302 12.9271 51.0781 12C52.5365 11.0729 53.9844 10.1667 55.4219 9.28125C56.8698 8.38542 58.276 7.54688 59.6406 6.76562C60.4323 6.17188 61.0417 5.61979 61.4688 5.10938C61.8958 4.59896 62.1094 4.14062 62.1094 3.73438C62.1094 3.21354 61.7135 2.80208 60.9219 2.5C60.1302 2.1875 58.875 2.03125 57.1562 2.03125C56.3542 2.03125 55.5521 2.1875 54.75 2.5C53.9479 2.80208 53.1562 3.21875 52.375 3.75C51.6042 4.28125 50.8542 4.90625 50.125 5.625C49.3958 6.33333 48.7031 7.09375 48.0469 7.90625C47.3906 8.71875 46.776 9.5625 46.2031 10.4375C45.6302 11.3021 45.1094 12.1562 44.6406 13C44.1823 13.8438 43.7865 14.6562 43.4531 15.4375C43.1198 16.2188 42.8646 16.9219 42.6875 17.5469ZM59.625 23.875C59.5208 23.9479 59.401 23.9844 59.2656 23.9844C59.1302 23.9844 59.0208 23.9479 58.9375 23.875C58.8542 23.7917 58.8125 23.6875 58.8125 23.5625C58.8125 23.4271 58.875 23.276 59 23.1094C59.1146 22.9323 59.3229 22.7552 59.625 22.5781L63.5781 20.25C63.8698 19.4271 64.2448 18.7188 64.7031 18.125C65.1719 17.5208 65.6823 17.026 66.2344 16.6406C66.7969 16.2448 67.3802 15.9531 67.9844 15.7656C68.599 15.5677 69.1927 15.4688 69.7656 15.4688C70.349 15.4688 70.8281 15.625 71.2031 15.9375C71.5885 16.2396 71.7812 16.7135 71.7812 17.3594C71.7812 17.7552 71.6354 18.1719 71.3438 18.6094C71.0625 19.0365 70.6719 19.4635 70.1719 19.8906C69.6823 20.3073 69.1042 20.6979 68.4375 21.0625C67.7708 21.4271 67.0625 21.7344 66.3125 21.9844C66.3125 22.4844 66.3021 22.9583 66.2812 23.4062C66.2708 23.8542 66.2656 24.276 66.2656 24.6719C66.2656 25.0052 66.276 25.3125 66.2969 25.5938C66.3177 25.8646 66.3594 26.099 66.4219 26.2969C66.4948 26.4844 66.5885 26.6354 66.7031 26.75C66.8281 26.8542 66.9844 26.9062 67.1719 26.9062C67.4635 26.9062 67.8125 26.7917 68.2188 26.5625C68.6354 26.3229 69.1562 26.0208 69.7812 25.6562C70.3438 25.3229 71.0625 24.9062 71.9375 24.4062C72.8125 23.9062 73.8802 23.2969 75.1406 22.5781C75.1823 22.5469 75.2396 22.5312 75.3125 22.5312C75.4271 22.5312 75.526 22.5833 75.6094 22.6875C75.7031 22.7812 75.75 22.901 75.75 23.0469C75.75 23.1719 75.7031 23.3073 75.6094 23.4531C75.526 23.599 75.3698 23.7396 75.1406 23.875C74.1094 24.4896 73.1094 25.1146 72.1406 25.75C71.1719 26.375 70.2552 26.9479 69.3906 27.4688C68.5365 27.9792 67.7448 28.401 67.0156 28.7344C66.2865 29.0573 65.651 29.2188 65.1094 29.2188C64.7448 29.2188 64.4219 29.1406 64.1406 28.9844C63.8698 28.8281 63.6354 28.5781 63.4375 28.2344C63.25 27.8906 63.1042 27.4427 63 26.8906C62.9062 26.3281 62.8594 25.6458 62.8594 24.8438C62.8594 24.7188 62.8646 24.5208 62.875 24.25C62.8958 23.9688 62.9219 23.6719 62.9531 23.3594C62.9948 23.0365 63.0417 22.724 63.0938 22.4219C63.1458 22.1198 63.2083 21.8854 63.2812 21.7188C63.2083 21.7604 63.099 21.8229 62.9531 21.9062C62.8177 21.9896 62.6562 22.0885 62.4688 22.2031C62.2812 22.3073 62.0833 22.4219 61.875 22.5469C61.6667 22.6719 61.4583 22.7969 61.25 22.9219L59.625 23.875ZM70.0938 17.4844C70.1146 17.4219 70.125 17.3542 70.125 17.2812C70.125 17.0208 70.0781 16.8281 69.9844 16.7031C69.901 16.5781 69.7552 16.5156 69.5469 16.5156C69.3073 16.5156 69.0312 16.6094 68.7188 16.7969C68.4062 16.974 68.099 17.2396 67.7969 17.5938C67.5052 17.9479 67.2396 18.3906 67 18.9219C66.7708 19.4531 66.6146 20.0625 66.5312 20.75C66.9583 20.5312 67.375 20.2812 67.7812 20C68.1875 19.7083 68.5521 19.4167 68.875 19.125C69.2083 18.8229 69.4792 18.5312 69.6875 18.25C69.9062 17.9583 70.0417 17.7031 70.0938 17.4844ZM98.8281 27.5156C98.724 27.5365 98.625 27.5521 98.5312 27.5625C98.4479 27.5625 98.3646 27.5677 98.2812 27.5781C97.5938 28.1406 96.7812 28.5781 95.8438 28.8906C94.9062 29.2031 93.8542 29.3594 92.6875 29.3594C91.9688 29.3594 91.3594 29.2969 90.8594 29.1719C90.3698 29.0469 89.974 28.8646 89.6719 28.625C89.3698 28.3854 89.151 28.0938 89.0156 27.75C88.8802 27.3958 88.8125 26.9896 88.8125 26.5312C88.8125 25.6458 88.9479 24.6927 89.2188 23.6719C89.4896 22.651 89.8594 21.5885 90.3281 20.4844L84.5312 23.875C84.4479 23.9271 84.3594 23.9531 84.2656 23.9531C84.1615 23.9531 84.0833 23.9115 84.0312 23.8281C83.9688 23.7448 83.9375 23.6406 83.9375 23.5156C83.9375 23.3698 83.9844 23.2083 84.0781 23.0312C84.1719 22.8542 84.3229 22.7031 84.5312 22.5781L91.1719 18.6562C91.7031 17.6042 92.2917 16.5625 92.9375 15.5312C93.5833 14.5 94.2552 13.5208 94.9531 12.5938C95.651 11.6562 96.3594 10.7865 97.0781 9.98438C97.8073 9.18229 98.5104 8.48958 99.1875 7.90625C99.875 7.32292 100.521 6.86458 101.125 6.53125C101.74 6.19792 102.286 6.03125 102.766 6.03125C103.578 6.03125 104.167 6.16667 104.531 6.4375C104.896 6.70833 105.078 7.07812 105.078 7.54688C105.078 7.96354 104.948 8.44271 104.688 8.98438C104.427 9.51562 104.057 10.0885 103.578 10.7031C103.109 11.3073 102.547 11.9375 101.891 12.5938C101.245 13.2396 100.531 13.8802 99.75 14.5156C98.9792 15.1406 98.151 15.75 97.2656 16.3438C96.3906 16.9375 95.4948 17.4792 94.5781 17.9688C94.776 17.9167 94.9688 17.8854 95.1562 17.875C95.3438 17.8542 95.5312 17.8438 95.7188 17.8438C96.4167 17.8438 97.0781 17.974 97.7031 18.2344C98.3385 18.4844 98.8906 18.8125 99.3594 19.2188C99.8385 19.6146 100.219 20.0521 100.5 20.5312C100.781 21.0104 100.922 21.474 100.922 21.9219C100.922 22.7031 100.818 23.4479 100.609 24.1562C100.401 24.8646 100.078 25.5208 99.6406 26.125L105.641 22.5781C105.745 22.5469 105.844 22.5312 105.938 22.5312C106.188 22.5312 106.312 22.6562 106.312 22.9062C106.312 23.2917 106.089 23.6146 105.641 23.875C105.411 24.0104 105.109 24.1927 104.734 24.4219C104.37 24.6406 103.969 24.8802 103.531 25.1406C103.094 25.401 102.641 25.6667 102.172 25.9375C101.703 26.1979 101.255 26.4427 100.828 26.6719C100.401 26.8906 100.01 27.0781 99.6562 27.2344C99.3021 27.3906 99.026 27.4844 98.8281 27.5156ZM98.5781 23.4688C98.5781 22.8854 98.4115 22.375 98.0781 21.9375C97.7552 21.4896 97.3281 21.099 96.7969 20.7656C96.2656 20.4219 95.6667 20.125 95 19.875C94.3333 19.625 93.6562 19.3958 92.9688 19.1875C92.4375 20.4167 92.0156 21.6198 91.7031 22.7969C91.401 23.974 91.25 25.1146 91.25 26.2188C91.25 26.75 91.3646 27.1823 91.5938 27.5156C91.8333 27.849 92.2083 28.0156 92.7188 28.0156C93.6667 28.0156 94.4635 27.9375 95.1094 27.7812C95.7656 27.6146 96.3177 27.3906 96.7656 27.1094C96.4948 26.8802 96.2969 26.6094 96.1719 26.2969C96.0469 25.974 95.9844 25.6615 95.9844 25.3594C95.9844 25.0156 96.099 24.7604 96.3281 24.5938C96.5573 24.4167 96.8333 24.3281 97.1562 24.3281C97.3646 24.3281 97.5781 24.3698 97.7969 24.4531C98.026 24.526 98.2344 24.6354 98.4219 24.7812C98.526 24.4062 98.5781 23.9688 98.5781 23.4688ZM102.906 6.95312C102.594 6.95312 102.224 7.07812 101.797 7.32812C101.37 7.56771 100.906 7.91146 100.406 8.35938C99.9167 8.79688 99.4062 9.31771 98.875 9.92188C98.3438 10.526 97.8177 11.1927 97.2969 11.9219C96.7865 12.6406 96.2917 13.4062 95.8125 14.2188C95.3333 15.0208 94.901 15.8438 94.5156 16.6875C94.9427 16.4375 95.4688 16.0885 96.0938 15.6406C96.7188 15.1927 97.3802 14.6927 98.0781 14.1406C98.776 13.5781 99.4688 12.9896 100.156 12.375C100.854 11.75 101.479 11.1458 102.031 10.5625C102.594 9.97917 103.047 9.4375 103.391 8.9375C103.734 8.4375 103.906 8.02083 103.906 7.6875C103.906 7.45833 103.828 7.28125 103.672 7.15625C103.516 7.02083 103.26 6.95312 102.906 6.95312ZM105.656 23.875C105.552 23.9479 105.432 23.9844 105.297 23.9844C105.161 23.9844 105.052 23.9479 104.969 23.875C104.885 23.7917 104.844 23.6875 104.844 23.5625C104.844 23.4271 104.906 23.276 105.031 23.1094C105.146 22.9323 105.354 22.7552 105.656 22.5781L109.609 20.25C109.901 19.4271 110.276 18.7188 110.734 18.125C111.203 17.5208 111.714 17.026 112.266 16.6406C112.828 16.2448 113.411 15.9531 114.016 15.7656C114.63 15.5677 115.224 15.4688 115.797 15.4688C116.38 15.4688 116.859 15.625 117.234 15.9375C117.62 16.2396 117.812 16.7135 117.812 17.3594C117.812 17.7552 117.667 18.1719 117.375 18.6094C117.094 19.0365 116.703 19.4635 116.203 19.8906C115.714 20.3073 115.135 20.6979 114.469 21.0625C113.802 21.4271 113.094 21.7344 112.344 21.9844C112.344 22.4844 112.333 22.9583 112.312 23.4062C112.302 23.8542 112.297 24.276 112.297 24.6719C112.297 25.0052 112.307 25.3125 112.328 25.5938C112.349 25.8646 112.391 26.099 112.453 26.2969C112.526 26.4844 112.62 26.6354 112.734 26.75C112.859 26.8542 113.016 26.9062 113.203 26.9062C113.495 26.9062 113.844 26.7917 114.25 26.5625C114.667 26.3229 115.188 26.0208 115.812 25.6562C116.375 25.3229 117.094 24.9062 117.969 24.4062C118.844 23.9062 119.911 23.2969 121.172 22.5781C121.214 22.5469 121.271 22.5312 121.344 22.5312C121.458 22.5312 121.557 22.5833 121.641 22.6875C121.734 22.7812 121.781 22.901 121.781 23.0469C121.781 23.1719 121.734 23.3073 121.641 23.4531C121.557 23.599 121.401 23.7396 121.172 23.875C120.141 24.4896 119.141 25.1146 118.172 25.75C117.203 26.375 116.286 26.9479 115.422 27.4688C114.568 27.9792 113.776 28.401 113.047 28.7344C112.318 29.0573 111.682 29.2188 111.141 29.2188C110.776 29.2188 110.453 29.1406 110.172 28.9844C109.901 28.8281 109.667 28.5781 109.469 28.2344C109.281 27.8906 109.135 27.4427 109.031 26.8906C108.938 26.3281 108.891 25.6458 108.891 24.8438C108.891 24.7188 108.896 24.5208 108.906 24.25C108.927 23.9688 108.953 23.6719 108.984 23.3594C109.026 23.0365 109.073 22.724 109.125 22.4219C109.177 22.1198 109.24 21.8854 109.312 21.7188C109.24 21.7604 109.13 21.8229 108.984 21.9062C108.849 21.9896 108.688 22.0885 108.5 22.2031C108.312 22.3073 108.115 22.4219 107.906 22.5469C107.698 22.6719 107.49 22.7969 107.281 22.9219L105.656 23.875ZM116.125 17.4844C116.146 17.4219 116.156 17.3542 116.156 17.2812C116.156 17.0208 116.109 16.8281 116.016 16.7031C115.932 16.5781 115.786 16.5156 115.578 16.5156C115.339 16.5156 115.062 16.6094 114.75 16.7969C114.438 16.974 114.13 17.2396 113.828 17.5938C113.536 17.9479 113.271 18.3906 113.031 18.9219C112.802 19.4531 112.646 20.0625 112.562 20.75C112.99 20.5312 113.406 20.2812 113.812 20C114.219 19.7083 114.583 19.4167 114.906 19.125C115.24 18.8229 115.51 18.5312 115.719 18.25C115.938 17.9583 116.073 17.7031 116.125 17.4844ZM131.688 19.0469C131.688 19.4844 131.719 19.8073 131.781 20.0156C131.844 20.224 131.911 20.4115 131.984 20.5781C132.068 20.7344 132.141 20.9115 132.203 21.1094C132.276 21.2969 132.312 21.5938 132.312 22C132.312 22.2812 132.281 22.599 132.219 22.9531C132.167 23.2969 132.062 23.6562 131.906 24.0312C131.75 24.3958 131.531 24.7604 131.25 25.125C130.969 25.4792 130.609 25.7969 130.172 26.0781L136.297 22.5781C136.37 22.5365 136.443 22.5156 136.516 22.5156C136.63 22.5156 136.729 22.5625 136.812 22.6562C136.906 22.7396 136.953 22.8542 136.953 23C136.953 23.1146 136.901 23.2552 136.797 23.4219C136.703 23.5885 136.536 23.7396 136.297 23.875C135.016 24.6042 133.911 25.2396 132.984 25.7812C132.068 26.3125 131.281 26.7708 130.625 27.1562C129.979 27.5417 129.448 27.8646 129.031 28.125C128.615 28.375 128.266 28.5833 127.984 28.75C127.484 29.0521 127.01 29.2552 126.562 29.3594C126.115 29.4635 125.672 29.5156 125.234 29.5156C124.901 29.5156 124.656 29.4583 124.5 29.3438C124.354 29.2292 124.281 29.1042 124.281 28.9688C124.292 28.8229 124.375 28.6927 124.531 28.5781C124.688 28.4531 124.911 28.3906 125.203 28.3906C125.714 28.3906 126.208 28.2188 126.688 27.875C127.167 27.5208 127.589 27.0469 127.953 26.4531C128.328 25.849 128.625 25.1458 128.844 24.3438C129.073 23.5417 129.188 22.6927 129.188 21.7969C129.188 21.6615 129.214 21.401 129.266 21.0156C129.328 20.6302 129.422 20.2135 129.547 19.7656C129.672 19.3177 129.833 18.8802 130.031 18.4531C130.24 18.026 130.484 17.7031 130.766 17.4844L121.188 23.875C121.083 23.9479 120.974 23.9844 120.859 23.9844C120.745 23.9844 120.651 23.9427 120.578 23.8594C120.505 23.776 120.469 23.6719 120.469 23.5469C120.469 23.401 120.526 23.2396 120.641 23.0625C120.745 22.8854 120.927 22.724 121.188 22.5781C122.865 21.4427 124.271 20.5 125.406 19.75C126.552 18.9896 127.484 18.375 128.203 17.9062L130.391 16.4219C130.714 16.2865 131.052 16.1823 131.406 16.1094C131.76 16.026 132.089 15.9844 132.391 15.9844C132.724 15.9844 132.995 16.0417 133.203 16.1562C133.422 16.2604 133.531 16.4323 133.531 16.6719C133.531 16.7552 133.432 16.8906 133.234 17.0781C133.047 17.2656 132.839 17.4792 132.609 17.7188C132.38 17.9479 132.167 18.1823 131.969 18.4219C131.781 18.6615 131.688 18.8698 131.688 19.0469ZM153.234 7.20312C152.641 7.20312 152.078 7.32812 151.547 7.57812C151.016 7.82812 150.51 8.17188 150.031 8.60938C149.562 9.04688 149.12 9.56771 148.703 10.1719C148.286 10.776 147.896 11.4271 147.531 12.125C147.167 12.8229 146.828 13.5573 146.516 14.3281C146.214 15.099 145.938 15.875 145.688 16.6562C147.094 15.6458 148.328 14.6875 149.391 13.7812C150.453 12.875 151.344 12.0469 152.062 11.2969C152.781 10.5469 153.318 9.88542 153.672 9.3125C154.036 8.72917 154.219 8.25521 154.219 7.89062C154.219 7.68229 154.151 7.51562 154.016 7.39062C153.891 7.26562 153.63 7.20312 153.234 7.20312ZM154.812 16.4219C155.062 16.5469 155.188 16.6979 155.188 16.875C155.188 17.1458 155.083 17.3958 154.875 17.625C154.677 17.8542 154.411 18.0625 154.078 18.25C153.755 18.4271 153.385 18.5833 152.969 18.7188C152.562 18.8542 152.151 18.9688 151.734 19.0625C151.328 19.1562 150.938 19.2292 150.562 19.2812C150.146 19.3333 149.833 19.3542 149.625 19.3438C148.812 19.3229 148.01 19.3073 147.219 19.2969L144.922 19.2656C144.609 20.4323 144.365 21.4323 144.188 22.2656C144.01 23.0885 143.875 23.8073 143.781 24.4219C143.698 25.026 143.646 25.5521 143.625 26C143.604 26.4479 143.594 26.8802 143.594 27.2969C143.594 27.526 143.625 27.7083 143.688 27.8438C143.75 27.9792 143.854 28.0469 144 28.0469C144.51 28.0469 145.073 27.875 145.688 27.5312C146.312 27.1875 147.01 26.75 147.781 26.2188L150.375 24.4531C151.792 23.4844 152.854 22.8594 153.562 22.5781C153.615 22.5573 153.719 22.5104 153.875 22.4375C153.958 22.4062 154.036 22.3906 154.109 22.3906C154.339 22.3906 154.453 22.5104 154.453 22.75C154.453 22.9062 154.385 23.0885 154.25 23.2969C154.104 23.4948 153.875 23.6875 153.562 23.875C151.969 24.8333 150.792 25.5833 150.031 26.125L147.359 28.0625C146.568 28.625 145.844 29.0729 145.188 29.4062C144.521 29.7396 143.849 29.9062 143.172 29.9062C142.589 29.9062 142.135 29.75 141.812 29.4375C141.5 29.125 141.266 28.7448 141.109 28.2969C140.964 27.8385 140.875 27.349 140.844 26.8281C140.812 26.3073 140.797 25.8438 140.797 25.4375C140.797 24.6458 140.839 23.8594 140.922 23.0781C141.016 22.2969 141.135 21.5469 141.281 20.8281L138.828 22.375L136.312 23.875C136.26 23.9062 136.203 23.9219 136.141 23.9219C136.026 23.9219 135.917 23.875 135.812 23.7812C135.708 23.6771 135.656 23.5521 135.656 23.4062C135.656 23.2917 135.703 23.1615 135.797 23.0156C135.891 22.8698 136.062 22.724 136.312 22.5781L139.078 21C139.953 20.4792 140.797 19.9531 141.609 19.4219L141.641 19.2812L139.641 19.3281C139.536 19.3281 139.438 19.3333 139.344 19.3438C139.25 19.3542 139.161 19.3594 139.078 19.3594C138.901 19.3594 138.755 19.3073 138.641 19.2031C138.536 19.0885 138.474 18.9635 138.453 18.8281C138.453 18.7135 138.542 18.6042 138.719 18.5C138.896 18.3958 139.146 18.3021 139.469 18.2188C139.792 18.125 140.177 18.0417 140.625 17.9688C141.073 17.8854 141.568 17.8125 142.109 17.75C142.734 15.7917 143.411 14.0938 144.141 12.6562C144.87 11.2188 145.688 10.0312 146.594 9.09375C147.51 8.15625 148.531 7.45833 149.656 7C150.781 6.54167 152.052 6.3125 153.469 6.3125C154.125 6.3125 154.599 6.41667 154.891 6.625C155.193 6.82292 155.344 7.10417 155.344 7.46875C155.344 7.96875 155.12 8.57292 154.672 9.28125C154.234 9.98958 153.615 10.776 152.812 11.6406C152.021 12.4948 151.068 13.4062 149.953 14.375C148.849 15.3333 147.625 16.3177 146.281 17.3281C146.948 17.2656 147.625 17.2083 148.312 17.1562L150.344 16.9844C151.01 16.9323 151.661 16.875 152.297 16.8125C152.943 16.75 153.557 16.6823 154.141 16.6094C154.255 16.5781 154.339 16.5365 154.391 16.4844C154.443 16.4219 154.531 16.3906 154.656 16.3906C154.698 16.3906 154.75 16.401 154.812 16.4219ZM162.938 23.875C162.865 23.9167 162.797 23.9375 162.734 23.9375C162.63 23.9375 162.547 23.8906 162.484 23.7969C162.422 23.7031 162.391 23.5885 162.391 23.4531C162.391 23.3073 162.432 23.1562 162.516 23C162.599 22.8333 162.74 22.6927 162.938 22.5781C164.417 21.7031 165.677 20.9323 166.719 20.2656C167.771 19.599 168.703 19.0417 169.516 18.5938C170.328 18.1354 171.068 17.7917 171.734 17.5625C172.411 17.3229 173.115 17.2031 173.844 17.2031C174.885 17.2031 175.661 17.349 176.172 17.6406C176.693 17.9219 176.953 18.3125 176.953 18.8125C176.953 19.1354 176.896 19.4219 176.781 19.6719C176.677 19.9219 176.531 20.1354 176.344 20.3125C176.167 20.4792 175.958 20.6094 175.719 20.7031C175.49 20.7865 175.255 20.8281 175.016 20.8281C174.828 20.8281 174.63 20.75 174.422 20.5938C174.224 20.4271 174.125 20.1719 174.125 19.8281C174.125 19.2031 174.052 18.7604 173.906 18.5C173.771 18.2396 173.583 18.1094 173.344 18.1094C173.115 18.1094 172.854 18.2188 172.562 18.4375C172.281 18.6562 171.99 18.9531 171.688 19.3281C171.385 19.7031 171.089 20.1354 170.797 20.625C170.505 21.1146 170.245 21.6302 170.016 22.1719C169.797 22.7135 169.615 23.2604 169.469 23.8125C169.333 24.3646 169.266 24.8906 169.266 25.3906C169.266 26.3281 169.474 27.0104 169.891 27.4375C170.307 27.8646 170.844 28.0781 171.5 28.0781C172.25 28.0781 173.047 27.8906 173.891 27.5156C174.734 27.1406 175.641 26.6771 176.609 26.125C177.578 25.5729 178.609 24.9792 179.703 24.3438C180.807 23.6979 181.995 23.1094 183.266 22.5781C183.391 22.5156 183.495 22.4844 183.578 22.4844C183.797 22.4844 183.906 22.6146 183.906 22.875C183.906 23.0208 183.854 23.1979 183.75 23.4062C183.656 23.6042 183.495 23.7604 183.266 23.875C182.661 24.1458 182.042 24.4792 181.406 24.875C180.771 25.2604 180.115 25.6719 179.438 26.1094C178.771 26.5365 178.083 26.9635 177.375 27.3906C176.667 27.8073 175.943 28.1875 175.203 28.5312C174.474 28.8646 173.729 29.1354 172.969 29.3438C172.208 29.5625 171.438 29.6719 170.656 29.6719C169.865 29.6719 169.193 29.5625 168.641 29.3438C168.089 29.125 167.641 28.8333 167.297 28.4688C166.953 28.0938 166.703 27.6615 166.547 27.1719C166.391 26.6823 166.312 26.1615 166.312 25.6094C166.312 25.1302 166.375 24.6406 166.5 24.1406C166.635 23.6302 166.818 23.1458 167.047 22.6875C167.276 22.2188 167.547 21.7865 167.859 21.3906C168.182 20.9948 168.526 20.6562 168.891 20.375L162.938 23.875ZM186.516 26.875C186.516 26.5208 186.531 26.1354 186.562 25.7188C186.604 25.2917 186.651 24.849 186.703 24.3906C186.766 23.9219 186.839 23.4531 186.922 22.9844C187.005 22.5052 187.094 22.0365 187.188 21.5781L183.281 23.875C183.177 23.9479 183.062 23.9844 182.938 23.9844C182.812 23.9844 182.708 23.9427 182.625 23.8594C182.531 23.776 182.484 23.6719 182.484 23.5469C182.484 23.401 182.547 23.25 182.672 23.0938C182.786 22.9271 182.99 22.7552 183.281 22.5781L187.344 20.0312C187.51 19.5521 187.75 18.9062 188.062 18.0938C188.375 17.2812 188.76 16.3802 189.219 15.3906C189.677 14.401 190.208 13.3542 190.812 12.25C191.417 11.1458 192.099 10.0521 192.859 8.96875C193.62 7.88542 194.453 6.85417 195.359 5.875C196.266 4.88542 197.245 4.01562 198.297 3.26562C199.359 2.51562 200.495 1.92188 201.703 1.48438C202.922 1.03646 204.219 0.8125 205.594 0.8125C206.76 0.8125 207.776 0.895833 208.641 1.0625C209.505 1.21875 210.219 1.44271 210.781 1.73438C211.344 2.02604 211.76 2.36979 212.031 2.76562C212.312 3.15104 212.453 3.57292 212.453 4.03125C212.453 4.75 212.141 5.50521 211.516 6.29688C210.901 7.07812 209.979 7.84375 208.75 8.59375L190.969 19.5469L190.031 25.5625C190.562 25.2396 191.094 24.9167 191.625 24.5938C192.156 24.2604 192.656 23.9427 193.125 23.6406C193.604 23.3385 194.036 23.0625 194.422 22.8125C194.818 22.5521 195.135 22.3333 195.375 22.1562C195.49 22.0521 195.641 21.9323 195.828 21.7969C196.026 21.6615 196.245 21.5365 196.484 21.4219C196.734 21.3073 197 21.2083 197.281 21.125C197.562 21.0417 197.854 21 198.156 21C198.375 21 198.594 21.026 198.812 21.0781C199.031 21.1198 199.224 21.224 199.391 21.3906C199.568 21.5573 199.708 21.7969 199.812 22.1094C199.927 22.4219 199.984 22.8438 199.984 23.375V27.4062C200.089 27.3438 200.281 27.2292 200.562 27.0625C200.854 26.8854 201.203 26.6771 201.609 26.4375C202.016 26.1979 202.458 25.9375 202.938 25.6562C203.427 25.375 203.917 25.0938 204.406 24.8125L208.188 22.5781C208.406 22.4531 208.594 22.3906 208.75 22.3906C208.99 22.3906 209.109 22.5104 209.109 22.75C209.109 22.9167 209.036 23.099 208.891 23.2969C208.755 23.4844 208.521 23.6771 208.188 23.875C207.042 24.5521 205.943 25.1979 204.891 25.8125C203.849 26.4271 202.901 26.974 202.047 27.4531C201.203 27.9323 200.484 28.3229 199.891 28.625C199.297 28.9167 198.88 29.0833 198.641 29.125C198.526 29.1458 198.406 29.1615 198.281 29.1719C198.156 29.1823 198.031 29.1875 197.906 29.1875C197.531 29.1875 197.224 29.1354 196.984 29.0312C196.755 28.9375 196.573 28.8073 196.438 28.6406C196.312 28.4635 196.224 28.2656 196.172 28.0469C196.13 27.8281 196.109 27.5938 196.109 27.3438C196.109 27.1042 196.151 26.8542 196.234 26.5938C196.328 26.3229 196.396 26.026 196.438 25.7031L196.875 22.2812C195.302 23.3854 193.865 24.3646 192.562 25.2188C192.104 25.5833 191.651 25.9323 191.203 26.2656C190.755 26.599 190.344 26.8958 189.969 27.1562C189.604 27.4167 189.286 27.625 189.016 27.7812C188.745 27.9271 188.562 28 188.469 28C188.271 28 188.057 27.9896 187.828 27.9688C187.599 27.9479 187.385 27.901 187.188 27.8281C187 27.7448 186.839 27.6302 186.703 27.4844C186.578 27.3281 186.516 27.125 186.516 26.875ZM191.25 17.5469C192.562 16.6615 193.927 15.75 195.344 14.8125C196.76 13.8646 198.193 12.9271 199.641 12C201.099 11.0729 202.547 10.1667 203.984 9.28125C205.432 8.38542 206.839 7.54688 208.203 6.76562C208.995 6.17188 209.604 5.61979 210.031 5.10938C210.458 4.59896 210.672 4.14062 210.672 3.73438C210.672 3.21354 210.276 2.80208 209.484 2.5C208.693 2.1875 207.438 2.03125 205.719 2.03125C204.917 2.03125 204.115 2.1875 203.312 2.5C202.51 2.80208 201.719 3.21875 200.938 3.75C200.167 4.28125 199.417 4.90625 198.688 5.625C197.958 6.33333 197.266 7.09375 196.609 7.90625C195.953 8.71875 195.339 9.5625 194.766 10.4375C194.193 11.3021 193.672 12.1562 193.203 13C192.745 13.8438 192.349 14.6562 192.016 15.4375C191.682 16.2188 191.427 16.9219 191.25 17.5469ZM222.859 16.2969C223.453 16.2969 223.979 16.4167 224.438 16.6562C224.906 16.8958 225.297 17.224 225.609 17.6406C225.932 18.0469 226.177 18.526 226.344 19.0781C226.51 19.6302 226.594 20.2188 226.594 20.8438C226.594 21.2083 226.552 21.6094 226.469 22.0469C226.385 22.4844 226.266 22.9375 226.109 23.4062C225.953 23.8646 225.76 24.3229 225.531 24.7812C225.312 25.2396 225.068 25.6615 224.797 26.0469C224.995 25.9427 225.234 25.8125 225.516 25.6562C225.797 25.5 226.094 25.3333 226.406 25.1562C226.729 24.9688 227.062 24.776 227.406 24.5781C227.76 24.3802 228.104 24.1875 228.438 24L230.859 22.5781C230.932 22.5365 231.031 22.5156 231.156 22.5156C231.396 22.5156 231.516 22.6406 231.516 22.8906C231.516 23.2344 231.297 23.5625 230.859 23.875C230.484 24.125 229.995 24.4375 229.391 24.8125C228.786 25.1875 228.13 25.5573 227.422 25.9219C226.724 26.276 226.01 26.5938 225.281 26.875C224.562 27.1458 223.891 27.3021 223.266 27.3438C222.453 27.9479 221.5 28.4375 220.406 28.8125C219.312 29.1771 218.036 29.3594 216.578 29.3594C215.859 29.3594 215.25 29.2969 214.75 29.1719C214.26 29.0469 213.865 28.8646 213.562 28.625C213.26 28.3854 213.042 28.0938 212.906 27.75C212.771 27.3958 212.703 26.9896 212.703 26.5312C212.703 25.8646 212.839 25.151 213.109 24.3906C213.38 23.6302 213.714 22.8906 214.109 22.1719C214.516 21.4427 214.948 20.7656 215.406 20.1406C215.865 19.5156 216.281 19 216.656 18.5938C216.323 18.8854 215.849 19.2344 215.234 19.6406C214.63 20.0469 213.943 20.4844 213.172 20.9531C212.411 21.4115 211.599 21.8906 210.734 22.3906C209.88 22.8906 209.031 23.3854 208.188 23.875C208.062 23.9271 207.948 23.9531 207.844 23.9531C207.708 23.9531 207.604 23.9167 207.531 23.8438C207.458 23.7604 207.422 23.6562 207.422 23.5312C207.422 23.3854 207.484 23.2344 207.609 23.0781C207.724 22.9115 207.917 22.7448 208.188 22.5781C209.771 21.651 211.12 20.8542 212.234 20.1875C213.349 19.5104 214.312 18.9375 215.125 18.4688C215.938 18 216.646 17.625 217.25 17.3438C217.854 17.0625 218.432 16.8438 218.984 16.6875C219.547 16.5312 220.13 16.4271 220.734 16.375C221.339 16.3229 222.047 16.2969 222.859 16.2969ZM216.609 28.0156C217.266 28.0156 217.906 27.8802 218.531 27.6094C219.156 27.3385 219.766 26.9688 220.359 26.5C220.224 26.3438 220.13 26.1667 220.078 25.9688C220.026 25.7708 220 25.5677 220 25.3594C220 24.9948 220.12 24.724 220.359 24.5469C220.599 24.3594 220.885 24.2656 221.219 24.2656C221.573 24.2656 221.917 24.3698 222.25 24.5781C222.583 24.3385 222.901 24.0521 223.203 23.7188C223.505 23.3854 223.766 23.0312 223.984 22.6562C224.214 22.2812 224.391 21.8958 224.516 21.5C224.651 21.1042 224.719 20.7188 224.719 20.3438C224.719 20.0208 224.656 19.7135 224.531 19.4219C224.417 19.1198 224.224 18.8594 223.953 18.6406C223.693 18.4219 223.344 18.25 222.906 18.125C222.479 17.9896 221.958 17.9219 221.344 17.9219C220.833 17.9219 220.323 18.0573 219.812 18.3281C219.312 18.599 218.828 18.9635 218.359 19.4219C217.901 19.8698 217.469 20.3854 217.062 20.9688C216.667 21.5417 216.323 22.1354 216.031 22.75C215.74 23.3646 215.51 23.9688 215.344 24.5625C215.177 25.1562 215.094 25.6979 215.094 26.1875C215.094 26.7292 215.214 27.1719 215.453 27.5156C215.693 27.849 216.078 28.0156 216.609 28.0156ZM248.438 23.875C246.823 24.8021 245.453 25.6094 244.328 26.2969C243.203 26.974 242.245 27.5365 241.453 27.9844C240.661 28.4219 239.99 28.75 239.438 28.9688C238.896 29.1771 238.401 29.2812 237.953 29.2812C237.516 29.2812 237.141 29.2292 236.828 29.125C236.526 29.0208 236.276 28.8802 236.078 28.7031C235.88 28.526 235.734 28.3125 235.641 28.0625C235.557 27.8125 235.516 27.5417 235.516 27.25C235.516 27.0312 235.562 26.8073 235.656 26.5781C235.75 26.349 235.865 26.1146 236 25.875C236.146 25.6354 236.297 25.3854 236.453 25.125C236.609 24.8542 236.755 24.5677 236.891 24.2656L239.266 18.9531L230.875 23.875C230.74 23.9271 230.646 23.9531 230.594 23.9531C230.469 23.9531 230.359 23.9115 230.266 23.8281C230.161 23.7448 230.109 23.6354 230.109 23.5C230.109 23.375 230.167 23.2344 230.281 23.0781C230.385 22.9219 230.583 22.7552 230.875 22.5781L234.922 20.2188C235.453 19.9062 235.99 19.5938 236.531 19.2812C237.073 18.9688 237.578 18.6771 238.047 18.4062C238.526 18.1354 238.953 17.8958 239.328 17.6875C239.714 17.4688 240.01 17.3021 240.219 17.1875H242.234C242.276 17.2188 242.312 17.2708 242.344 17.3438C242.375 17.4167 242.391 17.526 242.391 17.6719C242.391 17.9427 242.312 18.3281 242.156 18.8281C242 19.3177 241.802 19.8698 241.562 20.4844C241.333 21.099 241.073 21.7448 240.781 22.4219C240.5 23.0885 240.234 23.724 239.984 24.3281C239.734 24.9219 239.474 25.5156 239.203 26.1094C238.932 26.7031 238.661 27.3125 238.391 27.9375C238.672 27.9375 239.115 27.7969 239.719 27.5156C240.333 27.2344 241.073 26.8542 241.938 26.375C242.812 25.8854 243.797 25.3177 244.891 24.6719C245.995 24.0156 247.177 23.3177 248.438 22.5781C248.479 22.5365 248.557 22.5156 248.672 22.5156C248.797 22.5156 248.911 22.5573 249.016 22.6406C249.13 22.724 249.188 22.8385 249.188 22.9844C249.188 23.1094 249.13 23.25 249.016 23.4062C248.911 23.5521 248.719 23.7083 248.438 23.875ZM244.125 11.7188C244.188 11.7188 244.302 11.724 244.469 11.7344C244.646 11.7344 244.844 11.7448 245.062 11.7656C245.281 11.7865 245.51 11.8229 245.75 11.875C245.99 11.9167 246.208 11.9844 246.406 12.0781C246.604 12.1615 246.771 12.2708 246.906 12.4062C247.042 12.5417 247.115 12.7083 247.125 12.9062L244.859 14.625L243.828 15.1094C243.641 15.1094 243.495 15.0573 243.391 14.9531C243.286 14.849 243.208 14.7396 243.156 14.625L244.125 11.7188ZM248.438 23.875C248.365 23.9167 248.297 23.9375 248.234 23.9375C248.13 23.9375 248.047 23.8906 247.984 23.7969C247.922 23.7031 247.891 23.5885 247.891 23.4531C247.891 23.3073 247.932 23.1562 248.016 23C248.099 22.8333 248.24 22.6927 248.438 22.5781C249.917 21.7031 251.177 20.9323 252.219 20.2656C253.271 19.599 254.203 19.0417 255.016 18.5938C255.828 18.1354 256.568 17.7917 257.234 17.5625C257.911 17.3229 258.615 17.2031 259.344 17.2031C260.385 17.2031 261.161 17.349 261.672 17.6406C262.193 17.9219 262.453 18.3125 262.453 18.8125C262.453 19.1354 262.396 19.4219 262.281 19.6719C262.177 19.9219 262.031 20.1354 261.844 20.3125C261.667 20.4792 261.458 20.6094 261.219 20.7031C260.99 20.7865 260.755 20.8281 260.516 20.8281C260.328 20.8281 260.13 20.75 259.922 20.5938C259.724 20.4271 259.625 20.1719 259.625 19.8281C259.625 19.2031 259.552 18.7604 259.406 18.5C259.271 18.2396 259.083 18.1094 258.844 18.1094C258.615 18.1094 258.354 18.2188 258.062 18.4375C257.781 18.6562 257.49 18.9531 257.188 19.3281C256.885 19.7031 256.589 20.1354 256.297 20.625C256.005 21.1146 255.745 21.6302 255.516 22.1719C255.297 22.7135 255.115 23.2604 254.969 23.8125C254.833 24.3646 254.766 24.8906 254.766 25.3906C254.766 26.3281 254.974 27.0104 255.391 27.4375C255.807 27.8646 256.344 28.0781 257 28.0781C257.75 28.0781 258.547 27.8906 259.391 27.5156C260.234 27.1406 261.141 26.6771 262.109 26.125C263.078 25.5729 264.109 24.9792 265.203 24.3438C266.307 23.6979 267.495 23.1094 268.766 22.5781C268.891 22.5156 268.995 22.4844 269.078 22.4844C269.297 22.4844 269.406 22.6146 269.406 22.875C269.406 23.0208 269.354 23.1979 269.25 23.4062C269.156 23.6042 268.995 23.7604 268.766 23.875C268.161 24.1458 267.542 24.4792 266.906 24.875C266.271 25.2604 265.615 25.6719 264.938 26.1094C264.271 26.5365 263.583 26.9635 262.875 27.3906C262.167 27.8073 261.443 28.1875 260.703 28.5312C259.974 28.8646 259.229 29.1354 258.469 29.3438C257.708 29.5625 256.938 29.6719 256.156 29.6719C255.365 29.6719 254.693 29.5625 254.141 29.3438C253.589 29.125 253.141 28.8333 252.797 28.4688C252.453 28.0938 252.203 27.6615 252.047 27.1719C251.891 26.6823 251.812 26.1615 251.812 25.6094C251.812 25.1302 251.875 24.6406 252 24.1406C252.135 23.6302 252.318 23.1458 252.547 22.6875C252.776 22.2188 253.047 21.7865 253.359 21.3906C253.682 20.9948 254.026 20.6562 254.391 20.375L248.438 23.875ZM268.781 23.875C268.677 23.9479 268.557 23.9844 268.422 23.9844C268.286 23.9844 268.177 23.9479 268.094 23.875C268.01 23.7917 267.969 23.6875 267.969 23.5625C267.969 23.4271 268.031 23.276 268.156 23.1094C268.271 22.9323 268.479 22.7552 268.781 22.5781L272.734 20.25C273.026 19.4271 273.401 18.7188 273.859 18.125C274.328 17.5208 274.839 17.026 275.391 16.6406C275.953 16.2448 276.536 15.9531 277.141 15.7656C277.755 15.5677 278.349 15.4688 278.922 15.4688C279.505 15.4688 279.984 15.625 280.359 15.9375C280.745 16.2396 280.938 16.7135 280.938 17.3594C280.938 17.7552 280.792 18.1719 280.5 18.6094C280.219 19.0365 279.828 19.4635 279.328 19.8906C278.839 20.3073 278.26 20.6979 277.594 21.0625C276.927 21.4271 276.219 21.7344 275.469 21.9844C275.469 22.4844 275.458 22.9583 275.438 23.4062C275.427 23.8542 275.422 24.276 275.422 24.6719C275.422 25.0052 275.432 25.3125 275.453 25.5938C275.474 25.8646 275.516 26.099 275.578 26.2969C275.651 26.4844 275.745 26.6354 275.859 26.75C275.984 26.8542 276.141 26.9062 276.328 26.9062C276.62 26.9062 276.969 26.7917 277.375 26.5625C277.792 26.3229 278.312 26.0208 278.938 25.6562C279.5 25.3229 280.219 24.9062 281.094 24.4062C281.969 23.9062 283.036 23.2969 284.297 22.5781C284.339 22.5469 284.396 22.5312 284.469 22.5312C284.583 22.5312 284.682 22.5833 284.766 22.6875C284.859 22.7812 284.906 22.901 284.906 23.0469C284.906 23.1719 284.859 23.3073 284.766 23.4531C284.682 23.599 284.526 23.7396 284.297 23.875C283.266 24.4896 282.266 25.1146 281.297 25.75C280.328 26.375 279.411 26.9479 278.547 27.4688C277.693 27.9792 276.901 28.401 276.172 28.7344C275.443 29.0573 274.807 29.2188 274.266 29.2188C273.901 29.2188 273.578 29.1406 273.297 28.9844C273.026 28.8281 272.792 28.5781 272.594 28.2344C272.406 27.8906 272.26 27.4427 272.156 26.8906C272.062 26.3281 272.016 25.6458 272.016 24.8438C272.016 24.7188 272.021 24.5208 272.031 24.25C272.052 23.9688 272.078 23.6719 272.109 23.3594C272.151 23.0365 272.198 22.724 272.25 22.4219C272.302 22.1198 272.365 21.8854 272.438 21.7188C272.365 21.7604 272.255 21.8229 272.109 21.9062C271.974 21.9896 271.812 22.0885 271.625 22.2031C271.438 22.3073 271.24 22.4219 271.031 22.5469C270.823 22.6719 270.615 22.7969 270.406 22.9219L268.781 23.875ZM279.25 17.4844C279.271 17.4219 279.281 17.3542 279.281 17.2812C279.281 17.0208 279.234 16.8281 279.141 16.7031C279.057 16.5781 278.911 16.5156 278.703 16.5156C278.464 16.5156 278.188 16.6094 277.875 16.7969C277.562 16.974 277.255 17.2396 276.953 17.5938C276.661 17.9479 276.396 18.3906 276.156 18.9219C275.927 19.4531 275.771 20.0625 275.688 20.75C276.115 20.5312 276.531 20.2812 276.938 20C277.344 19.7083 277.708 19.4167 278.031 19.125C278.365 18.8229 278.635 18.5312 278.844 18.25C279.062 17.9583 279.198 17.7031 279.25 17.4844ZM305.734 15.4844C307.391 14.5365 308.875 13.6146 310.188 12.7188C311.51 11.8125 312.63 10.9427 313.547 10.1094C314.474 9.26562 315.182 8.45312 315.672 7.67188C316.161 6.89062 316.406 6.14062 316.406 5.42188C316.406 5.24479 316.385 5.05208 316.344 4.84375C316.302 4.625 316.193 4.42708 316.016 4.25C315.839 4.0625 315.568 3.90625 315.203 3.78125C314.849 3.65625 314.359 3.59375 313.734 3.59375C313.016 3.59375 312.349 3.78125 311.734 4.15625C311.13 4.52083 310.568 5.01562 310.047 5.64062C309.526 6.25521 309.047 6.96875 308.609 7.78125C308.182 8.59375 307.792 9.44271 307.438 10.3281C307.083 11.2031 306.766 12.0885 306.484 12.9844C306.203 13.8698 305.953 14.7031 305.734 15.4844ZM311.641 22.5781C311.776 22.526 311.87 22.5 311.922 22.5C312.047 22.5 312.146 22.5417 312.219 22.625C312.302 22.7083 312.344 22.8177 312.344 22.9531C312.344 23.099 312.292 23.2552 312.188 23.4219C312.083 23.5781 311.901 23.7292 311.641 23.875L307.625 26.4219C307.062 26.776 306.479 27.1458 305.875 27.5312C305.281 27.9167 304.688 28.3021 304.094 28.6875C303.51 29.0729 302.948 29.4427 302.406 29.7969C301.875 30.1615 301.391 30.4948 300.953 30.7969C300.453 32.9948 299.828 34.875 299.078 36.4375C298.339 38 297.557 39.2812 296.734 40.2812C295.922 41.2812 295.115 42.0104 294.312 42.4688C293.521 42.9375 292.828 43.1719 292.234 43.1719C291.703 43.1719 291.281 43.0052 290.969 42.6719C290.646 42.3385 290.484 41.8594 290.484 41.2344C290.484 40.7344 290.677 40.0781 291.062 39.2656C291.448 38.4635 291.984 37.5833 292.672 36.625C293.359 35.6667 294.167 34.6667 295.094 33.625C296.031 32.5938 297.047 31.5938 298.141 30.625C298.266 29.9688 298.443 29.2135 298.672 28.3594C298.901 27.5052 299.161 26.5885 299.453 25.6094C299.745 24.6302 300.057 23.6094 300.391 22.5469C300.724 21.4844 301.057 20.4167 301.391 19.3438L293.688 23.875C293.552 23.9271 293.458 23.9531 293.406 23.9531C293.271 23.9531 293.156 23.9115 293.062 23.8281C292.969 23.7448 292.922 23.6354 292.922 23.5C292.922 23.375 292.979 23.2344 293.094 23.0781C293.208 22.9219 293.406 22.7552 293.688 22.5781C294.448 22.1302 295.214 21.6823 295.984 21.2344C296.755 20.776 297.495 20.3385 298.203 19.9219C298.922 19.4948 299.589 19.1042 300.203 18.75C300.818 18.3854 301.344 18.0729 301.781 17.8125C301.781 17.8125 301.802 17.7083 301.844 17.5C301.875 17.3021 301.922 17.0365 301.984 16.7031C302.057 16.3594 302.146 15.9688 302.25 15.5312C302.354 15.0938 302.464 14.6458 302.578 14.1875C302.703 13.7292 302.833 13.276 302.969 12.8281C303.115 12.3698 303.266 11.9583 303.422 11.5938C303.693 10.9479 304.026 10.2812 304.422 9.59375C304.828 8.89583 305.281 8.22396 305.781 7.57812C306.281 6.92188 306.828 6.30729 307.422 5.73438C308.016 5.15104 308.646 4.64583 309.312 4.21875C309.979 3.78125 310.672 3.4375 311.391 3.1875C312.12 2.92708 312.865 2.79688 313.625 2.79688C314.385 2.79688 315.036 2.875 315.578 3.03125C316.12 3.17708 316.562 3.375 316.906 3.625C317.25 3.875 317.5 4.15625 317.656 4.46875C317.823 4.77083 317.906 5.07812 317.906 5.39062C317.906 6.22396 317.724 7.01562 317.359 7.76562C317.005 8.50521 316.521 9.21354 315.906 9.89062C315.302 10.5677 314.589 11.2135 313.766 11.8281C312.953 12.4427 312.089 13.0365 311.172 13.6094C310.266 14.1823 309.333 14.7396 308.375 15.2812C307.417 15.8125 306.484 16.3385 305.578 16.8594C305.182 18.0781 304.807 19.224 304.453 20.2969C304.109 21.3594 303.776 22.3698 303.453 23.3281C303.141 24.276 302.833 25.1823 302.531 26.0469C302.24 26.9115 301.948 27.75 301.656 28.5625C302.062 28.3125 302.516 28.0365 303.016 27.7344C303.516 27.4323 304.036 27.1198 304.578 26.7969C305.12 26.4635 305.672 26.1302 306.234 25.7969C306.797 25.4531 307.339 25.125 307.859 24.8125L311.641 22.5781ZM292.094 40.5625C292.125 41.0208 292.281 41.25 292.562 41.25C292.823 41.25 293.161 41.0625 293.578 40.6875C293.995 40.3125 294.438 39.776 294.906 39.0781C295.385 38.3802 295.859 37.5417 296.328 36.5625C296.797 35.5938 297.214 34.5052 297.578 33.2969C297.172 33.6823 296.75 34.099 296.312 34.5469C295.885 35.0052 295.469 35.4688 295.062 35.9375C294.656 36.4062 294.271 36.8698 293.906 37.3281C293.552 37.7865 293.24 38.2188 292.969 38.625C292.698 39.0417 292.484 39.4167 292.328 39.75C292.172 40.0833 292.094 40.3542 292.094 40.5625ZM326.328 16.2969C326.922 16.2969 327.448 16.4167 327.906 16.6562C328.375 16.8958 328.766 17.224 329.078 17.6406C329.401 18.0469 329.646 18.526 329.812 19.0781C329.979 19.6302 330.062 20.2188 330.062 20.8438C330.062 21.2083 330.021 21.6094 329.938 22.0469C329.854 22.4844 329.734 22.9375 329.578 23.4062C329.422 23.8646 329.229 24.3229 329 24.7812C328.781 25.2396 328.536 25.6615 328.266 26.0469C328.464 25.9427 328.703 25.8125 328.984 25.6562C329.266 25.5 329.562 25.3333 329.875 25.1562C330.198 24.9688 330.531 24.776 330.875 24.5781C331.229 24.3802 331.573 24.1875 331.906 24L334.328 22.5781C334.401 22.5365 334.5 22.5156 334.625 22.5156C334.865 22.5156 334.984 22.6406 334.984 22.8906C334.984 23.2344 334.766 23.5625 334.328 23.875C333.953 24.125 333.464 24.4375 332.859 24.8125C332.255 25.1875 331.599 25.5573 330.891 25.9219C330.193 26.276 329.479 26.5938 328.75 26.875C328.031 27.1458 327.359 27.3021 326.734 27.3438C325.922 27.9479 324.969 28.4375 323.875 28.8125C322.781 29.1771 321.505 29.3594 320.047 29.3594C319.328 29.3594 318.719 29.2969 318.219 29.1719C317.729 29.0469 317.333 28.8646 317.031 28.625C316.729 28.3854 316.51 28.0938 316.375 27.75C316.24 27.3958 316.172 26.9896 316.172 26.5312C316.172 25.8646 316.307 25.151 316.578 24.3906C316.849 23.6302 317.182 22.8906 317.578 22.1719C317.984 21.4427 318.417 20.7656 318.875 20.1406C319.333 19.5156 319.75 19 320.125 18.5938C319.792 18.8854 319.318 19.2344 318.703 19.6406C318.099 20.0469 317.411 20.4844 316.641 20.9531C315.88 21.4115 315.068 21.8906 314.203 22.3906C313.349 22.8906 312.5 23.3854 311.656 23.875C311.531 23.9271 311.417 23.9531 311.312 23.9531C311.177 23.9531 311.073 23.9167 311 23.8438C310.927 23.7604 310.891 23.6562 310.891 23.5312C310.891 23.3854 310.953 23.2344 311.078 23.0781C311.193 22.9115 311.385 22.7448 311.656 22.5781C313.24 21.651 314.589 20.8542 315.703 20.1875C316.818 19.5104 317.781 18.9375 318.594 18.4688C319.406 18 320.115 17.625 320.719 17.3438C321.323 17.0625 321.901 16.8438 322.453 16.6875C323.016 16.5312 323.599 16.4271 324.203 16.375C324.807 16.3229 325.516 16.2969 326.328 16.2969ZM320.078 28.0156C320.734 28.0156 321.375 27.8802 322 27.6094C322.625 27.3385 323.234 26.9688 323.828 26.5C323.693 26.3438 323.599 26.1667 323.547 25.9688C323.495 25.7708 323.469 25.5677 323.469 25.3594C323.469 24.9948 323.589 24.724 323.828 24.5469C324.068 24.3594 324.354 24.2656 324.688 24.2656C325.042 24.2656 325.385 24.3698 325.719 24.5781C326.052 24.3385 326.37 24.0521 326.672 23.7188C326.974 23.3854 327.234 23.0312 327.453 22.6562C327.682 22.2812 327.859 21.8958 327.984 21.5C328.12 21.1042 328.188 20.7188 328.188 20.3438C328.188 20.0208 328.125 19.7135 328 19.4219C327.885 19.1198 327.693 18.8594 327.422 18.6406C327.161 18.4219 326.812 18.25 326.375 18.125C325.948 17.9896 325.427 17.9219 324.812 17.9219C324.302 17.9219 323.792 18.0573 323.281 18.3281C322.781 18.599 322.297 18.9635 321.828 19.4219C321.37 19.8698 320.938 20.3854 320.531 20.9688C320.135 21.5417 319.792 22.1354 319.5 22.75C319.208 23.3646 318.979 23.9688 318.812 24.5625C318.646 25.1562 318.562 25.6979 318.562 26.1875C318.562 26.7292 318.682 27.1719 318.922 27.5156C319.161 27.849 319.547 28.0156 320.078 28.0156ZM351.859 17.7344C351.859 17.9948 351.812 18.3021 351.719 18.6562C351.625 19 351.505 19.3698 351.359 19.7656C351.214 20.151 351.057 20.5469 350.891 20.9531C350.724 21.3594 350.568 21.7552 350.422 22.1406C350.276 22.5156 350.156 22.8698 350.062 23.2031C349.969 23.5365 349.922 23.8177 349.922 24.0469C349.922 24.2448 349.964 24.401 350.047 24.5156C350.141 24.6302 350.286 24.6875 350.484 24.6875C350.63 24.6875 350.833 24.6354 351.094 24.5312C351.365 24.4167 351.677 24.2656 352.031 24.0781C352.396 23.8802 352.792 23.6562 353.219 23.4062C353.656 23.1458 354.115 22.8698 354.594 22.5781C354.698 22.5156 354.802 22.4844 354.906 22.4844C355.021 22.4844 355.12 22.526 355.203 22.6094C355.297 22.6927 355.344 22.7969 355.344 22.9219C355.344 23.0573 355.286 23.2031 355.172 23.3594C355.057 23.5052 354.865 23.6771 354.594 23.875C353.24 24.8854 352 25.6667 350.875 26.2188C349.76 26.7708 348.87 27.0469 348.203 27.0469C347.661 27.0469 347.234 26.9635 346.922 26.7969C346.609 26.6302 346.453 26.3698 346.453 26.0156C346.453 25.6823 346.594 25.2604 346.875 24.75C347.167 24.2396 347.641 23.6354 348.297 22.9375C348.547 22.5208 348.745 22.0677 348.891 21.5781C349.036 21.0781 349.141 20.5938 349.203 20.125C349.276 19.6458 349.323 19.2083 349.344 18.8125C349.365 18.4062 349.375 18.0833 349.375 17.8438C349.375 17.4479 349.307 17.1458 349.172 16.9375C349.047 16.7188 348.833 16.6094 348.531 16.6094C348.198 16.6094 347.87 16.7604 347.547 17.0625C347.234 17.3542 346.917 17.7604 346.594 18.2812C346.281 18.8021 345.969 19.4167 345.656 20.125C345.344 20.8333 345.021 21.599 344.688 22.4219C344.365 23.2448 344.031 24.1042 343.688 25C343.344 25.8958 342.984 26.7969 342.609 27.7031C342.547 27.8802 342.469 28.0625 342.375 28.25C342.281 28.4375 342.172 28.6146 342.047 28.7812C341.932 28.9375 341.797 29.0677 341.641 29.1719C341.495 29.276 341.339 29.3281 341.172 29.3281C340.776 29.3281 340.479 29.2396 340.281 29.0625C340.083 28.8854 339.984 28.5938 339.984 28.1875C339.984 28.0729 339.99 27.9531 340 27.8281C340.021 27.7031 340.073 27.5573 340.156 27.3906L343.172 21.3438C343.568 20.3229 343.99 19.4792 344.438 18.8125C344.896 18.1458 345.307 17.6094 345.672 17.2031C344.818 17.7135 343.964 18.224 343.109 18.7344C342.255 19.2448 341.432 19.7396 340.641 20.2188C339.849 20.6875 339.099 21.1354 338.391 21.5625C337.693 21.9792 337.068 22.349 336.516 22.6719C335.964 22.9948 335.5 23.2604 335.125 23.4688C334.75 23.6771 334.49 23.8125 334.344 23.875C334.26 23.9271 334.172 23.9531 334.078 23.9531C333.964 23.9531 333.87 23.9115 333.797 23.8281C333.714 23.7448 333.672 23.6354 333.672 23.5C333.672 23.3542 333.724 23.1979 333.828 23.0312C333.922 22.8542 334.094 22.6927 334.344 22.5469L338.516 20.1094C339.057 19.7865 339.604 19.4635 340.156 19.1406C340.708 18.8073 341.224 18.5 341.703 18.2188C342.193 17.9375 342.625 17.6875 343 17.4688C343.375 17.25 343.661 17.0833 343.859 16.9688C344.359 16.6771 344.844 16.4271 345.312 16.2188C345.792 16.0104 346.266 15.8385 346.734 15.7031C347.203 15.5677 347.677 15.4635 348.156 15.3906C348.646 15.3177 349.156 15.2656 349.688 15.2344C349.917 15.2344 350.156 15.3073 350.406 15.4531C350.667 15.5885 350.901 15.776 351.109 16.0156C351.328 16.2448 351.505 16.5104 351.641 16.8125C351.786 17.1042 351.859 17.4115 351.859 17.7344ZM378.266 27.5156C378.161 27.5365 378.062 27.5521 377.969 27.5625C377.885 27.5625 377.802 27.5677 377.719 27.5781C377.031 28.1406 376.219 28.5781 375.281 28.8906C374.344 29.2031 373.292 29.3594 372.125 29.3594C371.406 29.3594 370.797 29.2969 370.297 29.1719C369.807 29.0469 369.411 28.8646 369.109 28.625C368.807 28.3854 368.589 28.0938 368.453 27.75C368.318 27.3958 368.25 26.9896 368.25 26.5312C368.25 25.6458 368.385 24.6927 368.656 23.6719C368.927 22.651 369.297 21.5885 369.766 20.4844L363.969 23.875C363.885 23.9271 363.797 23.9531 363.703 23.9531C363.599 23.9531 363.521 23.9115 363.469 23.8281C363.406 23.7448 363.375 23.6406 363.375 23.5156C363.375 23.3698 363.422 23.2083 363.516 23.0312C363.609 22.8542 363.76 22.7031 363.969 22.5781L370.609 18.6562C371.141 17.6042 371.729 16.5625 372.375 15.5312C373.021 14.5 373.693 13.5208 374.391 12.5938C375.089 11.6562 375.797 10.7865 376.516 9.98438C377.245 9.18229 377.948 8.48958 378.625 7.90625C379.312 7.32292 379.958 6.86458 380.562 6.53125C381.177 6.19792 381.724 6.03125 382.203 6.03125C383.016 6.03125 383.604 6.16667 383.969 6.4375C384.333 6.70833 384.516 7.07812 384.516 7.54688C384.516 7.96354 384.385 8.44271 384.125 8.98438C383.865 9.51562 383.495 10.0885 383.016 10.7031C382.547 11.3073 381.984 11.9375 381.328 12.5938C380.682 13.2396 379.969 13.8802 379.188 14.5156C378.417 15.1406 377.589 15.75 376.703 16.3438C375.828 16.9375 374.932 17.4792 374.016 17.9688C374.214 17.9167 374.406 17.8854 374.594 17.875C374.781 17.8542 374.969 17.8438 375.156 17.8438C375.854 17.8438 376.516 17.974 377.141 18.2344C377.776 18.4844 378.328 18.8125 378.797 19.2188C379.276 19.6146 379.656 20.0521 379.938 20.5312C380.219 21.0104 380.359 21.474 380.359 21.9219C380.359 22.7031 380.255 23.4479 380.047 24.1562C379.839 24.8646 379.516 25.5208 379.078 26.125L385.078 22.5781C385.182 22.5469 385.281 22.5312 385.375 22.5312C385.625 22.5312 385.75 22.6562 385.75 22.9062C385.75 23.2917 385.526 23.6146 385.078 23.875C384.849 24.0104 384.547 24.1927 384.172 24.4219C383.807 24.6406 383.406 24.8802 382.969 25.1406C382.531 25.401 382.078 25.6667 381.609 25.9375C381.141 26.1979 380.693 26.4427 380.266 26.6719C379.839 26.8906 379.448 27.0781 379.094 27.2344C378.74 27.3906 378.464 27.4844 378.266 27.5156ZM378.016 23.4688C378.016 22.8854 377.849 22.375 377.516 21.9375C377.193 21.4896 376.766 21.099 376.234 20.7656C375.703 20.4219 375.104 20.125 374.438 19.875C373.771 19.625 373.094 19.3958 372.406 19.1875C371.875 20.4167 371.453 21.6198 371.141 22.7969C370.839 23.974 370.688 25.1146 370.688 26.2188C370.688 26.75 370.802 27.1823 371.031 27.5156C371.271 27.849 371.646 28.0156 372.156 28.0156C373.104 28.0156 373.901 27.9375 374.547 27.7812C375.203 27.6146 375.755 27.3906 376.203 27.1094C375.932 26.8802 375.734 26.6094 375.609 26.2969C375.484 25.974 375.422 25.6615 375.422 25.3594C375.422 25.0156 375.536 24.7604 375.766 24.5938C375.995 24.4167 376.271 24.3281 376.594 24.3281C376.802 24.3281 377.016 24.3698 377.234 24.4531C377.464 24.526 377.672 24.6354 377.859 24.7812C377.964 24.4062 378.016 23.9688 378.016 23.4688ZM382.344 6.95312C382.031 6.95312 381.661 7.07812 381.234 7.32812C380.807 7.56771 380.344 7.91146 379.844 8.35938C379.354 8.79688 378.844 9.31771 378.312 9.92188C377.781 10.526 377.255 11.1927 376.734 11.9219C376.224 12.6406 375.729 13.4062 375.25 14.2188C374.771 15.0208 374.339 15.8438 373.953 16.6875C374.38 16.4375 374.906 16.0885 375.531 15.6406C376.156 15.1927 376.818 14.6927 377.516 14.1406C378.214 13.5781 378.906 12.9896 379.594 12.375C380.292 11.75 380.917 11.1458 381.469 10.5625C382.031 9.97917 382.484 9.4375 382.828 8.9375C383.172 8.4375 383.344 8.02083 383.344 7.6875C383.344 7.45833 383.266 7.28125 383.109 7.15625C382.953 7.02083 382.698 6.95312 382.344 6.95312ZM385.094 23.875C384.99 23.9479 384.87 23.9844 384.734 23.9844C384.599 23.9844 384.49 23.9479 384.406 23.875C384.323 23.7917 384.281 23.6875 384.281 23.5625C384.281 23.4271 384.344 23.276 384.469 23.1094C384.583 22.9323 384.792 22.7552 385.094 22.5781L389.047 20.25C389.339 19.4271 389.714 18.7188 390.172 18.125C390.641 17.5208 391.151 17.026 391.703 16.6406C392.266 16.2448 392.849 15.9531 393.453 15.7656C394.068 15.5677 394.661 15.4688 395.234 15.4688C395.818 15.4688 396.297 15.625 396.672 15.9375C397.057 16.2396 397.25 16.7135 397.25 17.3594C397.25 17.7552 397.104 18.1719 396.812 18.6094C396.531 19.0365 396.141 19.4635 395.641 19.8906C395.151 20.3073 394.573 20.6979 393.906 21.0625C393.24 21.4271 392.531 21.7344 391.781 21.9844C391.781 22.4844 391.771 22.9583 391.75 23.4062C391.74 23.8542 391.734 24.276 391.734 24.6719C391.734 25.0052 391.745 25.3125 391.766 25.5938C391.786 25.8646 391.828 26.099 391.891 26.2969C391.964 26.4844 392.057 26.6354 392.172 26.75C392.297 26.8542 392.453 26.9062 392.641 26.9062C392.932 26.9062 393.281 26.7917 393.688 26.5625C394.104 26.3229 394.625 26.0208 395.25 25.6562C395.812 25.3229 396.531 24.9062 397.406 24.4062C398.281 23.9062 399.349 23.2969 400.609 22.5781C400.651 22.5469 400.708 22.5312 400.781 22.5312C400.896 22.5312 400.995 22.5833 401.078 22.6875C401.172 22.7812 401.219 22.901 401.219 23.0469C401.219 23.1719 401.172 23.3073 401.078 23.4531C400.995 23.599 400.839 23.7396 400.609 23.875C399.578 24.4896 398.578 25.1146 397.609 25.75C396.641 26.375 395.724 26.9479 394.859 27.4688C394.005 27.9792 393.214 28.401 392.484 28.7344C391.755 29.0573 391.12 29.2188 390.578 29.2188C390.214 29.2188 389.891 29.1406 389.609 28.9844C389.339 28.8281 389.104 28.5781 388.906 28.2344C388.719 27.8906 388.573 27.4427 388.469 26.8906C388.375 26.3281 388.328 25.6458 388.328 24.8438C388.328 24.7188 388.333 24.5208 388.344 24.25C388.365 23.9688 388.391 23.6719 388.422 23.3594C388.464 23.0365 388.51 22.724 388.562 22.4219C388.615 22.1198 388.677 21.8854 388.75 21.7188C388.677 21.7604 388.568 21.8229 388.422 21.9062C388.286 21.9896 388.125 22.0885 387.938 22.2031C387.75 22.3073 387.552 22.4219 387.344 22.5469C387.135 22.6719 386.927 22.7969 386.719 22.9219L385.094 23.875ZM395.562 17.4844C395.583 17.4219 395.594 17.3542 395.594 17.2812C395.594 17.0208 395.547 16.8281 395.453 16.7031C395.37 16.5781 395.224 16.5156 395.016 16.5156C394.776 16.5156 394.5 16.6094 394.188 16.7969C393.875 16.974 393.568 17.2396 393.266 17.5938C392.974 17.9479 392.708 18.3906 392.469 18.9219C392.24 19.4531 392.083 20.0625 392 20.75C392.427 20.5312 392.844 20.2812 393.25 20C393.656 19.7083 394.021 19.4167 394.344 19.125C394.677 18.8229 394.948 18.5312 395.156 18.25C395.375 17.9583 395.51 17.7031 395.562 17.4844ZM417.547 7.20312C416.953 7.20312 416.391 7.32812 415.859 7.57812C415.328 7.82812 414.823 8.17188 414.344 8.60938C413.875 9.04688 413.432 9.56771 413.016 10.1719C412.599 10.776 412.208 11.4271 411.844 12.125C411.479 12.8229 411.141 13.5573 410.828 14.3281C410.526 15.099 410.25 15.875 410 16.6562C411.406 15.6458 412.641 14.6875 413.703 13.7812C414.766 12.875 415.656 12.0469 416.375 11.2969C417.094 10.5469 417.63 9.88542 417.984 9.3125C418.349 8.72917 418.531 8.25521 418.531 7.89062C418.531 7.68229 418.464 7.51562 418.328 7.39062C418.203 7.26562 417.943 7.20312 417.547 7.20312ZM419.125 16.4219C419.375 16.5469 419.5 16.6979 419.5 16.875C419.5 17.1458 419.396 17.3958 419.188 17.625C418.99 17.8542 418.724 18.0625 418.391 18.25C418.068 18.4271 417.698 18.5833 417.281 18.7188C416.875 18.8542 416.464 18.9688 416.047 19.0625C415.641 19.1562 415.25 19.2292 414.875 19.2812C414.458 19.3333 414.146 19.3542 413.938 19.3438C413.125 19.3229 412.323 19.3073 411.531 19.2969L409.234 19.2656C408.922 20.4323 408.677 21.4323 408.5 22.2656C408.323 23.0885 408.188 23.8073 408.094 24.4219C408.01 25.026 407.958 25.5521 407.938 26C407.917 26.4479 407.906 26.8802 407.906 27.2969C407.906 27.526 407.938 27.7083 408 27.8438C408.062 27.9792 408.167 28.0469 408.312 28.0469C408.823 28.0469 409.385 27.875 410 27.5312C410.625 27.1875 411.323 26.75 412.094 26.2188L414.688 24.4531C416.104 23.4844 417.167 22.8594 417.875 22.5781C417.927 22.5573 418.031 22.5104 418.188 22.4375C418.271 22.4062 418.349 22.3906 418.422 22.3906C418.651 22.3906 418.766 22.5104 418.766 22.75C418.766 22.9062 418.698 23.0885 418.562 23.2969C418.417 23.4948 418.188 23.6875 417.875 23.875C416.281 24.8333 415.104 25.5833 414.344 26.125L411.672 28.0625C410.88 28.625 410.156 29.0729 409.5 29.4062C408.833 29.7396 408.161 29.9062 407.484 29.9062C406.901 29.9062 406.448 29.75 406.125 29.4375C405.812 29.125 405.578 28.7448 405.422 28.2969C405.276 27.8385 405.188 27.349 405.156 26.8281C405.125 26.3073 405.109 25.8438 405.109 25.4375C405.109 24.6458 405.151 23.8594 405.234 23.0781C405.328 22.2969 405.448 21.5469 405.594 20.8281L403.141 22.375L400.625 23.875C400.573 23.9062 400.516 23.9219 400.453 23.9219C400.339 23.9219 400.229 23.875 400.125 23.7812C400.021 23.6771 399.969 23.5521 399.969 23.4062C399.969 23.2917 400.016 23.1615 400.109 23.0156C400.203 22.8698 400.375 22.724 400.625 22.5781L403.391 21C404.266 20.4792 405.109 19.9531 405.922 19.4219L405.953 19.2812L403.953 19.3281C403.849 19.3281 403.75 19.3333 403.656 19.3438C403.562 19.3542 403.474 19.3594 403.391 19.3594C403.214 19.3594 403.068 19.3073 402.953 19.2031C402.849 19.0885 402.786 18.9635 402.766 18.8281C402.766 18.7135 402.854 18.6042 403.031 18.5C403.208 18.3958 403.458 18.3021 403.781 18.2188C404.104 18.125 404.49 18.0417 404.938 17.9688C405.385 17.8854 405.88 17.8125 406.422 17.75C407.047 15.7917 407.724 14.0938 408.453 12.6562C409.182 11.2188 410 10.0312 410.906 9.09375C411.823 8.15625 412.844 7.45833 413.969 7C415.094 6.54167 416.365 6.3125 417.781 6.3125C418.438 6.3125 418.911 6.41667 419.203 6.625C419.505 6.82292 419.656 7.10417 419.656 7.46875C419.656 7.96875 419.432 8.57292 418.984 9.28125C418.547 9.98958 417.927 10.776 417.125 11.6406C416.333 12.4948 415.38 13.4062 414.266 14.375C413.161 15.3333 411.938 16.3177 410.594 17.3281C411.26 17.2656 411.938 17.2083 412.625 17.1562L414.656 16.9844C415.323 16.9323 415.974 16.875 416.609 16.8125C417.255 16.75 417.87 16.6823 418.453 16.6094C418.568 16.5781 418.651 16.5365 418.703 16.4844C418.755 16.4219 418.844 16.3906 418.969 16.3906C419.01 16.3906 419.062 16.401 419.125 16.4219ZM434.797 7.20312C434.203 7.20312 433.641 7.32812 433.109 7.57812C432.578 7.82812 432.073 8.17188 431.594 8.60938C431.125 9.04688 430.682 9.56771 430.266 10.1719C429.849 10.776 429.458 11.4271 429.094 12.125C428.729 12.8229 428.391 13.5573 428.078 14.3281C427.776 15.099 427.5 15.875 427.25 16.6562C428.656 15.6458 429.891 14.6875 430.953 13.7812C432.016 12.875 432.906 12.0469 433.625 11.2969C434.344 10.5469 434.88 9.88542 435.234 9.3125C435.599 8.72917 435.781 8.25521 435.781 7.89062C435.781 7.68229 435.714 7.51562 435.578 7.39062C435.453 7.26562 435.193 7.20312 434.797 7.20312ZM436.375 16.4219C436.625 16.5469 436.75 16.6979 436.75 16.875C436.75 17.1458 436.646 17.3958 436.438 17.625C436.24 17.8542 435.974 18.0625 435.641 18.25C435.318 18.4271 434.948 18.5833 434.531 18.7188C434.125 18.8542 433.714 18.9688 433.297 19.0625C432.891 19.1562 432.5 19.2292 432.125 19.2812C431.708 19.3333 431.396 19.3542 431.188 19.3438C430.375 19.3229 429.573 19.3073 428.781 19.2969L426.484 19.2656C426.172 20.4323 425.927 21.4323 425.75 22.2656C425.573 23.0885 425.438 23.8073 425.344 24.4219C425.26 25.026 425.208 25.5521 425.188 26C425.167 26.4479 425.156 26.8802 425.156 27.2969C425.156 27.526 425.188 27.7083 425.25 27.8438C425.312 27.9792 425.417 28.0469 425.562 28.0469C426.073 28.0469 426.635 27.875 427.25 27.5312C427.875 27.1875 428.573 26.75 429.344 26.2188L431.938 24.4531C433.354 23.4844 434.417 22.8594 435.125 22.5781C435.177 22.5573 435.281 22.5104 435.438 22.4375C435.521 22.4062 435.599 22.3906 435.672 22.3906C435.901 22.3906 436.016 22.5104 436.016 22.75C436.016 22.9062 435.948 23.0885 435.812 23.2969C435.667 23.4948 435.438 23.6875 435.125 23.875C433.531 24.8333 432.354 25.5833 431.594 26.125L428.922 28.0625C428.13 28.625 427.406 29.0729 426.75 29.4062C426.083 29.7396 425.411 29.9062 424.734 29.9062C424.151 29.9062 423.698 29.75 423.375 29.4375C423.062 29.125 422.828 28.7448 422.672 28.2969C422.526 27.8385 422.438 27.349 422.406 26.8281C422.375 26.3073 422.359 25.8438 422.359 25.4375C422.359 24.6458 422.401 23.8594 422.484 23.0781C422.578 22.2969 422.698 21.5469 422.844 20.8281L420.391 22.375L417.875 23.875C417.823 23.9062 417.766 23.9219 417.703 23.9219C417.589 23.9219 417.479 23.875 417.375 23.7812C417.271 23.6771 417.219 23.5521 417.219 23.4062C417.219 23.2917 417.266 23.1615 417.359 23.0156C417.453 22.8698 417.625 22.724 417.875 22.5781L420.641 21C421.516 20.4792 422.359 19.9531 423.172 19.4219L423.203 19.2812L421.203 19.3281C421.099 19.3281 421 19.3333 420.906 19.3438C420.812 19.3542 420.724 19.3594 420.641 19.3594C420.464 19.3594 420.318 19.3073 420.203 19.2031C420.099 19.0885 420.036 18.9635 420.016 18.8281C420.016 18.7135 420.104 18.6042 420.281 18.5C420.458 18.3958 420.708 18.3021 421.031 18.2188C421.354 18.125 421.74 18.0417 422.188 17.9688C422.635 17.8854 423.13 17.8125 423.672 17.75C424.297 15.7917 424.974 14.0938 425.703 12.6562C426.432 11.2188 427.25 10.0312 428.156 9.09375C429.073 8.15625 430.094 7.45833 431.219 7C432.344 6.54167 433.615 6.3125 435.031 6.3125C435.688 6.3125 436.161 6.41667 436.453 6.625C436.755 6.82292 436.906 7.10417 436.906 7.46875C436.906 7.96875 436.682 8.57292 436.234 9.28125C435.797 9.98958 435.177 10.776 434.375 11.6406C433.583 12.4948 432.63 13.4062 431.516 14.375C430.411 15.3333 429.188 16.3177 427.844 17.3281C428.51 17.2656 429.188 17.2083 429.875 17.1562L431.906 16.9844C432.573 16.9323 433.224 16.875 433.859 16.8125C434.505 16.75 435.12 16.6823 435.703 16.6094C435.818 16.5781 435.901 16.5365 435.953 16.4844C436.005 16.4219 436.094 16.3906 436.219 16.3906C436.26 16.3906 436.312 16.401 436.375 16.4219ZM435.125 23.875C435.021 23.9479 434.901 23.9844 434.766 23.9844C434.63 23.9844 434.521 23.9479 434.438 23.875C434.354 23.7917 434.312 23.6875 434.312 23.5625C434.312 23.4271 434.375 23.276 434.5 23.1094C434.615 22.9323 434.823 22.7552 435.125 22.5781L439.078 20.25C439.37 19.4271 439.745 18.7188 440.203 18.125C440.672 17.5208 441.182 17.026 441.734 16.6406C442.297 16.2448 442.88 15.9531 443.484 15.7656C444.099 15.5677 444.693 15.4688 445.266 15.4688C445.849 15.4688 446.328 15.625 446.703 15.9375C447.089 16.2396 447.281 16.7135 447.281 17.3594C447.281 17.7552 447.135 18.1719 446.844 18.6094C446.562 19.0365 446.172 19.4635 445.672 19.8906C445.182 20.3073 444.604 20.6979 443.938 21.0625C443.271 21.4271 442.562 21.7344 441.812 21.9844C441.812 22.4844 441.802 22.9583 441.781 23.4062C441.771 23.8542 441.766 24.276 441.766 24.6719C441.766 25.0052 441.776 25.3125 441.797 25.5938C441.818 25.8646 441.859 26.099 441.922 26.2969C441.995 26.4844 442.089 26.6354 442.203 26.75C442.328 26.8542 442.484 26.9062 442.672 26.9062C442.964 26.9062 443.312 26.7917 443.719 26.5625C444.135 26.3229 444.656 26.0208 445.281 25.6562C445.844 25.3229 446.562 24.9062 447.438 24.4062C448.312 23.9062 449.38 23.2969 450.641 22.5781C450.682 22.5469 450.74 22.5312 450.812 22.5312C450.927 22.5312 451.026 22.5833 451.109 22.6875C451.203 22.7812 451.25 22.901 451.25 23.0469C451.25 23.1719 451.203 23.3073 451.109 23.4531C451.026 23.599 450.87 23.7396 450.641 23.875C449.609 24.4896 448.609 25.1146 447.641 25.75C446.672 26.375 445.755 26.9479 444.891 27.4688C444.036 27.9792 443.245 28.401 442.516 28.7344C441.786 29.0573 441.151 29.2188 440.609 29.2188C440.245 29.2188 439.922 29.1406 439.641 28.9844C439.37 28.8281 439.135 28.5781 438.938 28.2344C438.75 27.8906 438.604 27.4427 438.5 26.8906C438.406 26.3281 438.359 25.6458 438.359 24.8438C438.359 24.7188 438.365 24.5208 438.375 24.25C438.396 23.9688 438.422 23.6719 438.453 23.3594C438.495 23.0365 438.542 22.724 438.594 22.4219C438.646 22.1198 438.708 21.8854 438.781 21.7188C438.708 21.7604 438.599 21.8229 438.453 21.9062C438.318 21.9896 438.156 22.0885 437.969 22.2031C437.781 22.3073 437.583 22.4219 437.375 22.5469C437.167 22.6719 436.958 22.7969 436.75 22.9219L435.125 23.875ZM445.594 17.4844C445.615 17.4219 445.625 17.3542 445.625 17.2812C445.625 17.0208 445.578 16.8281 445.484 16.7031C445.401 16.5781 445.255 16.5156 445.047 16.5156C444.807 16.5156 444.531 16.6094 444.219 16.7969C443.906 16.974 443.599 17.2396 443.297 17.5938C443.005 17.9479 442.74 18.3906 442.5 18.9219C442.271 19.4531 442.115 20.0625 442.031 20.75C442.458 20.5312 442.875 20.2812 443.281 20C443.688 19.7083 444.052 19.4167 444.375 19.125C444.708 18.8229 444.979 18.5312 445.188 18.25C445.406 17.9583 445.542 17.7031 445.594 17.4844ZM468.172 17.7344C468.172 17.9948 468.125 18.3021 468.031 18.6562C467.938 19 467.818 19.3698 467.672 19.7656C467.526 20.151 467.37 20.5469 467.203 20.9531C467.036 21.3594 466.88 21.7552 466.734 22.1406C466.589 22.5156 466.469 22.8698 466.375 23.2031C466.281 23.5365 466.234 23.8177 466.234 24.0469C466.234 24.2448 466.276 24.401 466.359 24.5156C466.453 24.6302 466.599 24.6875 466.797 24.6875C466.943 24.6875 467.146 24.6354 467.406 24.5312C467.677 24.4167 467.99 24.2656 468.344 24.0781C468.708 23.8802 469.104 23.6562 469.531 23.4062C469.969 23.1458 470.427 22.8698 470.906 22.5781C471.01 22.5156 471.115 22.4844 471.219 22.4844C471.333 22.4844 471.432 22.526 471.516 22.6094C471.609 22.6927 471.656 22.7969 471.656 22.9219C471.656 23.0573 471.599 23.2031 471.484 23.3594C471.37 23.5052 471.177 23.6771 470.906 23.875C469.552 24.8854 468.312 25.6667 467.188 26.2188C466.073 26.7708 465.182 27.0469 464.516 27.0469C463.974 27.0469 463.547 26.9635 463.234 26.7969C462.922 26.6302 462.766 26.3698 462.766 26.0156C462.766 25.6823 462.906 25.2604 463.188 24.75C463.479 24.2396 463.953 23.6354 464.609 22.9375C464.859 22.5208 465.057 22.0677 465.203 21.5781C465.349 21.0781 465.453 20.5938 465.516 20.125C465.589 19.6458 465.635 19.2083 465.656 18.8125C465.677 18.4062 465.688 18.0833 465.688 17.8438C465.688 17.4479 465.62 17.1458 465.484 16.9375C465.359 16.7188 465.146 16.6094 464.844 16.6094C464.51 16.6094 464.182 16.7604 463.859 17.0625C463.547 17.3542 463.229 17.7604 462.906 18.2812C462.594 18.8021 462.281 19.4167 461.969 20.125C461.656 20.8333 461.333 21.599 461 22.4219C460.677 23.2448 460.344 24.1042 460 25C459.656 25.8958 459.297 26.7969 458.922 27.7031C458.859 27.8802 458.781 28.0625 458.688 28.25C458.594 28.4375 458.484 28.6146 458.359 28.7812C458.245 28.9375 458.109 29.0677 457.953 29.1719C457.807 29.276 457.651 29.3281 457.484 29.3281C457.089 29.3281 456.792 29.2396 456.594 29.0625C456.396 28.8854 456.297 28.5938 456.297 28.1875C456.297 28.0729 456.302 27.9531 456.312 27.8281C456.333 27.7031 456.385 27.5573 456.469 27.3906L459.484 21.3438C459.88 20.3229 460.302 19.4792 460.75 18.8125C461.208 18.1458 461.62 17.6094 461.984 17.2031C461.13 17.7135 460.276 18.224 459.422 18.7344C458.568 19.2448 457.745 19.7396 456.953 20.2188C456.161 20.6875 455.411 21.1354 454.703 21.5625C454.005 21.9792 453.38 22.349 452.828 22.6719C452.276 22.9948 451.812 23.2604 451.438 23.4688C451.062 23.6771 450.802 23.8125 450.656 23.875C450.573 23.9271 450.484 23.9531 450.391 23.9531C450.276 23.9531 450.182 23.9115 450.109 23.8281C450.026 23.7448 449.984 23.6354 449.984 23.5C449.984 23.3542 450.036 23.1979 450.141 23.0312C450.234 22.8542 450.406 22.6927 450.656 22.5469L454.828 20.1094C455.37 19.7865 455.917 19.4635 456.469 19.1406C457.021 18.8073 457.536 18.5 458.016 18.2188C458.505 17.9375 458.938 17.6875 459.312 17.4688C459.688 17.25 459.974 17.0833 460.172 16.9688C460.672 16.6771 461.156 16.4271 461.625 16.2188C462.104 16.0104 462.578 15.8385 463.047 15.7031C463.516 15.5677 463.99 15.4635 464.469 15.3906C464.958 15.3177 465.469 15.2656 466 15.2344C466.229 15.2344 466.469 15.3073 466.719 15.4531C466.979 15.5885 467.214 15.776 467.422 16.0156C467.641 16.2448 467.818 16.5104 467.953 16.8125C468.099 17.1042 468.172 17.4115 468.172 17.7344ZM515.047 22.5781C515.182 22.526 515.292 22.5 515.375 22.5C515.521 22.5 515.651 22.5365 515.766 22.6094C515.891 22.6823 515.953 22.7865 515.953 22.9219C515.953 23.0677 515.797 23.2708 515.484 23.5312C515.172 23.7812 514.792 24.0521 514.344 24.3438C513.896 24.6354 513.432 24.9271 512.953 25.2188C512.474 25.5 512.062 25.7448 511.719 25.9531C511.26 26.2552 510.745 26.6198 510.172 27.0469C509.599 27.4635 509.005 27.8698 508.391 28.2656C507.786 28.6615 507.188 28.9948 506.594 29.2656C506.01 29.5469 505.479 29.6875 505 29.6875C504.573 29.6875 504.208 29.5312 503.906 29.2188C503.615 28.9167 503.469 28.4271 503.469 27.75C503.469 27.3438 503.531 26.8698 503.656 26.3281C503.781 25.776 503.99 25.1406 504.281 24.4219C504.625 23.5677 504.922 22.8177 505.172 22.1719C505.432 21.526 505.646 20.974 505.812 20.5156C505.979 20.0573 506.104 19.6823 506.188 19.3906C506.271 19.0885 506.312 18.8542 506.312 18.6875C506.312 18.3333 506.182 18.1562 505.922 18.1562C505.661 18.1562 505.297 18.3281 504.828 18.6719C504.359 19.0052 503.833 19.4479 503.25 20C502.677 20.5521 502.073 21.1875 501.438 21.9062C500.812 22.6146 500.214 23.349 499.641 24.1094C499.068 24.8698 498.552 25.6198 498.094 26.3594C497.635 27.099 497.286 27.7708 497.047 28.375C497.005 28.4792 496.927 28.5833 496.812 28.6875C496.698 28.7812 496.562 28.8698 496.406 28.9531C496.26 29.026 496.099 29.0833 495.922 29.125C495.745 29.1771 495.573 29.2031 495.406 29.2031C495.125 29.2031 494.88 29.125 494.672 28.9688C494.464 28.8021 494.359 28.5208 494.359 28.125C494.359 27.7917 494.422 27.4115 494.547 26.9844C494.682 26.5469 494.812 26.1354 494.938 25.75C495.115 25.125 495.302 24.4948 495.5 23.8594C495.708 23.2135 495.901 22.625 496.078 22.0938C496.286 21.4792 496.495 20.8802 496.703 20.2969C496.797 20.1406 496.896 19.974 497 19.7969C497.115 19.6094 497.214 19.4219 497.297 19.2344C497.38 19.0469 497.448 18.8646 497.5 18.6875C497.562 18.5 497.594 18.3333 497.594 18.1875C497.594 17.9271 497.474 17.7969 497.234 17.7969C496.745 17.7969 496.182 17.974 495.547 18.3281C494.922 18.6719 494.271 19.125 493.594 19.6875C492.927 20.2396 492.26 20.8698 491.594 21.5781C490.927 22.276 490.312 22.9844 489.75 23.7031C489.188 24.4115 488.703 25.0938 488.297 25.75C487.891 26.3958 487.609 26.9479 487.453 27.4062C487.359 27.6875 487.271 27.9323 487.188 28.1406C487.115 28.349 487.031 28.5208 486.938 28.6562C486.844 28.7917 486.729 28.8958 486.594 28.9688C486.458 29.0312 486.281 29.0625 486.062 29.0625C485.625 29.0625 485.328 28.9427 485.172 28.7031C485.026 28.4531 484.953 28.1354 484.953 27.75C484.953 27.5729 485.005 27.3021 485.109 26.9375C485.214 26.5625 485.349 26.1354 485.516 25.6562C485.693 25.1771 485.885 24.6615 486.094 24.1094C486.302 23.5469 486.51 22.9896 486.719 22.4375C486.938 21.875 487.146 21.3333 487.344 20.8125C487.542 20.2917 487.708 19.8281 487.844 19.4219L480.281 23.875C480.146 23.9479 480.016 23.9844 479.891 23.9844C479.766 23.9844 479.661 23.9479 479.578 23.875C479.484 23.8021 479.438 23.7031 479.438 23.5781C479.438 23.4427 479.505 23.2865 479.641 23.1094C479.766 22.9323 479.979 22.7552 480.281 22.5781L485.859 19.2969C485.995 19.1927 486.151 19.0885 486.328 18.9844C486.516 18.8802 486.708 18.7865 486.906 18.7031C487.115 18.6198 487.323 18.5521 487.531 18.5C487.74 18.4479 487.948 18.4219 488.156 18.4219C488.385 18.4219 488.589 18.4792 488.766 18.5938C488.953 18.6979 489.109 18.8333 489.234 19C489.359 19.1562 489.453 19.3333 489.516 19.5312C489.589 19.7292 489.625 19.9167 489.625 20.0938C489.625 20.2812 489.609 20.4688 489.578 20.6562C489.557 20.8333 489.505 21.0573 489.422 21.3281C489.349 21.5885 489.245 21.9115 489.109 22.2969C488.974 22.6823 488.797 23.1771 488.578 23.7812C488.943 23.2917 489.323 22.7865 489.719 22.2656C490.125 21.7344 490.552 21.2188 491 20.7188C491.448 20.2083 491.922 19.724 492.422 19.2656C492.932 18.8073 493.469 18.4062 494.031 18.0625C494.594 17.7188 495.188 17.4479 495.812 17.25C496.448 17.0417 497.115 16.9375 497.812 16.9375C498.021 16.9375 498.224 16.9896 498.422 17.0938C498.63 17.1875 498.812 17.3385 498.969 17.5469C499.135 17.7552 499.266 18.0208 499.359 18.3438C499.464 18.6667 499.516 19.0469 499.516 19.4844C499.516 19.9948 499.438 20.5833 499.281 21.25C499.135 21.9062 498.88 22.6562 498.516 23.5C499.255 22.4167 500 21.5104 500.75 20.7812C501.51 20.0417 502.245 19.4323 502.953 18.9531C503.672 18.474 504.354 18.1094 505 17.8594C505.646 17.599 506.229 17.4062 506.75 17.2812C507.042 17.2812 507.349 17.3229 507.672 17.4062C507.995 17.4896 508.286 17.6146 508.547 17.7812C508.807 17.9375 509.021 18.1406 509.188 18.3906C509.365 18.6406 509.453 18.9323 509.453 19.2656C509.453 19.3594 509.448 19.4531 509.438 19.5469C509.427 19.6406 509.406 19.7396 509.375 19.8438C509.25 20.2812 509.078 20.7552 508.859 21.2656C508.641 21.7656 508.406 22.276 508.156 22.7969C507.906 23.3177 507.646 23.8333 507.375 24.3438C507.115 24.8438 506.88 25.3177 506.672 25.7656C506.464 26.2031 506.292 26.599 506.156 26.9531C506.021 27.2969 505.953 27.5677 505.953 27.7656C505.953 28.0156 506.047 28.1406 506.234 28.1406C506.391 28.1406 506.63 28.0417 506.953 27.8438C507.286 27.6458 507.667 27.401 508.094 27.1094C508.521 26.8073 508.984 26.4792 509.484 26.125C509.984 25.7708 510.484 25.4375 510.984 25.125L515.047 22.5781ZM529.734 16.2969C530.328 16.2969 530.854 16.4167 531.312 16.6562C531.781 16.8958 532.172 17.224 532.484 17.6406C532.807 18.0469 533.052 18.526 533.219 19.0781C533.385 19.6302 533.469 20.2188 533.469 20.8438C533.469 21.2083 533.427 21.6094 533.344 22.0469C533.26 22.4844 533.141 22.9375 532.984 23.4062C532.828 23.8646 532.635 24.3229 532.406 24.7812C532.188 25.2396 531.943 25.6615 531.672 26.0469C531.87 25.9427 532.109 25.8125 532.391 25.6562C532.672 25.5 532.969 25.3333 533.281 25.1562C533.604 24.9688 533.938 24.776 534.281 24.5781C534.635 24.3802 534.979 24.1875 535.312 24L537.734 22.5781C537.807 22.5365 537.906 22.5156 538.031 22.5156C538.271 22.5156 538.391 22.6406 538.391 22.8906C538.391 23.2344 538.172 23.5625 537.734 23.875C537.359 24.125 536.87 24.4375 536.266 24.8125C535.661 25.1875 535.005 25.5573 534.297 25.9219C533.599 26.276 532.885 26.5938 532.156 26.875C531.438 27.1458 530.766 27.3021 530.141 27.3438C529.328 27.9479 528.375 28.4375 527.281 28.8125C526.188 29.1771 524.911 29.3594 523.453 29.3594C522.734 29.3594 522.125 29.2969 521.625 29.1719C521.135 29.0469 520.74 28.8646 520.438 28.625C520.135 28.3854 519.917 28.0938 519.781 27.75C519.646 27.3958 519.578 26.9896 519.578 26.5312C519.578 25.8646 519.714 25.151 519.984 24.3906C520.255 23.6302 520.589 22.8906 520.984 22.1719C521.391 21.4427 521.823 20.7656 522.281 20.1406C522.74 19.5156 523.156 19 523.531 18.5938C523.198 18.8854 522.724 19.2344 522.109 19.6406C521.505 20.0469 520.818 20.4844 520.047 20.9531C519.286 21.4115 518.474 21.8906 517.609 22.3906C516.755 22.8906 515.906 23.3854 515.062 23.875C514.938 23.9271 514.823 23.9531 514.719 23.9531C514.583 23.9531 514.479 23.9167 514.406 23.8438C514.333 23.7604 514.297 23.6562 514.297 23.5312C514.297 23.3854 514.359 23.2344 514.484 23.0781C514.599 22.9115 514.792 22.7448 515.062 22.5781C516.646 21.651 517.995 20.8542 519.109 20.1875C520.224 19.5104 521.188 18.9375 522 18.4688C522.812 18 523.521 17.625 524.125 17.3438C524.729 17.0625 525.307 16.8438 525.859 16.6875C526.422 16.5312 527.005 16.4271 527.609 16.375C528.214 16.3229 528.922 16.2969 529.734 16.2969ZM523.484 28.0156C524.141 28.0156 524.781 27.8802 525.406 27.6094C526.031 27.3385 526.641 26.9688 527.234 26.5C527.099 26.3438 527.005 26.1667 526.953 25.9688C526.901 25.7708 526.875 25.5677 526.875 25.3594C526.875 24.9948 526.995 24.724 527.234 24.5469C527.474 24.3594 527.76 24.2656 528.094 24.2656C528.448 24.2656 528.792 24.3698 529.125 24.5781C529.458 24.3385 529.776 24.0521 530.078 23.7188C530.38 23.3854 530.641 23.0312 530.859 22.6562C531.089 22.2812 531.266 21.8958 531.391 21.5C531.526 21.1042 531.594 20.7188 531.594 20.3438C531.594 20.0208 531.531 19.7135 531.406 19.4219C531.292 19.1198 531.099 18.8594 530.828 18.6406C530.568 18.4219 530.219 18.25 529.781 18.125C529.354 17.9896 528.833 17.9219 528.219 17.9219C527.708 17.9219 527.198 18.0573 526.688 18.3281C526.188 18.599 525.703 18.9635 525.234 19.4219C524.776 19.8698 524.344 20.3854 523.938 20.9688C523.542 21.5417 523.198 22.1354 522.906 22.75C522.615 23.3646 522.385 23.9688 522.219 24.5625C522.052 25.1562 521.969 25.6979 521.969 26.1875C521.969 26.7292 522.089 27.1719 522.328 27.5156C522.568 27.849 522.953 28.0156 523.484 28.0156ZM552.422 16.2969C553.016 16.2969 553.542 16.4167 554 16.6562C554.469 16.8958 554.859 17.224 555.172 17.6406C555.495 18.0469 555.74 18.526 555.906 19.0781C556.073 19.6302 556.156 20.2188 556.156 20.8438C556.156 21.2083 556.115 21.6094 556.031 22.0469C555.948 22.4844 555.828 22.9375 555.672 23.4062C555.516 23.8646 555.323 24.3229 555.094 24.7812C554.875 25.2396 554.63 25.6615 554.359 26.0469C554.557 25.9427 554.797 25.8125 555.078 25.6562C555.359 25.5 555.656 25.3333 555.969 25.1562C556.292 24.9688 556.625 24.776 556.969 24.5781C557.323 24.3802 557.667 24.1875 558 24L560.422 22.5781C560.495 22.5365 560.594 22.5156 560.719 22.5156C560.958 22.5156 561.078 22.6406 561.078 22.8906C561.078 23.2344 560.859 23.5625 560.422 23.875C560.047 24.125 559.557 24.4375 558.953 24.8125C558.349 25.1875 557.693 25.5573 556.984 25.9219C556.286 26.276 555.573 26.5938 554.844 26.875C554.125 27.1458 553.453 27.3021 552.828 27.3438C552.016 27.9479 551.062 28.4375 549.969 28.8125C548.875 29.1771 547.599 29.3594 546.141 29.3594C545.422 29.3594 544.812 29.2969 544.312 29.1719C543.823 29.0469 543.427 28.8646 543.125 28.625C542.823 28.3854 542.604 28.0938 542.469 27.75C542.333 27.3958 542.266 26.9896 542.266 26.5312C542.266 25.8646 542.401 25.151 542.672 24.3906C542.943 23.6302 543.276 22.8906 543.672 22.1719C544.078 21.4427 544.51 20.7656 544.969 20.1406C545.427 19.5156 545.844 19 546.219 18.5938C545.885 18.8854 545.411 19.2344 544.797 19.6406C544.193 20.0469 543.505 20.4844 542.734 20.9531C541.974 21.4115 541.161 21.8906 540.297 22.3906C539.443 22.8906 538.594 23.3854 537.75 23.875C537.625 23.9271 537.51 23.9531 537.406 23.9531C537.271 23.9531 537.167 23.9167 537.094 23.8438C537.021 23.7604 536.984 23.6562 536.984 23.5312C536.984 23.3854 537.047 23.2344 537.172 23.0781C537.286 22.9115 537.479 22.7448 537.75 22.5781C539.333 21.651 540.682 20.8542 541.797 20.1875C542.911 19.5104 543.875 18.9375 544.688 18.4688C545.5 18 546.208 17.625 546.812 17.3438C547.417 17.0625 547.995 16.8438 548.547 16.6875C549.109 16.5312 549.693 16.4271 550.297 16.375C550.901 16.3229 551.609 16.2969 552.422 16.2969ZM546.172 28.0156C546.828 28.0156 547.469 27.8802 548.094 27.6094C548.719 27.3385 549.328 26.9688 549.922 26.5C549.786 26.3438 549.693 26.1667 549.641 25.9688C549.589 25.7708 549.562 25.5677 549.562 25.3594C549.562 24.9948 549.682 24.724 549.922 24.5469C550.161 24.3594 550.448 24.2656 550.781 24.2656C551.135 24.2656 551.479 24.3698 551.812 24.5781C552.146 24.3385 552.464 24.0521 552.766 23.7188C553.068 23.3854 553.328 23.0312 553.547 22.6562C553.776 22.2812 553.953 21.8958 554.078 21.5C554.214 21.1042 554.281 20.7188 554.281 20.3438C554.281 20.0208 554.219 19.7135 554.094 19.4219C553.979 19.1198 553.786 18.8594 553.516 18.6406C553.255 18.4219 552.906 18.25 552.469 18.125C552.042 17.9896 551.521 17.9219 550.906 17.9219C550.396 17.9219 549.885 18.0573 549.375 18.3281C548.875 18.599 548.391 18.9635 547.922 19.4219C547.464 19.8698 547.031 20.3854 546.625 20.9688C546.229 21.5417 545.885 22.1354 545.594 22.75C545.302 23.3646 545.073 23.9688 544.906 24.5625C544.74 25.1562 544.656 25.6979 544.656 26.1875C544.656 26.7292 544.776 27.1719 545.016 27.5156C545.255 27.849 545.641 28.0156 546.172 28.0156ZM564.219 25.1875C564.219 24.8021 564.333 24.3385 564.562 23.7969C564.802 23.2552 565.109 22.7031 565.484 22.1406C565.87 21.5781 566.302 21.0417 566.781 20.5312C567.26 20.0104 567.74 19.5885 568.219 19.2656L560.438 23.875C560.396 23.8958 560.359 23.9115 560.328 23.9219C560.286 23.9219 560.25 23.9219 560.219 23.9219C560.104 23.9219 560.016 23.8802 559.953 23.7969C559.891 23.7135 559.859 23.6094 559.859 23.4844C559.859 23.3385 559.906 23.1823 560 23.0156C560.094 22.8385 560.24 22.6927 560.438 22.5781L564.734 19.9688C565.318 19.6146 565.979 19.2396 566.719 18.8438C567.458 18.4375 568.224 18.0677 569.016 17.7344C569.818 17.401 570.625 17.125 571.438 16.9062C572.25 16.6771 573.021 16.5625 573.75 16.5625C574.427 16.5625 575.026 16.6667 575.547 16.875L579.625 8.64062C579.729 8.42188 579.839 8.1875 579.953 7.9375C580.078 7.67708 580.234 7.4375 580.422 7.21875C580.62 7 580.865 6.81771 581.156 6.67188C581.458 6.51562 581.844 6.4375 582.312 6.4375C582.458 6.4375 582.547 6.48958 582.578 6.59375C582.62 6.6875 582.641 6.8125 582.641 6.96875C582.62 7.11458 582.583 7.28125 582.531 7.46875C582.479 7.64583 582.422 7.82292 582.359 8C582.307 8.17708 582.255 8.33854 582.203 8.48438C582.151 8.63021 582.109 8.73958 582.078 8.8125L577.422 18.9375C577.193 19.6146 576.906 20.3177 576.562 21.0469C576.229 21.7656 575.901 22.4688 575.578 23.1562C575.266 23.8333 574.995 24.4688 574.766 25.0625C574.547 25.6562 574.438 26.1615 574.438 26.5781C574.438 26.724 574.453 26.8646 574.484 27C574.526 27.1354 574.599 27.2031 574.703 27.2031C574.839 27.2031 575.042 27.151 575.312 27.0469C575.594 26.9427 575.911 26.7969 576.266 26.6094C576.62 26.4219 577 26.2031 577.406 25.9531C577.823 25.6927 578.234 25.4167 578.641 25.125L582.703 22.5781C582.786 22.5365 582.849 22.5156 582.891 22.5156C582.974 22.5156 583.036 22.5573 583.078 22.6406C583.13 22.724 583.156 22.8229 583.156 22.9375C583.156 23.1146 583.115 23.2917 583.031 23.4688C582.958 23.6354 582.849 23.7708 582.703 23.875C582.109 24.2708 581.495 24.6823 580.859 25.1094C580.234 25.526 579.604 25.9427 578.969 26.3594C578.333 26.7656 577.708 27.1562 577.094 27.5312C576.49 27.9062 575.906 28.25 575.344 28.5625C574.542 29.0104 573.823 29.2344 573.188 29.2344C572.771 29.2344 572.49 29.1198 572.344 28.8906C572.198 28.6615 572.125 28.3646 572.125 28C572.125 27.7812 572.141 27.5573 572.172 27.3281C572.214 27.0885 572.271 26.8333 572.344 26.5625C572.062 26.9688 571.74 27.3333 571.375 27.6562C571.01 27.9792 570.62 28.2552 570.203 28.4844C569.797 28.7135 569.37 28.8854 568.922 29C568.484 29.125 568.057 29.1875 567.641 29.1875C567.182 29.1875 566.745 29.1146 566.328 28.9688C565.911 28.8125 565.547 28.5729 565.234 28.25C564.922 27.9167 564.672 27.5 564.484 27C564.307 26.5 564.219 25.8958 564.219 25.1875ZM574.406 19.75C574.448 19.6354 574.5 19.4948 574.562 19.3281C574.635 19.1615 574.703 19 574.766 18.8438C574.839 18.6875 574.896 18.5469 574.938 18.4219C574.99 18.2865 575.016 18.1927 575.016 18.1406C575.016 18.0781 574.896 18.0312 574.656 18C574.417 17.9688 574.099 17.9531 573.703 17.9531C573.182 17.9531 572.651 18.0938 572.109 18.375C571.578 18.6458 571.057 19.0052 570.547 19.4531C570.047 19.901 569.573 20.4167 569.125 21C568.688 21.5729 568.302 22.1667 567.969 22.7812C567.646 23.3854 567.385 23.9844 567.188 24.5781C567 25.1719 566.906 25.7083 566.906 26.1875C566.906 26.8333 567.016 27.2969 567.234 27.5781C567.453 27.849 567.74 27.9844 568.094 27.9844C568.573 27.9844 569.089 27.7812 569.641 27.375C570.203 26.9688 570.766 26.4062 571.328 25.6875C571.891 24.9583 572.438 24.0885 572.969 23.0781C573.5 22.0677 573.979 20.9583 574.406 19.75ZM586.484 29.2656C586.13 29.2656 585.823 29.1979 585.562 29.0625C585.312 28.9271 585.104 28.7448 584.938 28.5156C584.771 28.2865 584.646 28.026 584.562 27.7344C584.49 27.4323 584.453 27.1198 584.453 26.7969C584.453 26.2656 584.542 25.724 584.719 25.1719C584.896 24.6094 585.151 24.099 585.484 23.6406C585.818 23.1719 586.219 22.7917 586.688 22.5C587.167 22.1979 587.703 22.0469 588.297 22.0469C588.911 22.0469 589.432 22.125 589.859 22.2812C590.286 22.4375 590.63 22.6458 590.891 22.9062C591.151 23.1667 591.339 23.4688 591.453 23.8125C591.568 24.1458 591.625 24.4896 591.625 24.8438C591.625 25.4479 591.469 26.0208 591.156 26.5625C590.844 27.0938 590.438 27.5625 589.938 27.9688C589.448 28.3646 588.896 28.6823 588.281 28.9219C587.677 29.151 587.078 29.2656 586.484 29.2656Z" fill="#9A4F4F" fill-opacity="0.3"/>
</svg>
