<svg width="26" height="23" viewBox="0 0 26 23" fill="none" xmlns="http://www.w3.org/2000/svg">
<path fill-rule="evenodd" clip-rule="evenodd" d="M7.64045 0.069C9.02673 0.0125454 9.46873 0 13 0C16.5313 0 16.9733 0.0135909 18.3584 0.069C19.7435 0.124409 20.6889 0.319909 21.5162 0.603227C22.3825 0.892818 23.1684 1.3455 23.8184 1.93095C24.4802 2.50491 24.9907 3.19909 25.3169 3.96645C25.6384 4.69827 25.8582 5.53464 25.922 6.75782C25.9858 7.98623 26 8.37723 26 11.5C26 14.6238 25.9846 15.0148 25.922 16.2411C25.8594 17.4643 25.6384 18.3007 25.3169 19.0325C24.9907 19.8 24.4793 20.4953 23.8184 21.0701C23.1684 21.6555 22.3825 22.1072 21.5162 22.3957C20.6889 22.6801 19.7435 22.8745 18.3607 22.931C16.9733 22.9875 16.5313 23 13 23C9.46873 23 9.02673 22.9864 7.64045 22.931C6.25773 22.8756 5.31227 22.6801 4.485 22.3957C3.61745 22.1071 2.83142 21.6548 2.18164 21.0701C1.52027 20.4958 1.00846 19.8008 0.681909 19.0335C0.361636 18.3017 0.141818 17.4654 0.078 16.2422C0.0141818 15.0138 0 14.6228 0 11.5C0 8.37618 0.0153636 7.98518 0.078 6.75991C0.140636 5.53464 0.361636 4.69827 0.681909 3.96645C1.00895 3.19918 1.52114 2.50419 2.18282 1.92991C2.83168 1.34498 3.61692 0.892236 4.48382 0.603227C5.31109 0.319909 6.25773 0.125455 7.64045 0.069ZM18.252 2.139C16.8811 2.08359 16.4698 2.07209 12.9988 2.07209C9.52782 2.07209 9.11654 2.08359 7.74564 2.139C6.47755 2.19023 5.78973 2.37736 5.33118 2.53523C4.72491 2.74432 4.29118 2.99209 3.83618 3.39459C3.40487 3.76578 3.07294 4.21766 2.86473 4.71709C2.68627 5.12273 2.47473 5.73118 2.41682 6.85295C2.35418 8.06568 2.34118 8.4295 2.34118 11.5C2.34118 14.5705 2.35418 14.9343 2.41682 16.147C2.47473 17.2688 2.68627 17.8773 2.86473 18.2829C3.07273 18.7816 3.40482 19.2343 3.83618 19.6054C4.25573 19.987 4.76745 20.2808 5.33118 20.4648C5.78973 20.6226 6.47755 20.8098 7.74564 20.861C9.11654 20.9164 9.52664 20.9279 12.9988 20.9279C16.471 20.9279 16.8811 20.9164 18.252 20.861C19.5201 20.8098 20.2079 20.6226 20.6665 20.4648C21.2727 20.2557 21.7065 20.0079 22.1615 19.6054C22.5928 19.2343 22.9249 18.7816 23.1329 18.2829C23.3114 17.8773 23.5229 17.2688 23.5808 16.147C23.6435 14.9343 23.6565 14.5705 23.6565 11.5C23.6565 8.4295 23.6435 8.06568 23.5808 6.85295C23.5229 5.73118 23.3114 5.12273 23.1329 4.71709C22.8965 4.18077 22.6165 3.79709 22.1615 3.39459C21.7418 3.01307 21.231 2.71945 20.6665 2.53523C20.2079 2.37736 19.5201 2.19023 18.252 2.139ZM11.3384 15.0451C12.2657 15.3866 13.2983 15.4327 14.2597 15.1755C15.2212 14.9184 16.0519 14.3739 16.61 13.6351C17.1681 12.8963 17.4189 12.009 17.3196 11.1248C17.2203 10.2406 16.7771 9.41429 16.0656 8.78704C15.6121 8.38609 15.0637 8.07908 14.4599 7.88811C13.8562 7.69714 13.2121 7.62697 12.5739 7.68264C11.9358 7.73832 11.3196 7.91846 10.7697 8.21009C10.2197 8.50172 9.7497 8.8976 9.39345 9.36921C9.0372 9.84082 8.80359 10.3764 8.70943 10.9375C8.61527 11.4986 8.66291 12.0711 8.84891 12.6139C9.03492 13.1568 9.35466 13.6564 9.78512 14.0768C10.2156 14.4971 10.7461 14.8279 11.3384 15.0451ZM8.27509 7.32027C8.89557 6.77138 9.6322 6.33598 10.4429 6.03892C11.2536 5.74187 12.1225 5.58897 13 5.58897C13.8775 5.58897 14.7464 5.74187 15.5571 6.03892C16.3678 6.33598 17.1044 6.77138 17.7249 7.32027C18.3454 7.86916 18.8376 8.52079 19.1734 9.23795C19.5092 9.95511 19.682 10.7238 19.682 11.5C19.682 12.2762 19.5092 13.0449 19.1734 13.7621C18.8376 14.4792 18.3454 15.1308 17.7249 15.6797C16.4718 16.7883 14.7722 17.411 13 17.411C11.2278 17.411 9.52821 16.7883 8.27509 15.6797C7.02197 14.5712 6.31797 13.0677 6.31797 11.5C6.31797 9.9323 7.02197 8.4288 8.27509 7.32027ZM21.164 6.46927C21.3178 6.34096 21.4409 6.18667 21.526 6.01552C21.6111 5.84437 21.6566 5.65985 21.6597 5.47288C21.6628 5.28591 21.6234 5.1003 21.5439 4.92703C21.4645 4.75376 21.3465 4.59635 21.197 4.46413C21.0476 4.33191 20.8696 4.22756 20.6738 4.15727C20.4779 4.08697 20.2681 4.05216 20.0567 4.05488C19.8454 4.05761 19.6368 4.09782 19.4433 4.17314C19.2498 4.24845 19.0754 4.35734 18.9304 4.49336C18.6483 4.75789 18.4938 5.10926 18.4998 5.47288C18.5058 5.8365 18.6718 6.18374 18.9625 6.44088C19.2531 6.69803 19.6457 6.84483 20.0567 6.85013C20.4678 6.85543 20.865 6.71881 21.164 6.46927Z" fill="white"/>
</svg>
