<svg width="89" height="79" viewBox="0 0 89 79" fill="none" xmlns="http://www.w3.org/2000/svg">
<path d="M47.3885 39.1393L33.738 27.1039L39.9528 21.5266L59.9293 39.1393L39.9528 56.752L33.738 51.1746L47.3885 39.1393ZM44.3921 -7.61588e-06C38.2512 -7.61775e-06 32.4802 1.02805 27.0792 3.08417C21.6781 5.14028 16.98 7.9283 12.9847 11.4482C8.9894 14.9682 5.8272 19.1104 3.4981 23.875C1.169 28.6395 0.0029651 33.7276 5.63323e-06 39.1393C-0.00295384 44.5509 1.16308 49.639 3.4981 54.4036C5.83312 59.1682 8.99531 63.3104 12.9847 66.8303C16.974 70.3502 21.6722 73.1383 27.0792 75.1944C32.4861 77.2505 38.2571 78.2786 44.3921 78.2786C50.527 78.2786 56.298 77.2505 61.7049 75.1944C67.1119 73.1383 71.8101 70.3502 75.7994 66.8303C79.7888 63.3104 82.9525 59.1682 85.2904 54.4036C87.6284 49.639 88.793 44.5509 88.7841 39.1393C88.7752 33.7276 87.6092 28.6395 85.286 23.875C82.9628 19.1104 79.8006 14.9682 75.7994 11.4482C71.7982 7.9283 67.1001 5.13898 61.7049 3.08025C56.3098 1.02153 50.5389 -0.00522612 44.3921 -7.61588e-06ZM44.3921 7.82785C54.3063 7.82785 62.7038 10.8611 69.5845 16.9277C76.4653 22.9943 79.9057 30.3982 79.9057 39.1393C79.9057 47.8804 76.4653 55.2842 69.5845 61.3508C62.7038 67.4174 54.3063 70.4507 44.3921 70.4507C34.4778 70.4507 26.0803 67.4174 19.1996 61.3508C12.3188 55.2842 8.87842 47.8804 8.87842 39.1393C8.87842 30.3982 12.3188 22.9943 19.1996 16.9277C26.0803 10.8611 34.4778 7.82785 44.3921 7.82785Z" fill="white"/>
</svg>
