<svg width="29" height="25" viewBox="0 0 29 25" fill="none" xmlns="http://www.w3.org/2000/svg">
<path d="M14.3849 24.3912L2.72279 12.6897C1.79254 11.7563 1.17316 10.6719 0.864642 9.43655C0.563698 8.2012 0.569559 6.97393 0.882224 5.75476C1.1949 4.52801 1.81413 3.46088 2.73991 2.55335C3.68845 1.62313 4.76904 1.00753 5.98167 0.706549C7.20189 0.398003 8.41779 0.400057 9.62939 0.712711C10.8486 1.02538 11.9308 1.64463 12.8763 2.57047L14.4192 4.07308L15.9672 2.57569C16.9233 1.65306 18.0076 1.03747 19.2203 0.728911C20.4329 0.420352 21.645 0.422399 22.8566 0.735053C24.0758 1.04014 25.1581 1.65939 26.1035 2.59281C27.0262 3.50346 27.6418 4.57269 27.9504 5.80048C28.2589 7.0207 28.2568 8.24797 27.9441 9.48229C27.639 10.7166 27.0198 11.7989 26.0864 12.7292L14.3849 24.3912Z" fill="#9A4F4F"/>
</svg>
